SplineFontDB: 3.0
FontName: Lohit-Malayalam
FullName: Lohit Malayalam
FamilyName: Lohit Malayalam
Weight: Book
Copyright: Copyright 2013-14 Lohit Fonts Project contributors.\n<http://fedorahosted.org/lohit>\nOpen type tables written by:\nPravin Satpute <psatpute AT redhat DOT com>\nSneha Kore <skore At redhat DOT com>\n\n   Licensed under the SIL Open Font License 1.1 (see file OFL.txt)
Version: 2.92.2
ItalicAngle: 0
UnderlinePosition: -300
UnderlineWidth: 20
Ascent: 650
Descent: 374
sfntRevision: 0x00028000
LayerCount: 2
Layer: 0 1 "Back"  1
Layer: 1 1 "Fore"  0
XUID: [1021 641 1310512963 15091802]
FSType: 0
OS2Version: 1
OS2_WeightWidthSlopeOnly: 0
OS2_UseTypoMetrics: 1
CreationTime: 1159524182
ModificationTime: 1392711971
PfmFamily: 17
TTFWeight: 400
TTFWidth: 5
LineGap: 200
VLineGap: 0
Panose: 2 11 6 0 0 0 0 0 0 0
OS2TypoAscent: 650
OS2TypoAOffset: 0
OS2TypoDescent: -374
OS2TypoDOffset: 0
OS2TypoLinegap: 0
OS2WinAscent: 866
OS2WinAOffset: 0
OS2WinDescent: 609
OS2WinDOffset: 0
HheadAscent: 866
HheadAOffset: 0
HheadDescent: -609
HheadDOffset: 0
OS2SubXSize: 717
OS2SubYSize: 666
OS2SubXOff: 0
OS2SubYOff: 205
OS2SupXSize: 717
OS2SupYSize: 666
OS2SupXOff: 0
OS2SupYOff: 512
OS2StrikeYSize: 50
OS2StrikeYPos: 250
OS2Vendor: 'PfEd'
OS2CodePages: 00000001.00000000
OS2UnicodeRanges: 80808001.00002000.00000000.00000000
Lookup: 4 0 0 "'akhn' Akhand lookup 0"  {"'akhn' Akhand lookup 0 subtable"  } ['akhn' ('mlm2' <'dflt' > 'mlym' <'dflt' > ) ]
Lookup: 4 0 0 "'pref' Pre Base Forms lookup 1"  {"'pref' Pre Base Forms lookup 1 subtable"  } ['pref' ('mlm2' <'dflt' > 'mlym' <'dflt' > ) ]
Lookup: 4 0 0 "'blwf' Below Base Forms in Malay+AQEA-lam2 lookup 2"  {"'blwf' Below Base Forms in Malay+AQEA-lam2 lookup 2 subtable"  } ['blwf' ('mlm2' <'dflt' > ) ]
Lookup: 4 0 0 "'blwf' Below Base Forms in Malay+AQEA-lam lookup 3"  {"'blwf' Below Base Forms in Malay+AQEA-lam lookup 3 subtable"  } ['blwf' ('mlym' <'dflt' > ) ]

StartChar: .notdef
Encoding: 65536 -1 0
Width: 374
Flags: W
LayerCount: 2
Fore
SplineSet
34 0 m 1,0,-1
 34 650 l 1,1,-1
 306 650 l 1,2,-1
 306 0 l 1,3,-1
 34 0 l 1,0,-1
68 34 m 1,4,-1
 272 34 l 1,5,-1
 272 616 l 1,6,-1
 68 616 l 1,7,-1
 68 34 l 1,4,-1
EndSplineSet
EndChar

StartChar: digitzero
Encoding: 48 48 4
Width: 624
GlyphClass: 2
Flags: W
LayerCount: 2
Fore
SplineSet
44 361 m 1,0,1
 44 512 44 512 115.5 624.5 c 128,-1,2
 187 737 187 737 312 737 c 128,-1,3
 437 737 437 737 508.5 624.5 c 128,-1,4
 580 512 580 512 580 361 c 0,5,6
 580 211 580 211 508.5 99.5 c 128,-1,7
 437 -12 437 -12 312 -12 c 128,-1,8
 187 -12 187 -12 115.5 99.5 c 128,-1,9
 44 211 44 211 44 361 c 1,10,-1
 44 361 l 1,0,1
113 361 m 1,11,12
 113 239 113 239 164 149.5 c 128,-1,13
 215 60 215 60 312 60 c 128,-1,14
 409 60 409 60 460 149.5 c 128,-1,15
 511 239 511 239 511 361 c 0,16,17
 511 484 511 484 460 574 c 128,-1,18
 409 664 409 664 312 664 c 128,-1,19
 215 664 215 664 164 574 c 128,-1,20
 113 484 113 484 113 361 c 1,21,-1
 113 361 l 1,11,12
EndSplineSet
EndChar

StartChar: digitone
Encoding: 49 49 5
Width: 623
GlyphClass: 2
Flags: W
LayerCount: 2
Fore
SplineSet
127 532 m 1,0,-1
 127 571 l 1,1,2
 213 571 213 571 275.5 608.5 c 128,-1,3
 338 646 338 646 332 714 c 1,4,-1
 380 714 l 1,5,-1
 380 75 l 1,6,-1
 495 75 l 1,7,-1
 495 0 l 1,8,-1
 178 0 l 1,9,-1
 178 75 l 1,10,-1
 312 75 l 1,11,-1
 312 532 l 1,12,-1
 127 532 l 1,13,-1
 127 532 l 1,0,-1
EndSplineSet
EndChar

StartChar: digittwo
Encoding: 50 50 6
Width: 623
GlyphClass: 2
Flags: W
LayerCount: 2
Fore
SplineSet
66 0 m 1,0,1
 66 102 66 102 136.5 183 c 128,-1,2
 207 264 207 264 322 330 c 0,3,4
 398 374 398 374 441 416 c 128,-1,5
 484 458 484 458 484 517 c 0,6,7
 484 573 484 573 435 605.5 c 128,-1,8
 386 638 386 638 320 638 c 256,9,10
 254 638 254 638 206.5 595.5 c 128,-1,11
 159 553 159 553 159 490 c 2,12,-1
 159 446 l 1,13,-1
 90 446 l 1,14,-1
 90 490 l 2,15,16
 90 581 90 581 158 644 c 128,-1,17
 226 707 226 707 320 707 c 0,18,19
 413 707 413 707 482 654 c 128,-1,20
 551 601 551 601 551 517 c 0,21,22
 551 440 551 440 499 378 c 128,-1,23
 447 316 447 316 364 268 c 0,24,25
 276 217 276 217 226 174.5 c 128,-1,26
 176 132 176 132 159 69 c 1,27,-1
 556 69 l 1,28,-1
 556 0 l 1,29,-1
 66 0 l 1,30,-1
 66 0 l 1,0,1
EndSplineSet
EndChar

StartChar: digitthree
Encoding: 51 51 7
Width: 623
GlyphClass: 2
Flags: W
LayerCount: 2
Fore
SplineSet
57 222 m 1,0,-1
 126 222 l 1,1,2
 126 152 126 152 182.5 106 c 128,-1,3
 239 60 239 60 316 60 c 0,4,5
 389 60 389 60 443 103 c 128,-1,6
 497 146 497 146 497 213 c 0,7,8
 497 275 497 275 443 312.5 c 128,-1,9
 389 350 389 350 316 350 c 2,10,-1
 254 350 l 1,11,-1
 254 421 l 1,12,-1
 316 421 l 2,13,14
 375 421 375 421 418.5 458 c 128,-1,15
 462 495 462 495 462 550 c 0,16,17
 462 598 462 598 418.5 624.5 c 128,-1,18
 375 651 375 651 316 651 c 0,19,20
 246 651 246 651 195 606 c 128,-1,21
 144 561 144 561 144 494 c 1,22,-1
 74 494 l 1,23,24
 74 588 74 588 143 653 c 128,-1,25
 212 718 212 718 308 718 c 0,26,27
 397 718 397 718 463.5 672.5 c 128,-1,28
 530 627 530 627 530 550 c 0,29,30
 530 500 530 500 509.5 457 c 128,-1,31
 489 414 489 414 450 390 c 1,32,33
 504 374 504 374 535 324.5 c 128,-1,34
 566 275 566 275 566 213 c 0,35,36
 566 117 566 117 492 52.5 c 128,-1,37
 418 -12 418 -12 316 -12 c 0,38,39
 211 -12 211 -12 134 55 c 128,-1,40
 57 122 57 122 57 222 c 1,41,-1
 57 222 l 1,0,-1
EndSplineSet
EndChar

StartChar: digitfour
Encoding: 52 52 8
Width: 624
GlyphClass: 2
Flags: W
LayerCount: 2
Fore
SplineSet
62 168 m 1,0,-1
 62 259 l 1,1,-1
 367 714 l 1,2,-1
 458 714 l 1,3,-1
 458 235 l 1,4,-1
 562 235 l 1,5,-1
 562 168 l 1,6,-1
 458 168 l 1,7,-1
 458 0 l 1,8,-1
 390 0 l 1,9,-1
 390 168 l 1,10,-1
 62 168 l 1,11,-1
 62 168 l 1,0,-1
126 235 m 1,12,-1
 390 235 l 1,13,-1
 390 628 l 1,14,-1
 126 235 l 1,15,-1
 126 235 l 1,12,-1
EndSplineSet
EndChar

StartChar: digitfive
Encoding: 53 53 9
Width: 623
GlyphClass: 2
Flags: W
LayerCount: 2
Fore
SplineSet
57 203 m 1,0,-1
 126 203 l 1,1,2
 126 138 126 138 180.5 97.5 c 128,-1,3
 235 57 235 57 308 57 c 0,4,5
 385 57 385 57 441 106.5 c 128,-1,6
 497 156 497 156 497 229 c 0,7,8
 497 305 497 305 441.5 358 c 128,-1,9
 386 411 386 411 308 411 c 0,10,11
 254 411 254 411 205 383.5 c 128,-1,12
 156 356 156 356 117 309 c 1,13,-1
 66 328 l 1,14,-1
 138 702 l 1,15,-1
 512 702 l 1,16,-1
 512 633 l 1,17,-1
 186 633 l 1,18,-1
 150 411 l 1,19,20
 178 444 178 444 219.5 461 c 128,-1,21
 261 478 261 478 308 478 c 0,22,23
 414 478 414 478 490 405.5 c 128,-1,24
 566 333 566 333 566 229 c 0,25,26
 566 127 566 127 489.5 57.5 c 128,-1,27
 413 -12 413 -12 308 -12 c 0,28,29
 207 -12 207 -12 132 49 c 128,-1,30
 57 110 57 110 57 203 c 1,31,-1
 57 203 l 1,0,-1
EndSplineSet
EndChar

StartChar: digitsix
Encoding: 54 54 10
Width: 624
GlyphClass: 2
Flags: W
LayerCount: 2
Fore
SplineSet
44 256 m 1,0,-1
 44 345 l 2,1,2
 44 488 44 488 121.5 595 c 128,-1,3
 199 702 199 702 325 702 c 0,4,5
 420 702 420 702 491 647 c 128,-1,6
 562 592 562 592 562 506 c 1,7,-1
 491 506 l 1,8,9
 491 564 491 564 441.5 598.5 c 128,-1,10
 392 633 392 633 325 633 c 0,11,12
 232 633 232 633 176.5 551.5 c 128,-1,13
 121 470 121 470 121 361 c 1,14,15
 152 405 152 405 203 428.5 c 128,-1,16
 254 452 254 452 312 452 c 0,17,18
 420 452 420 452 500 386 c 128,-1,19
 580 320 580 320 580 220 c 128,-1,20
 580 120 580 120 500 54 c 128,-1,21
 420 -12 420 -12 312 -12 c 0,22,23
 201 -12 201 -12 122.5 66.5 c 128,-1,24
 44 145 44 145 44 256 c 1,25,-1
 44 256 l 1,0,-1
121 212 m 1,26,27
 121 143 121 143 178 100 c 128,-1,28
 235 57 235 57 312 57 c 0,29,30
 392 57 392 57 451.5 102.5 c 128,-1,31
 511 148 511 148 511 220 c 128,-1,32
 511 292 511 292 451.5 338 c 128,-1,33
 392 384 392 384 312 384 c 0,34,35
 234 384 234 384 177.5 334.5 c 128,-1,36
 121 285 121 285 121 212 c 1,37,-1
 121 212 l 1,26,27
EndSplineSet
EndChar

StartChar: digitseven
Encoding: 55 55 11
Width: 624
GlyphClass: 2
Flags: W
LayerCount: 2
Fore
SplineSet
44 640 m 1,0,-1
 44 712 l 1,1,-1
 580 712 l 1,2,-1
 580 651 l 1,3,4
 434 545 434 545 361.5 372.5 c 128,-1,5
 289 200 289 200 289 0 c 1,6,-1
 220 0 l 1,7,8
 220 181 220 181 283.5 347.5 c 128,-1,9
 347 514 347 514 469 640 c 1,10,-1
 44 640 l 1,11,-1
 44 640 l 1,0,-1
EndSplineSet
EndChar

StartChar: digiteight
Encoding: 56 56 12
Width: 624
GlyphClass: 2
Flags: W
LayerCount: 2
Fore
SplineSet
44 203 m 1,0,1
 44 258 44 258 78.5 303.5 c 128,-1,2
 113 349 113 349 169 381 c 1,3,4
 129 404 129 404 105 442 c 128,-1,5
 81 480 81 480 81 524 c 0,6,7
 81 604 81 604 150 653 c 128,-1,8
 219 702 219 702 312 702 c 128,-1,9
 405 702 405 702 474 653 c 128,-1,10
 543 604 543 604 543 524 c 0,11,12
 543 480 543 480 519 442 c 128,-1,13
 495 404 495 404 455 381 c 1,14,15
 511 349 511 349 545.5 303.5 c 128,-1,16
 580 258 580 258 580 203 c 0,17,18
 580 107 580 107 500 47.5 c 128,-1,19
 420 -12 420 -12 312 -12 c 128,-1,20
 204 -12 204 -12 124 47.5 c 128,-1,21
 44 107 44 107 44 203 c 1,22,-1
 44 203 l 1,0,1
113 196 m 1,23,24
 113 130 113 130 172.5 93.5 c 128,-1,25
 232 57 232 57 312 57 c 128,-1,26
 392 57 392 57 451.5 93.5 c 128,-1,27
 511 130 511 130 511 196 c 0,28,29
 511 263 511 263 451.5 302.5 c 128,-1,30
 392 342 392 342 312 342 c 128,-1,31
 232 342 232 342 172.5 302.5 c 128,-1,32
 113 263 113 263 113 196 c 1,33,-1
 113 196 l 1,23,24
148 530 m 1,34,35
 148 475 148 475 197 443 c 128,-1,36
 246 411 246 411 312 411 c 0,37,38
 377 411 377 411 426 443 c 128,-1,39
 475 475 475 475 475 530 c 0,40,41
 475 581 475 581 426.5 607 c 128,-1,42
 378 633 378 633 312 633 c 0,43,44
 245 633 245 633 196.5 607.5 c 128,-1,45
 148 582 148 582 148 530 c 1,46,-1
 148 530 l 1,34,35
EndSplineSet
EndChar

StartChar: digitnine
Encoding: 57 57 13
Width: 624
GlyphClass: 2
Flags: W
LayerCount: 2
Fore
SplineSet
44 471 m 1,0,1
 44 571 44 571 124 636.5 c 128,-1,2
 204 702 204 702 312 702 c 0,3,4
 423 702 423 702 501.5 623.5 c 128,-1,5
 580 545 580 545 580 434 c 2,6,-1
 580 345 l 2,7,8
 580 202 580 202 500 95 c 128,-1,9
 420 -12 420 -12 293 -12 c 0,10,11
 200 -12 200 -12 131 43.5 c 128,-1,12
 62 99 62 99 62 185 c 1,13,-1
 130 185 l 1,14,15
 130 128 130 128 179 92.5 c 128,-1,16
 228 57 228 57 293 57 c 0,17,18
 390 57 390 57 448.5 141.5 c 128,-1,19
 507 226 507 226 507 339 c 1,20,21
 466 298 466 298 410 277 c 128,-1,22
 354 256 354 256 293 256 c 0,23,24
 192 256 192 256 118 317 c 128,-1,25
 44 378 44 378 44 471 c 1,26,-1
 44 471 l 1,0,1
113 478 m 1,27,28
 113 409 113 409 166.5 362.5 c 128,-1,29
 220 316 220 316 293 316 c 0,30,31
 377 316 377 316 439.5 360.5 c 128,-1,32
 502 405 502 405 502 478 c 0,33,34
 502 546 502 546 445 589.5 c 128,-1,35
 388 633 388 633 312 633 c 0,36,37
 232 633 232 633 172.5 590.5 c 128,-1,38
 113 548 113 548 113 478 c 1,39,-1
 113 478 l 1,27,28
EndSplineSet
EndChar

StartChar: dandamlm
Encoding: 2404 2404 14
Width: 304
GlyphClass: 2
Flags: W
LayerCount: 2
Fore
SplineSet
226 0 m 1,0,-1
 156 0 l 1,1,-1
 156 585 l 1,2,-1
 226 585 l 1,3,-1
 226 0 l 1,4,-1
 226 0 l 1,0,-1
EndSplineSet
EndChar

StartChar: doubledandamlm
Encoding: 2405 2405 15
Width: 493
GlyphClass: 2
Flags: W
LayerCount: 2
Fore
SplineSet
226 0 m 1,0,-1
 156 0 l 1,1,-1
 156 585 l 1,2,-1
 226 585 l 1,3,-1
 226 0 l 1,4,-1
 226 0 l 1,0,-1
415 0 m 1,5,-1
 345 0 l 1,6,-1
 345 585 l 1,7,-1
 415 585 l 1,8,-1
 415 0 l 1,9,-1
 415 0 l 1,5,-1
EndSplineSet
EndChar

StartChar: anusvaramlm
Encoding: 3330 3330 16
Width: 533
GlyphClass: 2
Flags: W
LayerCount: 2
Fore
SplineSet
33 221 m 1,0,1
 33 318 33 318 101.5 386.5 c 128,-1,2
 170 455 170 455 267 455 c 128,-1,3
 364 455 364 455 432.5 386.5 c 128,-1,4
 501 318 501 318 501 221 c 128,-1,5
 501 124 501 124 432.5 55.5 c 128,-1,6
 364 -13 364 -13 267 -13 c 128,-1,7
 170 -13 170 -13 101.5 55.5 c 128,-1,8
 33 124 33 124 33 221 c 1,9,-1
 33 221 l 1,0,1
103 221 m 1,10,11
 103 153 103 153 151 105 c 128,-1,12
 199 57 199 57 267 57 c 128,-1,13
 335 57 335 57 382.5 105 c 128,-1,14
 430 153 430 153 430 221 c 128,-1,15
 430 289 430 289 382.5 337 c 128,-1,16
 335 385 335 385 267 385 c 128,-1,17
 199 385 199 385 151 337 c 128,-1,18
 103 289 103 289 103 221 c 1,19,-1
 103 221 l 1,10,11
EndSplineSet
EndChar

StartChar: visargamlm
Encoding: 3331 3331 17
Width: 351
GlyphClass: 2
Flags: W
LayerCount: 2
Fore
SplineSet
47 463 m 1,0,1
 47 516 47 516 85 554 c 128,-1,2
 123 592 123 592 176 592 c 128,-1,3
 229 592 229 592 266.5 554 c 128,-1,4
 304 516 304 516 304 463 c 128,-1,5
 304 410 304 410 266.5 372 c 128,-1,6
 229 334 229 334 176 334 c 128,-1,7
 123 334 123 334 85 372 c 128,-1,8
 47 410 47 410 47 463 c 1,9,-1
 47 463 l 1,0,1
112 463 m 1,10,11
 112 436 112 436 130.5 417 c 128,-1,12
 149 398 149 398 176 398 c 128,-1,13
 203 398 203 398 222 417 c 128,-1,14
 241 436 241 436 241 463 c 128,-1,15
 241 490 241 490 222 508.5 c 128,-1,16
 203 527 203 527 176 527 c 128,-1,17
 149 527 149 527 130.5 508.5 c 128,-1,18
 112 490 112 490 112 463 c 1,19,-1
 112 463 l 1,10,11
47 116 m 1,20,21
 47 169 47 169 85 206.5 c 128,-1,22
 123 244 123 244 176 244 c 128,-1,23
 229 244 229 244 266.5 206.5 c 128,-1,24
 304 169 304 169 304 116 c 128,-1,25
 304 63 304 63 266.5 25 c 128,-1,26
 229 -13 229 -13 176 -13 c 128,-1,27
 123 -13 123 -13 85 25 c 128,-1,28
 47 63 47 63 47 116 c 1,29,-1
 47 116 l 1,20,21
112 116 m 1,30,31
 112 89 112 89 130.5 70 c 128,-1,32
 149 51 149 51 176 51 c 128,-1,33
 203 51 203 51 222 70 c 128,-1,34
 241 89 241 89 241 116 c 0,35,36
 241 142 241 142 222 160.5 c 128,-1,37
 203 179 203 179 176 179 c 128,-1,38
 149 179 149 179 130.5 160.5 c 128,-1,39
 112 142 112 142 112 116 c 1,40,-1
 112 116 l 1,30,31
EndSplineSet
EndChar

StartChar: amlm
Encoding: 3333 3333 18
Width: 1253
GlyphClass: 2
Flags: W
LayerCount: 2
Fore
SplineSet
261 246 m 1,0,1
 261 322 261 322 288.5 390.5 c 128,-1,2
 316 459 316 459 367 510 c 1,3,4
 355 515 355 515 341 518 c 128,-1,5
 327 521 327 521 313 521 c 0,6,7
 231 521 231 521 172.5 447 c 128,-1,8
 114 373 114 373 114 269 c 0,9,10
 114 199 114 199 135.5 142 c 128,-1,11
 157 85 157 85 196 52 c 1,12,-1
 161 -5 l 1,13,14
 106 34 106 34 75 106.5 c 128,-1,15
 44 179 44 179 44 269 c 0,16,17
 44 404 44 404 123.5 499 c 128,-1,18
 203 594 203 594 315 594 c 0,19,20
 353 594 353 594 382.5 587.5 c 128,-1,21
 412 581 412 581 430 568 c 1,22,23
 444 582 444 582 473.5 590 c 128,-1,24
 503 598 503 598 542 598 c 0,25,26
 606 598 606 598 659.5 563 c 128,-1,27
 713 528 713 528 741 469 c 1,28,29
 776 529 776 529 835.5 563.5 c 128,-1,30
 895 598 895 598 963 598 c 0,31,32
 1065 598 1065 598 1137 505 c 128,-1,33
 1209 412 1209 412 1209 281 c 0,34,35
 1209 159 1209 159 1160.5 73 c 128,-1,36
 1112 -13 1112 -13 1043 -13 c 0,37,38
 971 -13 971 -13 920.5 49 c 128,-1,39
 870 111 870 111 870 199 c 0,40,41
 870 306 870 306 923.5 388 c 128,-1,42
 977 470 977 470 1062 493 c 1,43,44
 1048 510 1048 510 1022 519 c 128,-1,45
 996 528 996 528 963 528 c 0,46,47
 886 528 886 528 831 469.5 c 128,-1,48
 776 411 776 411 776 328 c 2,49,-1
 776 0 l 1,50,-1
 706 0 l 1,51,-1
 706 328 l 2,52,53
 706 413 706 413 657.5 473 c 128,-1,54
 609 533 609 533 541 533 c 0,55,56
 530 533 530 533 520 531.5 c 128,-1,57
 510 530 510 530 501 528 c 1,58,59
 536 508 536 508 556.5 468.5 c 128,-1,60
 577 429 577 429 577 381 c 0,61,62
 577 347 577 347 564.5 317.5 c 128,-1,63
 552 288 552 288 530 269 c 1,64,65
 563 250 563 250 582 215 c 128,-1,66
 601 180 601 180 601 138 c 0,67,68
 601 75 601 75 558 31 c 128,-1,69
 515 -13 515 -13 454 -13 c 0,70,71
 374 -13 374 -13 317.5 63 c 128,-1,72
 261 139 261 139 261 246 c 1,73,-1
 261 246 l 1,0,1
940 199 m 1,74,75
 940 140 940 140 970 98.5 c 128,-1,76
 1000 57 1000 57 1043 57 c 0,77,78
 1083 57 1083 57 1111 122.5 c 128,-1,79
 1139 188 1139 188 1139 281 c 0,80,81
 1139 329 1139 329 1130 369 c 128,-1,82
 1121 409 1121 409 1104 439 c 1,83,84
 1033 426 1033 426 986.5 358.5 c 128,-1,85
 940 291 940 291 940 199 c 1,86,-1
 940 199 l 1,74,75
332 246 m 1,87,88
 332 168 332 168 366.5 112.5 c 128,-1,89
 401 57 401 57 449 57 c 0,90,91
 483 57 483 57 506.5 80.5 c 128,-1,92
 530 104 530 104 530 138 c 0,93,94
 530 178 530 178 504 206 c 128,-1,95
 478 234 478 234 442 234 c 2,96,-1
 402 234 l 1,97,-1
 402 293 l 1,98,-1
 437 293 l 2,99,100
 466 293 466 293 486.5 319 c 128,-1,101
 507 345 507 345 507 381 c 0,102,103
 507 419 507 419 487 447.5 c 128,-1,104
 467 476 467 476 437 481 c 1,105,106
 387 439 387 439 359.5 377.5 c 128,-1,107
 332 316 332 316 332 246 c 1,108,-1
 332 246 l 1,87,88
EndSplineSet
EndChar

StartChar: aamlm
Encoding: 3334 3334 19
Width: 1438
GlyphClass: 2
Flags: W
LayerCount: 2
Fore
SplineSet
261 246 m 1,0,1
 261 322 261 322 288.5 390.5 c 128,-1,2
 316 459 316 459 367 510 c 1,3,4
 355 515 355 515 341 518 c 128,-1,5
 327 521 327 521 313 521 c 0,6,7
 231 521 231 521 172.5 447 c 128,-1,8
 114 373 114 373 114 269 c 0,9,10
 114 199 114 199 135.5 142 c 128,-1,11
 157 85 157 85 196 52 c 1,12,-1
 161 -5 l 1,13,14
 106 34 106 34 75 106.5 c 128,-1,15
 44 179 44 179 44 269 c 0,16,17
 44 404 44 404 123.5 499 c 128,-1,18
 203 594 203 594 315 594 c 0,19,20
 353 594 353 594 382.5 587.5 c 128,-1,21
 412 581 412 581 430 568 c 1,22,23
 444 582 444 582 473.5 590 c 128,-1,24
 503 598 503 598 542 598 c 0,25,26
 606 598 606 598 659.5 563 c 128,-1,27
 713 528 713 528 741 469 c 1,28,29
 776 529 776 529 835.5 563.5 c 128,-1,30
 895 598 895 598 963 598 c 0,31,32
 1014 598 1014 598 1060 576.5 c 128,-1,33
 1106 555 1106 555 1139 516 c 1,34,-1
 1167 516 l 2,35,36
 1262 516 1262 516 1329 438.5 c 128,-1,37
 1396 361 1396 361 1396 251 c 0,38,39
 1396 94 1396 94 1296.5 -17.5 c 128,-1,40
 1197 -129 1197 -129 1057 -129 c 0,41,42
 983 -129 983 -129 927.5 -112 c 128,-1,43
 872 -95 872 -95 846 -64 c 1,44,-1
 881 -5 l 1,45,46
 912 -31 912 -31 957.5 -45 c 128,-1,47
 1003 -59 1003 -59 1057 -59 c 0,48,49
 1168 -59 1168 -59 1247 32 c 128,-1,50
 1326 123 1326 123 1326 251 c 0,51,52
 1326 329 1326 329 1283 384 c 128,-1,53
 1240 439 1240 439 1179 439 c 1,54,55
 1194 398 1194 398 1201.5 358.5 c 128,-1,56
 1209 319 1209 319 1209 281 c 0,57,58
 1209 174 1209 174 1153 98.5 c 128,-1,59
 1097 23 1097 23 1017 23 c 0,60,61
 956 23 956 23 913 74.5 c 128,-1,62
 870 126 870 126 870 199 c 0,63,64
 870 311 870 311 926.5 394.5 c 128,-1,65
 983 478 983 478 1069 493 c 1,66,67
 1049 510 1049 510 1021.5 519 c 128,-1,68
 994 528 994 528 963 528 c 0,69,70
 886 528 886 528 831 469.5 c 128,-1,71
 776 411 776 411 776 328 c 2,72,-1
 776 0 l 1,73,-1
 706 0 l 1,74,-1
 706 328 l 2,75,76
 706 413 706 413 657.5 473 c 128,-1,77
 609 533 609 533 541 533 c 0,78,79
 530 533 530 533 520 531.5 c 128,-1,80
 510 530 510 530 501 528 c 1,81,82
 536 508 536 508 556.5 465 c 128,-1,83
 577 422 577 422 577 368 c 0,84,85
 577 340 577 340 564.5 314 c 128,-1,86
 552 288 552 288 530 269 c 1,87,88
 563 250 563 250 582 220 c 128,-1,89
 601 190 601 190 601 157 c 0,90,91
 601 92 601 92 558 46 c 128,-1,92
 515 0 515 0 454 0 c 0,93,94
 374 0 374 0 317.5 72 c 128,-1,95
 261 144 261 144 261 246 c 1,96,-1
 261 246 l 1,0,1
940 199 m 1,97,98
 940 156 940 156 962 125 c 128,-1,99
 984 94 984 94 1015 94 c 0,100,101
 1066 94 1066 94 1102.5 149 c 128,-1,102
 1139 204 1139 204 1139 281 c 0,103,104
 1139 329 1139 329 1130 369 c 128,-1,105
 1121 409 1121 409 1104 439 c 1,106,107
 1033 426 1033 426 986.5 358.5 c 128,-1,108
 940 291 940 291 940 199 c 1,109,-1
 940 199 l 1,97,98
332 246 m 1,110,111
 332 173 332 173 366.5 121.5 c 128,-1,112
 401 70 401 70 449 70 c 0,113,114
 483 70 483 70 506.5 95.5 c 128,-1,115
 530 121 530 121 530 157 c 0,116,117
 530 189 530 189 504 211.5 c 128,-1,118
 478 234 478 234 442 234 c 2,119,-1
 402 234 l 1,120,-1
 402 293 l 1,121,-1
 437 293 l 2,122,123
 466 293 466 293 486.5 315 c 128,-1,124
 507 337 507 337 507 368 c 0,125,126
 507 412 507 412 487 444 c 128,-1,127
 467 476 467 476 437 481 c 1,128,129
 387 439 387 439 359.5 377.5 c 128,-1,130
 332 316 332 316 332 246 c 1,131,-1
 332 246 l 1,110,111
EndSplineSet
EndChar

StartChar: imlm
Encoding: 3335 3335 20
Width: 974
GlyphClass: 2
Flags: W
LayerCount: 2
Fore
SplineSet
122 211 m 5,0,1
 122 172 122 172 146 144.5 c 132,-1,2
 170 117 170 117 204 117 c 132,-1,3
 238 117 238 117 262 144.5 c 132,-1,4
 286 172 286 172 286 211 c 132,-1,5
 286 250 286 250 262 277 c 132,-1,6
 238 304 238 304 204 304 c 132,-1,7
 170 304 170 304 146 277 c 132,-1,8
 122 250 122 250 122 211 c 5,9,-1
 122 211 l 5,0,1
40 281 m 5,10,11
 40 407 40 407 112 496 c 132,-1,12
 184 585 184 585 286 585 c 4,13,14
 353 585 353 585 409.5 553.5 c 132,-1,15
 466 522 466 522 497 468 c 5,16,17
 528 522 528 522 578.5 553.5 c 132,-1,18
 629 585 629 585 684 585 c 4,19,20
 786 585 786 585 858 494 c 132,-1,21
 930 403 930 403 930 274 c 4,22,23
 930 122 930 122 834 14 c 132,-1,24
 738 -94 738 -94 602 -94 c 6,25,-1
 181 -94 l 6,26,27
 152 -94 152 -94 131.5 -114.5 c 132,-1,28
 111 -135 111 -135 111 -164 c 132,-1,29
 111 -193 111 -193 131.5 -213.5 c 132,-1,30
 152 -234 152 -234 181 -234 c 6,31,-1
 930 -234 l 5,32,-1
 930 -304 l 5,33,-1
 181 -304 l 6,34,35
 123 -304 123 -304 81.5 -259.5 c 132,-1,36
 40 -215 40 -215 40 -152 c 4,37,38
 40 -99 40 -99 81.5 -61 c 132,-1,39
 123 -23 123 -23 181 -23 c 6,40,-1
 602 -23 l 6,41,42
 708 -23 708 -23 783.5 64 c 132,-1,43
 859 151 859 151 859 274 c 4,44,45
 859 374 859 374 807.5 444.5 c 132,-1,46
 756 515 756 515 684 515 c 4,47,48
 621 515 621 515 576.5 456.5 c 132,-1,49
 532 398 532 398 532 316 c 6,50,-1
 532 94 l 5,51,-1
 462 94 l 5,52,-1
 462 316 l 6,53,54
 462 398 462 398 410.5 456.5 c 132,-1,55
 359 515 359 515 286 515 c 4,56,57
 216 515 216 515 163.5 459 c 132,-1,58
 111 403 111 403 104 321 c 5,59,60
 125 346 125 346 151.5 360 c 132,-1,61
 178 374 178 374 204 374 c 4,62,63
 267 374 267 374 311.5 326.5 c 132,-1,64
 356 279 356 279 356 211 c 132,-1,65
 356 143 356 143 311.5 95 c 132,-1,66
 267 47 267 47 204 47 c 4,67,68
 136 47 136 47 88 115.5 c 132,-1,69
 40 184 40 184 40 281 c 5,70,-1
 40 281 l 5,10,11
EndSplineSet
EndChar

StartChar: iimlm
Encoding: 3336 3336 21
Width: 1617
GlyphClass: 2
Flags: W
LayerCount: 2
Fore
SplineSet
978 386 m 1,0,1
 978 468 978 468 1029.5 526.5 c 0,2,3
 1081 585 1081 585 1153 585 c 0,4,5
 1187 585 1187 585 1218 564.5 c 0,6,7
 1249 544 1249 544 1270 508 c 1,8,9
 1291 544 1291 544 1322 564.5 c 0,10,11
 1353 585 1353 585 1387 585 c 0,12,13
 1460 585 1460 585 1511.5 526.5 c 0,14,15
 1563 468 1563 468 1563 386 c 2,16,-1
 1563 234 l 2,17,18
 1563 137 1563 137 1510 68.5 c 0,19,20
 1457 0 1457 0 1382 0 c 0,21,22
 1312 0 1312 0 1262 51.5 c 0,23,24
 1212 103 1212 103 1212 176 c 2,25,-1
 1212 234 l 1,26,-1
 1282 234 l 1,27,-1
 1282 176 l 2,28,29
 1282 132 1282 132 1311.5 101 c 0,30,31
 1341 70 1341 70 1382 70 c 0,32,33
 1428 70 1428 70 1460 118 c 0,34,35
 1492 166 1492 166 1492 234 c 2,36,-1
 1492 386 l 2,37,38
 1492 439 1492 439 1461 477 c 0,39,40
 1430 515 1430 515 1387 515 c 0,41,42
 1353 515 1353 515 1329 477 c 0,43,44
 1305 439 1305 439 1305 386 c 2,45,-1
 1305 328 l 1,46,-1
 1235 328 l 1,47,-1
 1235 386 l 2,48,49
 1235 439 1235 439 1211 477 c 0,50,51
 1187 515 1187 515 1153 515 c 0,52,53
 1110 515 1110 515 1079 477 c 0,54,55
 1048 439 1048 439 1048 386 c 2,56,-1
 1048 328 l 1,57,-1
 978 328 l 1,58,-1
 978 386 l 1,59,-1
 978 386 l 1,0,1
EndSplineSet
Refer: 20 3335 N 1 0 0 1 0 0 2
EndChar

StartChar: umlm
Encoding: 3337 3337 22
Width: 699
GlyphClass: 2
Flags: W
LayerCount: 2
Fore
SplineSet
120 211 m 1,0,1
 120 167 120 167 151 136 c 128,-1,2
 182 105 182 105 225 105 c 128,-1,3
 268 105 268 105 299 136 c 128,-1,4
 330 167 330 167 330 211 c 0,5,6
 330 257 330 257 299 289 c 128,-1,7
 268 321 268 321 225 321 c 128,-1,8
 182 321 182 321 151 289 c 128,-1,9
 120 257 120 257 120 211 c 1,10,-1
 120 211 l 1,0,1
38 263 m 1,11,12
 38 396 38 396 123.5 490.5 c 128,-1,13
 209 585 209 585 330 585 c 0,14,15
 466 585 466 585 562 482 c 128,-1,16
 658 379 658 379 658 234 c 0,17,18
 658 98 658 98 572 2 c 128,-1,19
 486 -94 486 -94 365 -94 c 2,20,-1
 166 -94 l 2,21,22
 132 -94 132 -94 108.5 -114.5 c 128,-1,23
 85 -135 85 -135 85 -164 c 128,-1,24
 85 -193 85 -193 108.5 -213.5 c 128,-1,25
 132 -234 132 -234 166 -234 c 2,26,-1
 693 -234 l 1,27,-1
 693 -304 l 1,28,-1
 166 -304 l 2,29,30
 103 -304 103 -304 58.5 -263 c 128,-1,31
 14 -222 14 -222 14 -164 c 128,-1,32
 14 -106 14 -106 58.5 -64.5 c 128,-1,33
 103 -23 103 -23 166 -23 c 2,34,-1
 365 -23 l 2,35,36
 457 -23 457 -23 522.5 52.5 c 128,-1,37
 588 128 588 128 588 234 c 0,38,39
 588 350 588 350 512.5 432.5 c 128,-1,40
 437 515 437 515 330 515 c 0,41,42
 245 515 245 515 183 461 c 128,-1,43
 121 407 121 407 114 328 c 1,44,45
 133 360 133 360 162.5 379 c 128,-1,46
 192 398 192 398 225 398 c 0,47,48
 297 398 297 398 348.5 343 c 128,-1,49
 400 288 400 288 400 211 c 0,50,51
 400 138 400 138 348.5 86.5 c 128,-1,52
 297 35 297 35 225 35 c 0,53,54
 148 35 148 35 93 102 c 128,-1,55
 38 169 38 169 38 263 c 1,56,-1
 38 263 l 1,11,12
EndSplineSet
EndChar

StartChar: uumlm
Encoding: 3338 3338 23
Width: 1355
GlyphClass: 2
Flags: W
LayerCount: 2
Fore
SplineSet
715 386 m 1,0,1
 715 468 715 468 766.5 526.5 c 0,2,3
 818 585 818 585 891 585 c 0,4,5
 925 585 925 585 956 564.5 c 0,6,7
 987 544 987 544 1008 508 c 1,8,9
 1029 544 1029 544 1060 564.5 c 0,10,11
 1091 585 1091 585 1125 585 c 0,12,13
 1197 585 1197 585 1248.5 526.5 c 0,14,15
 1300 468 1300 468 1300 386 c 2,16,-1
 1300 234 l 2,17,18
 1300 137 1300 137 1247 68.5 c 0,19,20
 1194 0 1194 0 1119 0 c 0,21,22
 1049 0 1049 0 999 51.5 c 0,23,24
 949 103 949 103 949 176 c 2,25,-1
 949 234 l 1,26,-1
 1019 234 l 1,27,-1
 1019 176 l 2,28,29
 1019 132 1019 132 1048.5 101 c 0,30,31
 1078 70 1078 70 1119 70 c 0,32,33
 1165 70 1165 70 1197.5 118 c 0,34,35
 1230 166 1230 166 1230 234 c 2,36,-1
 1230 386 l 2,37,38
 1230 439 1230 439 1199 477 c 0,39,40
 1168 515 1168 515 1125 515 c 0,41,42
 1091 515 1091 515 1067 477 c 0,43,44
 1043 439 1043 439 1043 386 c 2,45,-1
 1043 328 l 1,46,-1
 972 328 l 1,47,-1
 972 386 l 2,48,49
 972 439 972 439 948.5 477 c 0,50,51
 925 515 925 515 891 515 c 0,52,53
 847 515 847 515 816 477 c 0,54,55
 785 439 785 439 785 386 c 2,56,-1
 785 328 l 1,57,-1
 715 328 l 1,58,-1
 715 386 l 1,59,-1
 715 386 l 1,0,1
EndSplineSet
Refer: 22 3337 N 1 0 0 1 0 0 2
EndChar

StartChar: rvocalicmlm
Encoding: 3339 3339 24
Width: 876
GlyphClass: 2
Flags: W
LayerCount: 2
Fore
SplineSet
146 415 m 1,0,1
 146 374 146 374 170 345 c 128,-1,2
 194 316 194 316 228 316 c 128,-1,3
 262 316 262 316 285.5 347 c 128,-1,4
 309 378 309 378 309 421 c 0,5,6
 309 460 309 460 285.5 487.5 c 128,-1,7
 262 515 262 515 228 515 c 128,-1,8
 194 515 194 515 170 485.5 c 128,-1,9
 146 456 146 456 146 415 c 1,10,-1
 146 415 l 1,0,1
560 415 m 1,11,12
 560 374 560 374 584 345 c 128,-1,13
 608 316 608 316 642 316 c 0,14,15
 683 316 683 316 712.5 347 c 128,-1,16
 742 378 742 378 742 421 c 0,17,18
 742 460 742 460 715 487.5 c 128,-1,19
 688 515 688 515 649 515 c 0,20,21
 612 515 612 515 586 485.5 c 128,-1,22
 560 456 560 456 560 415 c 1,23,-1
 560 415 l 1,11,12
34 315 m 1,24,25
 34 427 34 427 91 506 c 128,-1,26
 148 585 148 585 228 585 c 0,27,28
 288 585 288 585 331 534 c 128,-1,29
 374 483 374 483 374 411 c 0,30,31
 374 343 374 343 330.5 294.5 c 128,-1,32
 287 246 287 246 226 246 c 0,33,34
 187 246 187 246 153.5 271.5 c 128,-1,35
 120 297 120 297 105 338 c 1,36,37
 96 240 96 240 154 167 c 128,-1,38
 212 94 212 94 298 94 c 2,39,-1
 549 94 l 2,40,41
 647 94 647 94 713 165.5 c 128,-1,42
 779 237 779 237 771 333 c 1,43,44
 757 294 757 294 723.5 270 c 128,-1,45
 690 246 690 246 650 246 c 0,46,47
 587 246 587 246 542 294 c 128,-1,48
 497 342 497 342 497 410 c 0,49,50
 497 482 497 482 541.5 533.5 c 128,-1,51
 586 585 586 585 649 585 c 0,52,53
 726 585 726 585 781 506 c 128,-1,54
 836 427 836 427 836 316 c 0,55,56
 836 230 836 230 791.5 158.5 c 128,-1,57
 747 87 747 87 672 52 c 1,58,59
 716 27 716 27 741 -15 c 128,-1,60
 766 -57 766 -57 766 -105 c 0,61,62
 766 -192 766 -192 697.5 -254 c 128,-1,63
 629 -316 629 -316 532 -316 c 2,64,-1
 345 -316 l 2,65,66
 248 -316 248 -316 179.5 -254 c 128,-1,67
 111 -192 111 -192 111 -105 c 0,68,69
 111 -66 111 -66 137 -25.5 c 128,-1,70
 163 15 163 15 209 47 c 1,71,72
 129 84 129 84 81.5 157 c 128,-1,73
 34 230 34 230 34 315 c 1,74,-1
 34 315 l 1,24,25
181 -105 m 1,75,76
 181 -163 181 -163 229 -204.5 c 128,-1,77
 277 -246 277 -246 345 -246 c 2,78,-1
 532 -246 l 2,79,80
 600 -246 600 -246 648 -204.5 c 128,-1,81
 696 -163 696 -163 696 -105 c 0,82,83
 696 -52 696 -52 648 -14.5 c 128,-1,84
 600 23 600 23 532 23 c 2,85,-1
 345 23 l 2,86,87
 277 23 277 23 229 -14.5 c 128,-1,88
 181 -52 181 -52 181 -105 c 1,89,-1
 181 -105 l 1,75,76
EndSplineSet
EndChar

StartChar: lvocalicmlm
Encoding: 3340 3340 25
Width: 1043
GlyphClass: 2
Flags: W
LayerCount: 2
Fore
SplineSet
134 176 m 1,0,1
 134 132 134 132 161.5 101 c 128,-1,2
 189 70 189 70 228 70 c 128,-1,3
 267 70 267 70 294 101 c 128,-1,4
 321 132 321 132 321 176 c 0,5,6
 321 219 321 219 294 250 c 128,-1,7
 267 281 267 281 228 281 c 128,-1,8
 189 281 189 281 161.5 250 c 128,-1,9
 134 219 134 219 134 176 c 1,10,-1
 134 176 l 1,0,1
766 211 m 1,11,12
 766 153 766 153 790 111.5 c 128,-1,13
 814 70 814 70 848 70 c 128,-1,14
 882 70 882 70 906 111.5 c 128,-1,15
 930 153 930 153 930 211 c 0,16,17
 930 287 930 287 910 348.5 c 128,-1,18
 890 410 890 410 854 446 c 1,19,20
 811 395 811 395 788.5 334.5 c 128,-1,21
 766 274 766 274 766 211 c 1,22,-1
 766 211 l 1,11,12
40 246 m 1,23,24
 40 386 40 386 126 485.5 c 128,-1,25
 212 585 212 585 333 585 c 0,26,27
 400 585 400 585 456.5 555 c 128,-1,28
 513 525 513 525 543 473 c 1,29,30
 573 525 573 525 621.5 555 c 128,-1,31
 670 585 670 585 724 585 c 0,32,33
 838 585 838 585 919 475.5 c 128,-1,34
 1000 366 1000 366 1000 211 c 0,35,36
 1000 124 1000 124 955.5 62 c 128,-1,37
 911 0 911 0 848 0 c 128,-1,38
 785 0 785 0 740.5 62 c 128,-1,39
 696 124 696 124 696 211 c 0,40,41
 696 286 696 286 726.5 357.5 c 128,-1,42
 757 429 757 429 814 486 c 1,43,44
 806 499 806 499 782 507 c 128,-1,45
 758 515 758 515 724 515 c 0,46,47
 664 515 664 515 621.5 467 c 128,-1,48
 579 419 579 419 579 351 c 2,49,-1
 579 0 l 1,50,-1
 508 0 l 1,51,-1
 508 351 l 2,52,53
 508 419 508 419 456.5 467 c 128,-1,54
 405 515 405 515 333 515 c 0,55,56
 241 515 241 515 176 446.5 c 128,-1,57
 111 378 111 378 111 281 c 1,58,59
 130 313 130 313 161 332 c 128,-1,60
 192 351 192 351 228 351 c 0,61,62
 296 351 296 351 343.5 299.5 c 128,-1,63
 391 248 391 248 391 176 c 0,64,65
 391 103 391 103 343.5 51.5 c 128,-1,66
 296 0 296 0 228 0 c 0,67,68
 150 0 150 0 95 72 c 128,-1,69
 40 144 40 144 40 246 c 1,70,-1
 40 246 l 1,23,24
EndSplineSet
EndChar

StartChar: emlm
Encoding: 3342 3342 26
Width: 1347
GlyphClass: 2
Flags: W
LayerCount: 2
Fore
SplineSet
35 222 m 1,0,1
 35 324 35 324 101 396 c 128,-1,2
 167 468 167 468 260 468 c 128,-1,3
 353 468 353 468 419 396 c 128,-1,4
 485 324 485 324 485 222 c 0,5,6
 485 182 485 182 470 143 c 128,-1,7
 455 104 455 104 426 70 c 1,8,-1
 590 70 l 1,9,10
 590 283 590 283 696.5 434 c 128,-1,11
 803 585 803 585 953 585 c 0,12,13
 1098 585 1098 585 1201 448 c 128,-1,14
 1304 311 1304 311 1304 117 c 0,15,16
 1304 -31 1304 -31 1250.5 -147 c 128,-1,17
 1197 -263 1197 -263 1105 -316 c 1,18,-1
 1065 -269 l 1,19,20
 1143 -224 1143 -224 1188.5 -120.5 c 128,-1,21
 1234 -17 1234 -17 1234 117 c 0,22,23
 1234 282 1234 282 1151.5 398.5 c 128,-1,24
 1069 515 1069 515 953 515 c 0,25,26
 832 515 832 515 746 384.5 c 128,-1,27
 660 254 660 254 660 70 c 1,28,-1
 918 70 l 1,29,-1
 918 351 l 1,30,-1
 988 356 l 1,31,-1
 988 -140 l 2,32,33
 988 -213 988 -213 943.5 -264.5 c 128,-1,34
 899 -316 899 -316 836 -316 c 0,35,36
 734 -316 734 -316 662 -223.5 c 128,-1,37
 590 -131 590 -131 590 0 c 1,38,-1
 298 0 l 1,39,-1
 298 70 l 1,40,41
 349 79 349 79 382 122 c 128,-1,42
 415 165 415 165 415 222 c 0,43,44
 415 295 415 295 370.5 346.5 c 128,-1,45
 326 398 326 398 263 398 c 0,46,47
 198 398 198 398 151.5 346.5 c 128,-1,48
 105 295 105 295 105 222 c 0,49,50
 105 166 105 166 131 122.5 c 128,-1,51
 157 79 157 79 199 64 c 1,52,-1
 169 0 l 1,53,54
 109 22 109 22 72 83 c 128,-1,55
 35 144 35 144 35 222 c 1,56,-1
 35 222 l 1,0,1
660 0 m 1,57,58
 660 -104 660 -104 711.5 -177.5 c 128,-1,59
 763 -251 763 -251 836 -251 c 0,60,61
 870 -251 870 -251 894 -218.5 c 128,-1,62
 918 -186 918 -186 918 -140 c 2,63,-1
 918 0 l 1,64,-1
 660 0 l 1,65,-1
 660 0 l 1,57,58
EndSplineSet
EndChar

StartChar: eemlm
Encoding: 3343 3343 27
Width: 1364
GlyphClass: 2
Flags: W
LayerCount: 2
Fore
SplineSet
35 222 m 1,0,1
 35 324 35 324 103.5 396 c 128,-1,2
 172 468 172 468 269 468 c 0,3,4
 361 468 361 468 426 396 c 128,-1,5
 491 324 491 324 491 222 c 0,6,7
 491 182 491 182 476 142.5 c 128,-1,8
 461 103 461 103 433 70 c 1,9,-1
 597 70 l 1,10,11
 597 283 597 283 712.5 434 c 128,-1,12
 828 585 828 585 992 585 c 0,13,14
 1129 585 1129 585 1225.5 490 c 128,-1,15
 1322 395 1322 395 1322 261 c 0,16,17
 1322 192 1322 192 1297 138 c 128,-1,18
 1272 84 1272 84 1229 59 c 1,19,20
 1283 34 1283 34 1314.5 -13.5 c 128,-1,21
 1346 -61 1346 -61 1346 -117 c 0,22,23
 1346 -199 1346 -199 1287.5 -257.5 c 128,-1,24
 1229 -316 1229 -316 1147 -316 c 0,25,26
 1112 -316 1112 -316 1080 -305 c 128,-1,27
 1048 -294 1048 -294 1024 -274 c 1,28,-1
 1060 -216 l 1,29,30
 1086 -231 1086 -231 1108 -238.5 c 128,-1,31
 1130 -246 1130 -246 1147 -246 c 0,32,33
 1200 -246 1200 -246 1237.5 -208 c 128,-1,34
 1275 -170 1275 -170 1275 -117 c 0,35,36
 1275 -59 1275 -59 1230.5 -18 c 128,-1,37
 1186 23 1186 23 1123 23 c 2,38,-1
 1076 23 l 1,39,-1
 1076 94 l 1,40,-1
 1123 94 l 2,41,42
 1176 94 1176 94 1214 145 c 128,-1,43
 1252 196 1252 196 1252 268 c 0,44,45
 1252 370 1252 370 1176 442.5 c 128,-1,46
 1100 515 1100 515 992 515 c 0,47,48
 857 515 857 515 762 384.5 c 128,-1,49
 667 254 667 254 667 70 c 1,50,-1
 924 70 l 1,51,-1
 924 410 l 1,52,-1
 995 410 l 1,53,-1
 995 -146 l 2,54,55
 995 -216 995 -216 950 -266 c 128,-1,56
 905 -316 905 -316 842 -316 c 0,57,58
 741 -316 741 -316 669 -223.5 c 128,-1,59
 597 -131 597 -131 597 0 c 1,60,-1
 304 0 l 1,61,-1
 304 70 l 1,62,63
 355 79 355 79 388 122 c 128,-1,64
 421 165 421 165 421 222 c 0,65,66
 421 295 421 295 376.5 346.5 c 128,-1,67
 332 398 332 398 269 398 c 0,68,69
 201 398 201 398 153 346.5 c 128,-1,70
 105 295 105 295 105 222 c 0,71,72
 105 164 105 164 135 121 c 128,-1,73
 165 78 165 78 211 70 c 1,74,-1
 199 0 l 1,75,76
 128 13 128 13 81.5 75.5 c 128,-1,77
 35 138 35 138 35 222 c 1,78,-1
 35 222 l 1,0,1
667 0 m 1,79,80
 667 -102 667 -102 718.5 -174 c 128,-1,81
 770 -246 770 -246 842 -246 c 0,82,83
 876 -246 876 -246 900 -216.5 c 128,-1,84
 924 -187 924 -187 924 -146 c 2,85,-1
 924 0 l 1,86,-1
 667 0 l 1,87,-1
 667 0 l 1,79,80
EndSplineSet
EndChar

StartChar: aimlm
Encoding: 3344 3344 28
Width: 2010
GlyphClass: 2
Flags: W
LayerCount: 2
Fore
SplineSet
134 176 m 1,0,1
 134 132 134 132 161.5 101 c 128,-1,2
 189 70 189 70 228 70 c 128,-1,3
 267 70 267 70 294 101 c 128,-1,4
 321 132 321 132 321 176 c 0,5,6
 321 219 321 219 294 250 c 128,-1,7
 267 281 267 281 228 281 c 128,-1,8
 189 281 189 281 161.5 250 c 128,-1,9
 134 219 134 219 134 176 c 1,10,-1
 134 176 l 1,0,1
40 257 m 1,11,12
 40 393 40 393 129.5 489 c 128,-1,13
 219 585 219 585 345 585 c 128,-1,14
 471 585 471 585 560 496 c 128,-1,15
 649 407 649 407 649 281 c 0,16,17
 649 193 649 193 615 116 c 128,-1,18
 581 39 581 39 520 -12 c 1,19,-1
 468 36 l 1,20,21
 521 80 521 80 550 144.5 c 128,-1,22
 579 209 579 209 579 281 c 0,23,24
 579 378 579 378 510.5 446.5 c 128,-1,25
 442 515 442 515 345 515 c 128,-1,26
 248 515 248 515 179.5 448 c 128,-1,27
 111 381 111 381 111 286 c 1,28,29
 125 316 125 316 156.5 333.5 c 128,-1,30
 188 351 188 351 228 351 c 0,31,32
 296 351 296 351 343.5 299.5 c 128,-1,33
 391 248 391 248 391 176 c 0,34,35
 391 103 391 103 343.5 51.5 c 128,-1,36
 296 0 296 0 228 0 c 0,37,38
 150 0 150 0 95 75.5 c 128,-1,39
 40 151 40 151 40 257 c 1,40,-1
 40 257 l 1,11,12
698 222 m 1,41,42
 698 324 698 324 764 396 c 128,-1,43
 830 468 830 468 923 468 c 128,-1,44
 1016 468 1016 468 1082 396 c 128,-1,45
 1148 324 1148 324 1148 222 c 0,46,47
 1148 182 1148 182 1133 143 c 128,-1,48
 1118 104 1118 104 1089 70 c 1,49,-1
 1253 70 l 1,50,51
 1253 283 1253 283 1359.5 434 c 128,-1,52
 1466 585 1466 585 1616 585 c 0,53,54
 1761 585 1761 585 1864 448 c 128,-1,55
 1967 311 1967 311 1967 117 c 0,56,57
 1967 -31 1967 -31 1913.5 -147 c 128,-1,58
 1860 -263 1860 -263 1768 -316 c 1,59,-1
 1728 -269 l 1,60,61
 1806 -224 1806 -224 1851.5 -120.5 c 128,-1,62
 1897 -17 1897 -17 1897 117 c 0,63,64
 1897 282 1897 282 1814.5 398.5 c 128,-1,65
 1732 515 1732 515 1616 515 c 0,66,67
 1495 515 1495 515 1409 384.5 c 128,-1,68
 1323 254 1323 254 1323 70 c 1,69,-1
 1581 75 l 1,70,-1
 1581 351 l 1,71,-1
 1651 356 l 1,72,-1
 1651 -140 l 2,73,74
 1651 -213 1651 -213 1606.5 -264.5 c 128,-1,75
 1562 -316 1562 -316 1499 -316 c 0,76,77
 1397 -316 1397 -316 1325 -223.5 c 128,-1,78
 1253 -131 1253 -131 1253 0 c 1,79,-1
 961 0 l 1,80,-1
 961 70 l 1,81,82
 1012 79 1012 79 1045 122 c 128,-1,83
 1078 165 1078 165 1078 222 c 0,84,85
 1078 295 1078 295 1033.5 346.5 c 128,-1,86
 989 398 989 398 926 398 c 0,87,88
 861 398 861 398 814.5 346.5 c 128,-1,89
 768 295 768 295 768 222 c 0,90,91
 768 166 768 166 794 122.5 c 128,-1,92
 820 79 820 79 862 64 c 1,93,-1
 832 0 l 1,94,95
 772 22 772 22 735 83 c 128,-1,96
 698 144 698 144 698 222 c 1,97,-1
 698 222 l 1,41,42
1323 0 m 1,98,99
 1323 -104 1323 -104 1374.5 -177.5 c 128,-1,100
 1426 -251 1426 -251 1499 -251 c 0,101,102
 1533 -251 1533 -251 1557 -218.5 c 128,-1,103
 1581 -186 1581 -186 1581 -140 c 2,104,-1
 1581 0 l 1,105,-1
 1323 0 l 1,106,-1
 1323 0 l 1,98,99
EndSplineSet
EndChar

StartChar: omlm
Encoding: 3346 3346 29
Width: 722
GlyphClass: 2
Flags: W
LayerCount: 2
Fore
SplineSet
117 169 m 1,0,1
 117 126 117 126 146 95 c 128,-1,2
 175 64 175 64 216 64 c 128,-1,3
 257 64 257 64 286.5 95 c 128,-1,4
 316 126 316 126 316 169 c 128,-1,5
 316 212 316 212 286.5 243 c 128,-1,6
 257 274 257 274 216 274 c 128,-1,7
 175 274 175 274 146 243 c 128,-1,8
 117 212 117 212 117 169 c 1,9,-1
 117 169 l 1,0,1
40 239 m 1,10,11
 40 388 40 388 145 493 c 128,-1,12
 250 598 250 598 398 598 c 0,13,14
 500 598 500 598 572 541 c 128,-1,15
 644 484 644 484 644 403 c 0,16,17
 644 375 644 375 628.5 348.5 c 128,-1,18
 613 322 613 322 585 303 c 1,19,20
 632 286 632 286 661 246 c 128,-1,21
 690 206 690 206 690 157 c 0,22,23
 690 89 690 89 638.5 41 c 128,-1,24
 587 -7 587 -7 515 -7 c 0,25,26
 478 -7 478 -7 448 -1 c 128,-1,27
 418 5 418 5 398 17 c 1,28,-1
 421 87 l 1,29,30
 441 76 441 76 464.5 70 c 128,-1,31
 488 64 488 64 515 64 c 0,32,33
 558 64 558 64 589 91 c 128,-1,34
 620 118 620 118 620 157 c 0,35,36
 620 201 620 201 582 232 c 128,-1,37
 544 263 544 263 491 263 c 0,38,39
 473 263 473 263 458 260 c 128,-1,40
 443 257 443 257 433 251 c 1,41,-1
 433 321 l 1,42,43
 449 327 449 327 473 330 c 128,-1,44
 497 333 497 333 527 333 c 1,45,46
 548 343 548 343 560.5 360.5 c 128,-1,47
 573 378 573 378 573 397 c 0,48,49
 573 451 573 451 521.5 489.5 c 128,-1,50
 470 528 470 528 398 528 c 0,51,52
 295 528 295 528 217 464.5 c 128,-1,53
 139 401 139 401 122 303 c 1,54,55
 139 323 139 323 163.5 334 c 128,-1,56
 188 345 188 345 216 345 c 0,57,58
 286 345 286 345 336 293.5 c 128,-1,59
 386 242 386 242 386 169 c 128,-1,60
 386 96 386 96 336 44.5 c 128,-1,61
 286 -7 286 -7 216 -7 c 0,62,63
 136 -7 136 -7 88 60 c 128,-1,64
 40 127 40 127 40 239 c 1,65,-1
 40 239 l 1,10,11
EndSplineSet
EndChar

StartChar: oomlm
Encoding: 3347 3347 30
Width: 1214
GlyphClass: 2
Flags: W
LayerCount: 2
Fore
SplineSet
750 377 m 1,0,1
 750 469 750 469 808.5 533.5 c 0,2,3
 867 598 867 598 949 598 c 0,4,5
 1041 598 1041 598 1106 510.5 c 0,6,7
 1171 423 1171 423 1171 299 c 0,8,9
 1171 175 1171 175 1106 87.5 c 0,10,11
 1041 0 1041 0 949 0 c 0,12,13
 867 0 867 0 808.5 61 c 0,14,15
 750 122 750 122 750 208 c 1,16,-1
 820 208 l 1,17,18
 820 151 820 151 858 110.5 c 0,19,20
 896 70 896 70 949 70 c 0,21,22
 1012 70 1012 70 1056.5 137 c 0,23,24
 1101 204 1101 204 1101 299 c 0,25,26
 1101 394 1101 394 1056.5 461 c 0,27,28
 1012 528 1012 528 949 528 c 0,29,30
 896 528 896 528 858 484 c 0,31,32
 820 440 820 440 820 377 c 1,33,-1
 750 377 l 1,34,-1
 750 377 l 1,0,1
EndSplineSet
Refer: 29 3346 N 1 0 0 1 0 0 2
EndChar

StartChar: aumlm
Encoding: 3348 3348 31
Width: 1382
GlyphClass: 2
Flags: W
LayerCount: 2
Fore
SplineSet
738 412 m 1,0,1
 738 489 738 489 785.5 543.5 c 0,2,3
 833 598 833 598 901 598 c 0,4,5
 941 598 941 598 975.5 577.5 c 0,6,7
 1010 557 1010 557 1031 521 c 1,8,9
 1052 557 1052 557 1086.5 577.5 c 0,10,11
 1121 598 1121 598 1161 598 c 0,12,13
 1228 598 1228 598 1275.5 543.5 c 0,14,15
 1323 489 1323 489 1323 412 c 2,16,-1
 1323 234 l 2,17,18
 1323 137 1323 137 1270.5 68.5 c 0,19,20
 1218 0 1218 0 1143 0 c 0,21,22
 1072 0 1072 0 1022 51.5 c 0,23,24
 972 103 972 103 972 176 c 2,25,-1
 972 234 l 1,26,-1
 1043 234 l 1,27,-1
 1043 176 l 2,28,29
 1043 132 1043 132 1072.5 101 c 0,30,31
 1102 70 1102 70 1143 70 c 0,32,33
 1189 70 1189 70 1221 118 c 0,34,35
 1253 166 1253 166 1253 234 c 2,36,-1
 1253 412 l 2,37,38
 1253 460 1253 460 1226 494 c 0,39,40
 1199 528 1199 528 1160 528 c 0,41,42
 1121 528 1121 528 1093.5 494 c 0,43,44
 1066 460 1066 460 1066 412 c 2,45,-1
 1066 328 l 1,46,-1
 996 328 l 1,47,-1
 996 412 l 2,48,49
 996 460 996 460 968.5 494 c 0,50,51
 941 528 941 528 902 528 c 0,52,53
 863 528 863 528 836 494 c 0,54,55
 809 460 809 460 809 412 c 2,56,-1
 809 328 l 1,57,-1
 738 328 l 1,58,-1
 738 412 l 1,59,-1
 738 412 l 1,0,1
EndSplineSet
Refer: 29 3346 N 1 0 0 1 0 0 2
EndChar

StartChar: kamlm
Encoding: 3349 3349 32
Width: 1015
GlyphClass: 2
Flags: W
AnchorPoint: "MLAnchor1" 510 659 basechar 0
AnchorPoint: "MLAnchor0" 910 590 basechar 0
LayerCount: 2
Fore
SplineSet
99 163 m 1,0,1
 99 119 99 119 126 88 c 128,-1,2
 153 57 153 57 192 57 c 0,3,4
 236 57 236 57 267 103.5 c 128,-1,5
 298 150 298 150 298 216 c 2,6,-1
 298 274 l 1,7,-1
 216 274 l 2,8,9
 168 274 168 274 133.5 241.5 c 128,-1,10
 99 209 99 209 99 163 c 1,11,-1
 99 163 l 1,0,1
368 274 m 1,12,13
 368 184 368 184 409 120.5 c 128,-1,14
 450 57 450 57 508 57 c 128,-1,15
 566 57 566 57 606.5 120.5 c 128,-1,16
 647 184 647 184 647 274 c 1,17,-1
 368 274 l 1,18,-1
 368 274 l 1,12,13
368 345 m 1,19,-1
 647 345 l 1,20,21
 647 421 647 421 606.5 474.5 c 128,-1,22
 566 528 566 528 508 528 c 128,-1,23
 450 528 450 528 409 474.5 c 128,-1,24
 368 421 368 421 368 345 c 1,25,-1
 368 345 l 1,19,-1
29 163 m 1,26,27
 29 238 29 238 84 291.5 c 128,-1,28
 139 345 139 345 216 345 c 2,29,-1
 298 345 l 1,30,31
 298 450 298 450 359.5 524 c 128,-1,32
 421 598 421 598 508 598 c 128,-1,33
 595 598 595 598 656.5 524 c 128,-1,34
 718 450 718 450 718 345 c 1,35,-1
 819 345 l 2,36,37
 889 345 889 345 938 291.5 c 128,-1,38
 987 238 987 238 987 163 c 0,39,40
 987 90 987 90 942.5 38.5 c 128,-1,41
 898 -13 898 -13 835 -13 c 0,42,43
 804 -13 804 -13 776.5 -4 c 128,-1,44
 749 5 749 5 729 22 c 1,45,-1
 748 86 l 1,46,47
 765 72 765 72 787.5 64.5 c 128,-1,48
 810 57 810 57 835 57 c 0,49,50
 869 57 869 57 893 88 c 128,-1,51
 917 119 917 119 917 163 c 0,52,53
 917 209 917 209 888.5 241.5 c 128,-1,54
 860 274 860 274 819 274 c 2,55,-1
 718 274 l 1,56,57
 718 155 718 155 656.5 71 c 128,-1,58
 595 -13 595 -13 508 -13 c 0,59,60
 456 -13 456 -13 411 21.5 c 128,-1,61
 366 56 366 56 346 112 c 1,62,63
 326 56 326 56 283.5 21.5 c 128,-1,64
 241 -13 241 -13 192 -13 c 0,65,66
 124 -13 124 -13 76.5 38.5 c 128,-1,67
 29 90 29 90 29 163 c 1,68,-1
 29 163 l 1,26,27
EndSplineSet
EndChar

StartChar: khamlm
Encoding: 3350 3350 33
Width: 1010
GlyphClass: 2
Flags: W
AnchorPoint: "MLAnchor1" 510 650 basechar 0
AnchorPoint: "MLAnchor0" 964 600 basechar 0
LayerCount: 2
Fore
SplineSet
125 187 m 1,0,1
 125 136 125 136 156 100 c 128,-1,2
 187 64 187 64 230 64 c 128,-1,3
 273 64 273 64 304 100 c 128,-1,4
 335 136 335 136 335 187 c 0,5,6
 335 235 335 235 304 269.5 c 128,-1,7
 273 304 273 304 230 304 c 128,-1,8
 187 304 187 304 156 269.5 c 128,-1,9
 125 235 125 235 125 187 c 1,10,-1
 125 187 l 1,0,1
43 234 m 1,11,12
 43 396 43 396 128 494 c 128,-1,13
 213 592 213 592 355 592 c 0,14,15
 478 592 478 592 564.5 501 c 128,-1,16
 651 410 651 410 651 281 c 0,17,18
 651 222 651 222 628 167 c 128,-1,19
 605 112 605 112 563 70 c 1,20,-1
 862 70 l 1,21,-1
 862 585 l 1,22,-1
 932 585 l 1,23,-1
 932 0 l 1,24,-1
 452 0 l 1,25,-1
 452 70 l 1,26,27
 512 105 512 105 546.5 161.5 c 128,-1,28
 581 218 581 218 581 281 c 0,29,30
 581 380 581 380 515 450.5 c 128,-1,31
 449 521 449 521 355 521 c 0,32,33
 266 521 266 521 197.5 463 c 128,-1,34
 129 405 129 405 113 316 c 1,35,36
 132 343 132 343 163 358.5 c 128,-1,37
 194 374 194 374 229 374 c 0,38,39
 302 374 302 374 354 322.5 c 128,-1,40
 406 271 406 271 406 199 c 0,41,42
 406 114 406 114 354.5 53.5 c 128,-1,43
 303 -7 303 -7 230 -7 c 0,44,45
 153 -7 153 -7 98 63.5 c 128,-1,46
 43 134 43 134 43 234 c 1,47,-1
 43 234 l 1,11,12
EndSplineSet
EndChar

StartChar: gamlm
Encoding: 3351 3351 34
Width: 913
GlyphClass: 2
Flags: W
AnchorPoint: "MLAnchor1" 460 650 basechar 0
AnchorPoint: "MLAnchor0" 894 587 basechar 0
LayerCount: 2
Fore
SplineSet
47 328 m 1,0,1
 47 434 47 434 115.5 509.5 c 128,-1,2
 184 585 184 585 281 585 c 2,3,-1
 316 585 l 1,4,-1
 316 515 l 1,5,-1
 281 515 l 2,6,7
 213 515 213 515 165 460 c 128,-1,8
 117 405 117 405 117 328 c 2,9,-1
 117 257 l 2,10,11
 117 177 117 177 165 120.5 c 128,-1,12
 213 64 213 64 281 64 c 0,13,14
 339 64 339 64 380 120.5 c 128,-1,15
 421 177 421 177 421 257 c 2,16,-1
 421 328 l 2,17,18
 421 437 421 437 483 514.5 c 128,-1,19
 545 592 545 592 632 592 c 0,20,21
 729 592 729 592 797.5 514.5 c 128,-1,22
 866 437 866 437 866 328 c 2,23,-1
 866 257 l 2,24,25
 866 151 866 151 797.5 75.5 c 128,-1,26
 729 0 729 0 632 0 c 2,27,-1
 597 0 l 1,28,-1
 597 70 l 1,29,-1
 632 70 l 2,30,31
 700 70 700 70 748 125 c 128,-1,32
 796 180 796 180 796 257 c 2,33,-1
 796 328 l 2,34,35
 796 408 796 408 748 464.5 c 128,-1,36
 700 521 700 521 632 521 c 0,37,38
 574 521 574 521 532.5 464.5 c 128,-1,39
 491 408 491 408 491 328 c 2,40,-1
 491 257 l 2,41,42
 491 148 491 148 429.5 70.5 c 128,-1,43
 368 -7 368 -7 281 -7 c 0,44,45
 184 -7 184 -7 115.5 70.5 c 128,-1,46
 47 148 47 148 47 257 c 2,47,-1
 47 328 l 1,48,-1
 47 328 l 1,0,1
EndSplineSet
EndChar

StartChar: ghamlm
Encoding: 3352 3352 35
Width: 1372
GlyphClass: 2
Flags: W
AnchorPoint: "MLAnchor1" 691 650 basechar 0
AnchorPoint: "MLAnchor0" 1330 597 basechar 0
LayerCount: 2
Fore
SplineSet
30 393 m 1,0,1
 30 478 30 478 90 538 c 128,-1,2
 150 598 150 598 234 598 c 0,3,4
 319 598 319 598 379 538 c 128,-1,5
 439 478 439 478 439 393 c 0,6,7
 439 359 439 359 428.5 330 c 128,-1,8
 418 301 418 301 398 281 c 1,9,-1
 568 281 l 1,10,-1
 568 351 l 2,11,12
 568 453 568 453 636.5 525.5 c 128,-1,13
 705 598 705 598 802 598 c 0,14,15
 909 598 909 598 984.5 525.5 c 128,-1,16
 1060 453 1060 453 1060 351 c 2,17,-1
 1060 211 l 1,18,-1
 638 211 l 1,19,-1
 638 70 l 1,20,-1
 1223 70 l 1,21,-1
 1223 585 l 1,22,-1
 1294 585 l 1,23,-1
 1294 0 l 1,24,-1
 568 0 l 1,25,-1
 568 211 l 1,26,-1
 276 211 l 1,27,-1
 276 269 l 1,28,29
 316 276 316 276 342.5 311 c 128,-1,30
 369 346 369 346 369 393 c 0,31,32
 369 449 369 449 329.5 488.5 c 128,-1,33
 290 528 290 528 234 528 c 128,-1,34
 178 528 178 528 139 488.5 c 128,-1,35
 100 449 100 449 100 393 c 0,36,37
 100 345 100 345 123 310 c 128,-1,38
 146 275 146 275 182 269 c 1,39,-1
 164 211 l 1,40,41
 106 221 106 221 68 272.5 c 128,-1,42
 30 324 30 324 30 393 c 1,43,-1
 30 393 l 1,0,1
638 351 m 1,44,-1
 638 281 l 1,45,-1
 989 281 l 1,46,-1
 989 351 l 2,47,48
 989 424 989 424 934 476 c 128,-1,49
 879 528 879 528 802 528 c 0,50,51
 734 528 734 528 686 476 c 128,-1,52
 638 424 638 424 638 351 c 1,53,-1
 638 351 l 1,44,-1
EndSplineSet
EndChar

StartChar: ngamlm
Encoding: 3353 3353 36
Width: 1067
GlyphClass: 2
Flags: W
AnchorPoint: "MLAnchor1" 560 650 basechar 0
AnchorPoint: "MLAnchor0" 1054 591 basechar 0
LayerCount: 2
Fore
SplineSet
164 176 m 1,0,1
 164 130 164 130 190 97 c 128,-1,2
 216 64 216 64 252 64 c 0,3,4
 291 64 291 64 318.5 97 c 128,-1,5
 346 130 346 130 346 176 c 0,6,7
 346 219 346 219 318.5 250 c 128,-1,8
 291 281 291 281 252 281 c 0,9,10
 216 281 216 281 190 250 c 128,-1,11
 164 219 164 219 164 176 c 1,12,-1
 164 176 l 1,0,1
42 269 m 1,13,14
 42 403 42 403 124 497.5 c 128,-1,15
 206 592 206 592 322 592 c 0,16,17
 399 592 399 592 463 557 c 128,-1,18
 527 522 527 522 562 462 c 1,19,20
 597 522 597 522 661 557 c 128,-1,21
 725 592 725 592 802 592 c 0,22,23
 889 592 889 592 951 542 c 128,-1,24
 1013 492 1013 492 1013 421 c 0,25,26
 1013 384 1013 384 991 349.5 c 128,-1,27
 969 315 969 315 931 293 c 1,28,29
 973 278 973 278 998.5 244 c 128,-1,30
 1024 210 1024 210 1024 169 c 0,31,32
 1024 99 1024 99 966 49.5 c 128,-1,33
 908 0 908 0 826 0 c 2,34,-1
 709 0 l 1,35,-1
 709 70 l 1,36,-1
 826 70 l 2,37,38
 879 70 879 70 916.5 97.5 c 128,-1,39
 954 125 954 125 954 164 c 128,-1,40
 954 203 954 203 916.5 230 c 128,-1,41
 879 257 879 257 826 257 c 2,42,-1
 732 257 l 1,43,-1
 732 328 l 1,44,-1
 826 328 l 2,45,46
 874 328 874 328 908.5 355 c 128,-1,47
 943 382 943 382 943 421 c 0,48,49
 943 462 943 462 901.5 491.5 c 128,-1,50
 860 521 860 521 802 521 c 0,51,52
 715 521 715 521 653.5 471 c 128,-1,53
 592 421 592 421 592 350 c 2,54,-1
 592 0 l 1,55,-1
 521 0 l 1,56,-1
 521 351 l 2,57,58
 521 421 521 421 462.5 471 c 128,-1,59
 404 521 404 521 322 521 c 0,60,61
 227 521 227 521 164.5 436.5 c 128,-1,62
 102 352 102 352 112 238 c 1,63,64
 125 288 125 288 164 319.5 c 128,-1,65
 203 351 203 351 252 351 c 0,66,67
 320 351 320 351 368 303 c 128,-1,68
 416 255 416 255 416 187 c 0,69,70
 416 107 416 107 368 50 c 128,-1,71
 320 -7 320 -7 252 -7 c 0,72,73
 165 -7 165 -7 103.5 74 c 128,-1,74
 42 155 42 155 42 269 c 1,75,-1
 42 269 l 1,13,14
EndSplineSet
EndChar

StartChar: camlm
Encoding: 3354 3354 37
Width: 1152
GlyphClass: 2
Flags: W
AnchorPoint: "MLAnchor1" 575 650 basechar 0
AnchorPoint: "MLAnchor0" 1118 596 basechar 0
LayerCount: 2
Fore
SplineSet
9 70 m 1,0,-1
 360 70 l 2,1,2
 467 70 467 70 542.5 128.5 c 128,-1,3
 618 187 618 187 618 269 c 0,4,5
 618 332 618 332 575 376.5 c 128,-1,6
 532 421 532 421 471 421 c 0,7,8
 411 421 411 421 368 380 c 128,-1,9
 325 339 325 339 325 281 c 0,10,11
 325 266 325 266 331 250.5 c 128,-1,12
 337 235 337 235 348 222 c 1,13,-1
 302 181 l 1,14,15
 280 200 280 200 267.5 226 c 128,-1,16
 255 252 255 252 255 281 c 0,17,18
 255 368 255 368 318.5 429.5 c 128,-1,19
 382 491 382 491 471 491 c 0,20,21
 561 491 561 491 624.5 426 c 128,-1,22
 688 361 688 361 688 269 c 0,23,24
 688 214 688 214 657 161.5 c 128,-1,25
 626 109 626 109 571 70 c 1,26,-1
 1004 70 l 1,27,-1
 1004 585 l 1,28,-1
 1074 585 l 1,29,-1
 1074 0 l 1,30,-1
 9 0 l 1,31,-1
 9 70 l 1,32,-1
 9 70 l 1,0,-1
EndSplineSet
EndChar

StartChar: chamlm
Encoding: 3355 3355 38
Width: 1500
GlyphClass: 2
Flags: W
AnchorPoint: "MLAnchor1" 750 650 basechar 0
AnchorPoint: "MLAnchor0" 1498 601 basechar 0
LayerCount: 2
Fore
SplineSet
9 70 m 1,0,-1
 407 70 l 2,1,2
 494 70 494 70 556 128.5 c 128,-1,3
 618 187 618 187 618 269 c 0,4,5
 618 332 618 332 575 376.5 c 128,-1,6
 532 421 532 421 471 421 c 0,7,8
 411 421 411 421 368 380 c 128,-1,9
 325 339 325 339 325 281 c 0,10,11
 325 266 325 266 331 250.5 c 128,-1,12
 337 235 337 235 348 222 c 1,13,-1
 290 176 l 1,14,15
 273 206 273 206 264 232.5 c 128,-1,16
 255 259 255 259 255 281 c 0,17,18
 255 368 255 368 318.5 429.5 c 128,-1,19
 382 491 382 491 471 491 c 0,20,21
 561 491 561 491 624.5 426 c 128,-1,22
 688 361 688 361 688 269 c 0,23,24
 688 206 688 206 663 153.5 c 128,-1,25
 638 101 638 101 594 70 c 1,26,-1
 898 70 l 1,27,28
 861 114 861 114 841.5 165 c 128,-1,29
 822 216 822 216 822 269 c 0,30,31
 822 400 822 400 913 492.5 c 128,-1,32
 1004 585 1004 585 1132 585 c 0,33,34
 1268 585 1268 585 1364 482 c 128,-1,35
 1460 379 1460 379 1460 234 c 0,36,37
 1460 132 1460 132 1401.5 59.5 c 128,-1,38
 1343 -13 1343 -13 1261 -13 c 128,-1,39
 1179 -13 1179 -13 1120.5 59.5 c 128,-1,40
 1062 132 1062 132 1062 234 c 0,41,42
 1062 328 1062 328 1088 401.5 c 128,-1,43
 1114 475 1114 475 1162 515 c 1,44,45
 1056 534 1056 534 974 459 c 128,-1,46
 892 384 892 384 892 269 c 0,47,48
 892 193 892 193 941 121 c 128,-1,49
 990 49 990 49 1074 0 c 1,50,-1
 9 0 l 1,51,-1
 9 70 l 1,52,-1
 9 70 l 1,0,-1
1132 234 m 1,53,54
 1132 161 1132 161 1170 109 c 128,-1,55
 1208 57 1208 57 1261 57 c 128,-1,56
 1314 57 1314 57 1352 109 c 128,-1,57
 1390 161 1390 161 1390 234 c 0,58,59
 1390 322 1390 322 1349 393.5 c 128,-1,60
 1308 465 1308 465 1238 497 c 1,61,62
 1188 455 1188 455 1160 386 c 128,-1,63
 1132 317 1132 317 1132 234 c 1,64,-1
 1132 234 l 1,53,54
EndSplineSet
EndChar

StartChar: jamlm
Encoding: 3356 3356 39
Width: 831
GlyphClass: 2
Flags: W
AnchorPoint: "MLAnchor1" 460 648 basechar 0
AnchorPoint: "MLAnchor0" 812 583 basechar 0
LayerCount: 2
Fore
SplineSet
126 410 m 1,0,1
 126 383 126 383 146.5 364.5 c 128,-1,2
 167 346 167 346 196 346 c 128,-1,3
 225 346 225 346 246 364.5 c 128,-1,4
 267 383 267 383 267 410 c 0,5,6
 267 439 267 439 246 459.5 c 128,-1,7
 225 480 225 480 196 480 c 128,-1,8
 167 480 167 480 146.5 459.5 c 128,-1,9
 126 439 126 439 126 410 c 1,10,-1
 126 410 l 1,0,1
571 70 m 1,11,12
 571 43 571 43 592.5 24 c 128,-1,13
 614 5 614 5 644 5 c 0,14,15
 673 5 673 5 693.5 22.5 c 128,-1,16
 714 40 714 40 714 65 c 0,17,18
 714 94 714 94 693 114 c 128,-1,19
 672 134 672 134 642 134 c 0,20,21
 613 134 613 134 592 115.5 c 128,-1,22
 571 97 571 97 571 70 c 1,23,-1
 571 70 l 1,11,12
56 410 m 1,24,25
 56 485 56 485 118 538.5 c 128,-1,26
 180 592 180 592 267 592 c 0,27,28
 328 592 328 592 379.5 563.5 c 128,-1,29
 431 535 431 535 459 486 c 1,30,31
 476 534 476 534 516.5 563 c 128,-1,32
 557 592 557 592 606 592 c 0,33,34
 678 592 678 592 729.5 542 c 128,-1,35
 781 492 781 492 781 421 c 0,36,37
 781 324 781 324 705.5 255.5 c 128,-1,38
 630 187 630 187 524 187 c 2,39,-1
 185 187 l 2,40,41
 157 187 157 187 137 164.5 c 128,-1,42
 117 142 117 142 117 111 c 0,43,44
 117 79 117 79 137 56.5 c 128,-1,45
 157 34 157 34 185 34 c 0,46,47
 267 34 267 34 410.5 114 c 128,-1,48
 554 194 554 194 636 194 c 0,49,50
 697 194 697 194 740 156 c 128,-1,51
 783 118 783 118 783 65 c 0,52,53
 783 13 783 13 742.5 -23.5 c 128,-1,54
 702 -60 702 -60 644 -60 c 0,55,56
 585 -60 585 -60 543.5 -22 c 128,-1,57
 502 16 502 16 502 70 c 0,58,59
 502 77 502 77 503.5 84.5 c 128,-1,60
 505 92 505 92 508 100 c 1,61,62
 413 34 413 34 330.5 -1 c 128,-1,63
 248 -36 248 -36 185 -36 c 0,64,65
 127 -36 127 -36 85.5 6 c 128,-1,66
 44 48 44 48 44 108 c 128,-1,67
 44 168 44 168 85.5 210 c 128,-1,68
 127 252 127 252 185 252 c 2,69,-1
 524 252 l 2,70,71
 601 252 601 252 656 301.5 c 128,-1,72
 711 351 711 351 711 421 c 0,73,74
 711 462 711 462 680 491.5 c 128,-1,75
 649 521 649 521 606 521 c 128,-1,76
 563 521 563 521 532 480 c 128,-1,77
 501 439 501 439 501 381 c 2,78,-1
 501 311 l 1,79,-1
 430 311 l 1,80,-1
 430 381 l 2,81,82
 430 439 430 439 382.5 480 c 128,-1,83
 335 521 335 521 267 521 c 1,84,85
 299 502 299 502 318 472.5 c 128,-1,86
 337 443 337 443 337 410 c 0,87,88
 337 354 337 354 297.5 315 c 128,-1,89
 258 276 258 276 202 276 c 0,90,91
 142 276 142 276 99 315 c 128,-1,92
 56 354 56 354 56 410 c 1,93,-1
 56 410 l 1,24,25
EndSplineSet
EndChar

StartChar: jhamlm
Encoding: 3357 3357 40
Width: 1606
GlyphClass: 2
Flags: W
AnchorPoint: "MLAnchor1" 850 650 basechar 0
AnchorPoint: "MLAnchor0" 1595 606 basechar 0
LayerCount: 2
Fore
SplineSet
371 222 m 1,0,1
 371 159 371 159 402 114.5 c 128,-1,2
 433 70 433 70 476 70 c 128,-1,3
 519 70 519 70 550 114.5 c 128,-1,4
 581 159 581 159 581 222 c 0,5,6
 581 289 581 289 553.5 349 c 128,-1,7
 526 409 526 409 476 451 c 1,8,9
 426 409 426 409 398.5 349 c 128,-1,10
 371 289 371 289 371 222 c 1,11,-1
 371 222 l 1,0,1
43 281 m 1,12,13
 43 410 43 410 125.5 501 c 128,-1,14
 208 592 208 592 324 592 c 0,15,16
 364 592 364 592 403 577 c 128,-1,17
 442 562 442 562 476 533 c 1,18,19
 510 562 510 562 555 577 c 128,-1,20
 600 592 600 592 651 592 c 0,21,22
 748 592 748 592 816.5 529 c 128,-1,23
 885 466 885 466 885 377 c 0,24,25
 885 347 885 347 873.5 288 c 128,-1,26
 862 229 862 229 862 199 c 0,27,28
 862 146 862 146 900 108 c 128,-1,29
 938 70 938 70 991 70 c 0,30,31
 1039 70 1039 70 1073.5 114 c 128,-1,32
 1108 158 1108 158 1108 221 c 2,33,-1
 1108 585 l 1,34,-1
 1178 585 l 1,35,-1
 1178 222 l 2,36,37
 1178 159 1178 159 1219 114.5 c 128,-1,38
 1260 70 1260 70 1318 70 c 0,39,40
 1391 70 1391 70 1442.5 138.5 c 128,-1,41
 1494 207 1494 207 1494 304 c 0,42,43
 1494 383 1494 383 1458.5 444.5 c 128,-1,44
 1423 506 1423 506 1365 527 c 1,45,-1
 1400 585 l 1,46,47
 1474 558 1474 558 1519 481 c 128,-1,48
 1564 404 1564 404 1564 304 c 0,49,50
 1564 178 1564 178 1492 89 c 128,-1,51
 1420 0 1420 0 1318 0 c 0,52,53
 1268 0 1268 0 1222 26 c 128,-1,54
 1176 52 1176 52 1143 99 c 1,55,56
 1127 54 1127 54 1085 27 c 128,-1,57
 1043 0 1043 0 991 0 c 0,58,59
 909 0 909 0 850.5 58.5 c 128,-1,60
 792 117 792 117 792 199 c 0,61,62
 792 229 792 229 803.5 288 c 128,-1,63
 815 347 815 347 815 377 c 0,64,65
 815 437 815 437 767 479 c 128,-1,66
 719 521 719 521 651 521 c 0,67,68
 619 521 619 521 588 512 c 128,-1,69
 557 503 557 503 528 486 c 1,70,71
 586 437 586 437 618.5 367.5 c 128,-1,72
 651 298 651 298 651 222 c 0,73,74
 651 130 651 130 599.5 65 c 128,-1,75
 548 0 548 0 476 0 c 0,76,77
 403 0 403 0 351.5 65 c 128,-1,78
 300 130 300 130 300 222 c 0,79,80
 300 303 300 303 330.5 373.5 c 128,-1,81
 361 444 361 444 417 491 c 1,82,83
 392 509 392 509 366.5 518 c 128,-1,84
 341 527 341 527 317 527 c 0,85,86
 233 527 233 527 173 455 c 128,-1,87
 113 383 113 383 113 281 c 0,88,89
 113 210 113 210 137.5 149.5 c 128,-1,90
 162 89 162 89 207 52 c 1,91,-1
 160 0 l 1,92,93
 104 47 104 47 73.5 120.5 c 128,-1,94
 43 194 43 194 43 281 c 1,95,-1
 43 281 l 1,12,13
EndSplineSet
EndChar

StartChar: nyamlm
Encoding: 3358 3358 41
Width: 1277
GlyphClass: 2
Flags: W
AnchorPoint: "MLAnchor1" 650 650 basechar 0
AnchorPoint: "MLAnchor0" 1209 597 basechar 0
LayerCount: 2
Fore
SplineSet
134 176 m 1,0,1
 134 132 134 132 161.5 101 c 128,-1,2
 189 70 189 70 228 70 c 128,-1,3
 267 70 267 70 294 101 c 128,-1,4
 321 132 321 132 321 176 c 0,5,6
 321 219 321 219 294 250 c 128,-1,7
 267 281 267 281 228 281 c 128,-1,8
 189 281 189 281 161.5 250 c 128,-1,9
 134 219 134 219 134 176 c 1,10,-1
 134 176 l 1,0,1
766 211 m 1,11,12
 766 153 766 153 790 111.5 c 128,-1,13
 814 70 814 70 848 70 c 128,-1,14
 882 70 882 70 906 111.5 c 128,-1,15
 930 153 930 153 930 211 c 0,16,17
 930 271 930 271 909 328.5 c 128,-1,18
 888 386 888 386 848 433 c 1,19,20
 808 386 808 386 787 328.5 c 128,-1,21
 766 271 766 271 766 211 c 1,22,-1
 766 211 l 1,11,12
40 246 m 1,23,24
 40 386 40 386 126 485.5 c 128,-1,25
 212 585 212 585 333 585 c 0,26,27
 400 585 400 585 456.5 555 c 128,-1,28
 513 525 513 525 543 473 c 1,29,30
 573 525 573 525 621.5 555 c 128,-1,31
 670 585 670 585 724 585 c 0,32,33
 758 585 758 585 791.5 570 c 128,-1,34
 825 555 825 555 853 527 c 1,35,36
 881 555 881 555 916 570 c 128,-1,37
 951 585 951 585 988 585 c 0,38,39
 1090 585 1090 585 1162.5 498.5 c 128,-1,40
 1235 412 1235 412 1235 289 c 0,41,42
 1235 203 1235 203 1201 127.5 c 128,-1,43
 1167 52 1167 52 1105 0 c 1,44,-1
 1058 47 l 1,45,46
 1109 90 1109 90 1137 153.5 c 128,-1,47
 1165 217 1165 217 1165 289 c 0,48,49
 1165 383 1165 383 1114.5 449 c 128,-1,50
 1064 515 1064 515 993 515 c 0,51,52
 960 515 960 515 934 506 c 128,-1,53
 908 497 908 497 894 480 c 1,54,55
 945 419 945 419 972.5 349.5 c 128,-1,56
 1000 280 1000 280 1000 211 c 0,57,58
 1000 124 1000 124 955.5 62 c 128,-1,59
 911 0 911 0 848 0 c 128,-1,60
 785 0 785 0 740.5 62 c 128,-1,61
 696 124 696 124 696 211 c 0,62,63
 696 277 696 277 723 344.5 c 128,-1,64
 750 412 750 412 801 473 c 1,65,66
 790 492 790 492 769 503.5 c 128,-1,67
 748 515 748 515 724 515 c 0,68,69
 664 515 664 515 621.5 467 c 128,-1,70
 579 419 579 419 579 351 c 2,71,-1
 579 0 l 1,72,-1
 508 0 l 1,73,-1
 508 351 l 2,74,75
 508 419 508 419 456.5 467 c 128,-1,76
 405 515 405 515 333 515 c 0,77,78
 241 515 241 515 176 446.5 c 128,-1,79
 111 378 111 378 111 281 c 1,80,81
 130 313 130 313 161 332 c 128,-1,82
 192 351 192 351 228 351 c 0,83,84
 296 351 296 351 343.5 299.5 c 128,-1,85
 391 248 391 248 391 176 c 0,86,87
 391 103 391 103 343.5 51.5 c 128,-1,88
 296 0 296 0 228 0 c 0,89,90
 150 0 150 0 95 72 c 128,-1,91
 40 144 40 144 40 246 c 1,92,-1
 40 246 l 1,23,24
EndSplineSet
EndChar

StartChar: ttamlm
Encoding: 3359 3359 42
Width: 594
GlyphClass: 2
Flags: W
AnchorPoint: "MLAnchor1" 297 650 basechar 0
AnchorPoint: "MLAnchor0" 582 587 basechar 0
LayerCount: 2
Fore
SplineSet
35 386 m 1,0,1
 35 471 35 471 110.5 531.5 c 128,-1,2
 186 592 186 592 293 592 c 0,3,4
 371 592 371 592 438 562.5 c 128,-1,5
 505 533 505 533 550 480 c 1,6,-1
 503 433 l 1,7,8
 468 475 468 475 413 498 c 128,-1,9
 358 521 358 521 293 521 c 0,10,11
 215 521 215 521 160 481.5 c 128,-1,12
 105 442 105 442 105 386 c 0,13,14
 105 362 105 362 129 345 c 128,-1,15
 153 328 153 328 187 328 c 2,16,-1
 421 328 l 2,17,18
 479 328 479 328 520.5 290 c 128,-1,19
 562 252 562 252 562 199 c 0,20,21
 562 114 562 114 481.5 53.5 c 128,-1,22
 401 -7 401 -7 287 -7 c 0,23,24
 217 -7 217 -7 150.5 25.5 c 128,-1,25
 84 58 84 58 35 117 c 1,26,-1
 82 169 l 1,27,28
 132 119 132 119 185.5 91.5 c 128,-1,29
 239 64 239 64 287 64 c 0,30,31
 371 64 371 64 431 103.5 c 128,-1,32
 491 143 491 143 491 199 c 0,33,34
 491 223 491 223 470.5 240 c 128,-1,35
 450 257 450 257 421 257 c 2,36,-1
 187 257 l 2,37,38
 124 257 124 257 79.5 295 c 128,-1,39
 35 333 35 333 35 386 c 1,40,-1
 35 386 l 1,0,1
EndSplineSet
EndChar

StartChar: tthamlm
Encoding: 3360 3360 43
Width: 660
GlyphClass: 2
Flags: W
AnchorPoint: "MLAnchor1" 330 650 basechar 0
AnchorPoint: "MLAnchor0" 643 585 basechar 0
LayerCount: 2
Fore
SplineSet
38 293 m 1,0,1
 38 417 38 417 123.5 504.5 c 128,-1,2
 209 592 209 592 330 592 c 128,-1,3
 451 592 451 592 537 504.5 c 128,-1,4
 623 417 623 417 623 293 c 128,-1,5
 623 169 623 169 537 81 c 128,-1,6
 451 -7 451 -7 330 -7 c 128,-1,7
 209 -7 209 -7 123.5 81 c 128,-1,8
 38 169 38 169 38 293 c 1,9,-1
 38 293 l 1,0,1
108 293 m 1,10,11
 108 198 108 198 173 131 c 128,-1,12
 238 64 238 64 330 64 c 128,-1,13
 422 64 422 64 487.5 131 c 128,-1,14
 553 198 553 198 553 293 c 0,15,16
 553 387 553 387 487.5 454 c 128,-1,17
 422 521 422 521 330 521 c 128,-1,18
 238 521 238 521 173 454 c 128,-1,19
 108 387 108 387 108 293 c 1,20,-1
 108 293 l 1,10,11
EndSplineSet
EndChar

StartChar: ddamlm
Encoding: 3361 3361 44
Width: 1183
GlyphClass: 2
Flags: W
AnchorPoint: "MLAnchor1" 620 650 basechar 0
AnchorPoint: "MLAnchor0" 1160 603 basechar 0
LayerCount: 2
Fore
SplineSet
42 281 m 1,0,1
 42 407 42 407 114 496 c 128,-1,2
 186 585 186 585 287 585 c 0,3,4
 369 585 369 585 427.5 516.5 c 128,-1,5
 486 448 486 448 486 351 c 0,6,7
 486 321 486 321 474.5 263.5 c 128,-1,8
 463 206 463 206 463 176 c 0,9,10
 463 132 463 132 494 101 c 128,-1,11
 525 70 525 70 568 70 c 0,12,13
 621 70 621 70 659 111.5 c 128,-1,14
 697 153 697 153 697 211 c 2,15,-1
 697 585 l 1,16,-1
 767 585 l 1,17,-1
 767 211 l 2,18,19
 767 153 767 153 811.5 111.5 c 128,-1,20
 856 70 856 70 919 70 c 256,21,22
 982 70 982 70 1026.5 137.5 c 128,-1,23
 1071 205 1071 205 1071 300 c 0,24,25
 1071 375 1071 375 1034.5 436.5 c 128,-1,26
 998 498 998 498 936 527 c 1,27,-1
 978 585 l 1,28,29
 1054 541 1054 541 1097.5 465 c 128,-1,30
 1141 389 1141 389 1141 300 c 0,31,32
 1141 176 1141 176 1076 88 c 128,-1,33
 1011 0 1011 0 919 0 c 0,34,35
 857 0 857 0 807 25 c 128,-1,36
 757 50 757 50 732 94 c 1,37,38
 707 50 707 50 663 25 c 128,-1,39
 619 0 619 0 568 0 c 0,40,41
 496 0 496 0 444.5 51.5 c 128,-1,42
 393 103 393 103 393 176 c 0,43,44
 393 206 393 206 404.5 263.5 c 128,-1,45
 416 321 416 321 416 351 c 0,46,47
 416 419 416 419 378 467 c 128,-1,48
 340 515 340 515 287 515 c 0,49,50
 215 515 215 515 163.5 446.5 c 128,-1,51
 112 378 112 378 112 281 c 0,52,53
 112 204 112 204 150.5 143 c 128,-1,54
 189 82 189 82 252 59 c 1,55,-1
 217 0 l 1,56,57
 140 21 140 21 91 99 c 128,-1,58
 42 177 42 177 42 281 c 1,59,-1
 42 281 l 1,0,1
EndSplineSet
EndChar

StartChar: ddhamlm
Encoding: 3362 3362 45
Width: 1232
GlyphClass: 2
Flags: W
AnchorPoint: "MLAnchor1" 620 650 basechar 0
AnchorPoint: "MLAnchor0" 1167 604 basechar 0
LayerCount: 2
Fore
SplineSet
954 351 m 1,0,1
 954 293 954 293 978 252 c 128,-1,2
 1002 211 1002 211 1036 211 c 128,-1,3
 1070 211 1070 211 1094 252 c 128,-1,4
 1118 293 1118 293 1118 351 c 0,5,6
 1118 419 1118 419 1094 467 c 128,-1,7
 1070 515 1070 515 1036 515 c 128,-1,8
 1002 515 1002 515 978 467 c 128,-1,9
 954 419 954 419 954 351 c 1,10,-1
 954 351 l 1,0,1
42 281 m 1,11,12
 42 407 42 407 114 496 c 128,-1,13
 186 585 186 585 287 585 c 0,14,15
 365 585 365 585 420 516.5 c 128,-1,16
 475 448 475 448 475 351 c 0,17,18
 475 321 475 321 463 263.5 c 128,-1,19
 451 206 451 206 451 176 c 0,20,21
 451 132 451 132 485.5 101 c 128,-1,22
 520 70 520 70 568 70 c 0,23,24
 621 70 621 70 659 125 c 128,-1,25
 697 180 697 180 697 257 c 2,26,-1
 697 585 l 1,27,-1
 767 585 l 1,28,-1
 767 257 l 2,29,30
 767 180 767 180 823 125 c 128,-1,31
 879 70 879 70 959 70 c 0,32,33
 989 70 989 70 1019 92 c 128,-1,34
 1049 114 1049 114 1071 152 c 1,35,36
 1064 150 1064 150 1055 149 c 128,-1,37
 1046 148 1046 148 1037 148 c 0,38,39
 974 148 974 148 929 207.5 c 128,-1,40
 884 267 884 267 884 351 c 0,41,42
 884 448 884 448 928.5 516.5 c 128,-1,43
 973 585 973 585 1036 585 c 128,-1,44
 1099 585 1099 585 1143.5 516.5 c 128,-1,45
 1188 448 1188 448 1188 351 c 0,46,47
 1188 206 1188 206 1121 103 c 128,-1,48
 1054 0 1054 0 959 0 c 0,49,50
 886 0 886 0 826 36.5 c 128,-1,51
 766 73 766 73 737 134 c 1,52,53
 715 74 715 74 668.5 37 c 128,-1,54
 622 0 622 0 568 0 c 0,55,56
 491 0 491 0 436 51.5 c 128,-1,57
 381 103 381 103 381 176 c 0,58,59
 381 206 381 206 392.5 263.5 c 128,-1,60
 404 321 404 321 404 351 c 0,61,62
 404 419 404 419 369.5 467 c 128,-1,63
 335 515 335 515 287 515 c 0,64,65
 215 515 215 515 163.5 446.5 c 128,-1,66
 112 378 112 378 112 281 c 0,67,68
 112 204 112 204 150.5 143 c 128,-1,69
 189 82 189 82 252 59 c 1,70,-1
 217 0 l 1,71,72
 138 29 138 29 90 106 c 128,-1,73
 42 183 42 183 42 281 c 1,74,-1
 42 281 l 1,11,12
EndSplineSet
EndChar

StartChar: nnamlm
Encoding: 3363 3363 46
Width: 1290
GlyphClass: 2
Flags: W
AnchorPoint: "MLAnchor1" 690 650 basechar 0
AnchorPoint: "MLAnchor0" 1224 606 basechar 0
LayerCount: 2
Fore
SplineSet
147 164 m 1,0,1
 147 123 147 123 174.5 93.5 c 128,-1,2
 202 64 202 64 241 64 c 128,-1,3
 280 64 280 64 307 93.5 c 128,-1,4
 334 123 334 123 334 164 c 0,5,6
 334 212 334 212 307 246.5 c 128,-1,7
 280 281 280 281 241 281 c 128,-1,8
 202 281 202 281 174.5 246.5 c 128,-1,9
 147 212 147 212 147 164 c 1,10,-1
 147 164 l 1,0,1
42 263 m 1,11,12
 42 399 42 399 121 495.5 c 128,-1,13
 200 592 200 592 311 592 c 0,14,15
 384 592 384 592 443.5 562 c 128,-1,16
 503 532 503 532 533 480 c 1,17,18
 551 530 551 530 593 561 c 128,-1,19
 635 592 635 592 685 592 c 0,20,21
 737 592 737 592 780.5 561 c 128,-1,22
 824 530 824 530 842 480 c 1,23,24
 872 532 872 532 918 562 c 128,-1,25
 964 592 964 592 1013 592 c 0,26,27
 1110 592 1110 592 1178.5 501 c 128,-1,28
 1247 410 1247 410 1247 281 c 0,29,30
 1247 191 1247 191 1206.5 116 c 128,-1,31
 1166 41 1166 41 1095 0 c 1,32,-1
 1048 47 l 1,33,34
 1108 82 1108 82 1142.5 144.5 c 128,-1,35
 1177 207 1177 207 1177 281 c 0,36,37
 1177 380 1177 380 1129 450.5 c 128,-1,38
 1081 521 1081 521 1013 521 c 0,39,40
 955 521 955 521 913.5 471 c 128,-1,41
 872 421 872 421 872 351 c 2,42,-1
 872 0 l 1,43,-1
 802 0 l 1,44,-1
 802 351 l 2,45,46
 802 421 802 421 767.5 471 c 128,-1,47
 733 521 733 521 685 521 c 128,-1,48
 637 521 637 521 602.5 471 c 128,-1,49
 568 421 568 421 568 351 c 2,50,-1
 568 0 l 1,51,-1
 498 0 l 1,52,-1
 498 351 l 2,53,54
 498 421 498 421 443 471 c 128,-1,55
 388 521 388 521 311 521 c 0,56,57
 229 521 229 521 170.5 445.5 c 128,-1,58
 112 370 112 370 112 263 c 1,59,60
 127 303 127 303 162.5 327 c 128,-1,61
 198 351 198 351 241 351 c 0,62,63
 309 351 309 351 356.5 296 c 128,-1,64
 404 241 404 241 404 164 c 0,65,66
 404 93 404 93 356.5 43 c 128,-1,67
 309 -7 309 -7 241 -7 c 0,68,69
 159 -7 159 -7 100.5 72 c 128,-1,70
 42 151 42 151 42 263 c 1,71,-1
 42 263 l 1,11,12
EndSplineSet
EndChar

StartChar: tamlm
Encoding: 3364 3364 47
Width: 883
GlyphClass: 2
Flags: W
AnchorPoint: "MLAnchor1" 450 650 basechar 0
AnchorPoint: "MLAnchor0" 868 597 basechar 0
LayerCount: 2
Fore
SplineSet
348 211 m 1,0,1
 348 150 348 150 375.5 107 c 128,-1,2
 403 64 403 64 442 64 c 128,-1,3
 481 64 481 64 508.5 107 c 128,-1,4
 536 150 536 150 536 211 c 0,5,6
 536 264 536 264 512 321.5 c 128,-1,7
 488 379 488 379 442 433 c 1,8,9
 396 379 396 379 372 321.5 c 128,-1,10
 348 264 348 264 348 211 c 1,11,-1
 348 211 l 1,0,1
44 281 m 1,12,13
 44 410 44 410 122 501 c 128,-1,14
 200 592 200 592 311 592 c 0,15,16
 347 592 347 592 381.5 575 c 128,-1,17
 416 558 416 558 442 527 c 1,18,19
 473 558 473 558 509 575 c 128,-1,20
 545 592 545 592 580 592 c 0,21,22
 688 592 688 592 764 501 c 128,-1,23
 840 410 840 410 840 281 c 0,24,25
 840 199 840 199 806 125 c 128,-1,26
 772 51 772 51 711 0 c 1,27,-1
 664 59 l 1,28,29
 714 94 714 94 742 153 c 128,-1,30
 770 212 770 212 770 281 c 0,31,32
 770 380 770 380 714.5 450.5 c 128,-1,33
 659 521 659 521 580 521 c 0,34,35
 561 521 561 521 539 510.5 c 128,-1,36
 517 500 517 500 494 481 c 1,37,38
 548 416 548 416 577 346.5 c 128,-1,39
 606 277 606 277 606 211 c 0,40,41
 606 121 606 121 558 57 c 128,-1,42
 510 -7 510 -7 442 -7 c 128,-1,43
 374 -7 374 -7 326 57 c 128,-1,44
 278 121 278 121 278 211 c 0,45,46
 278 270 278 270 308.5 338 c 128,-1,47
 339 406 339 406 397 475 c 1,48,49
 382 497 382 497 359 509 c 128,-1,50
 336 521 336 521 311 521 c 0,51,52
 229 521 229 521 171.5 450.5 c 128,-1,53
 114 380 114 380 114 281 c 0,54,55
 114 212 114 212 142 153 c 128,-1,56
 170 94 170 94 220 59 c 1,57,-1
 173 0 l 1,58,59
 112 42 112 42 78 116.5 c 128,-1,60
 44 191 44 191 44 281 c 1,61,-1
 44 281 l 1,12,13
EndSplineSet
EndChar

StartChar: thamlm
Encoding: 3365 3365 48
Width: 914
GlyphClass: 2
Flags: W
AnchorPoint: "MLAnchor1" 460 650 basechar 0
AnchorPoint: "MLAnchor0" 887 595 basechar 0
LayerCount: 2
Fore
SplineSet
78 0 m 1,0,-1
 78 585 l 1,1,-1
 148 585 l 1,2,-1
 148 70 l 1,3,-1
 382 70 l 1,4,-1
 382 328 l 2,5,6
 382 437 382 437 450.5 514.5 c 128,-1,7
 519 592 519 592 616 592 c 128,-1,8
 713 592 713 592 781.5 514.5 c 128,-1,9
 850 437 850 437 850 328 c 2,10,-1
 850 0 l 1,11,-1
 78 0 l 1,12,-1
 78 0 l 1,0,-1
452 70 m 1,13,-1
 780 70 l 1,14,-1
 780 328 l 2,15,16
 780 408 780 408 732 464.5 c 128,-1,17
 684 521 684 521 616 521 c 128,-1,18
 548 521 548 521 500 464.5 c 128,-1,19
 452 408 452 408 452 328 c 2,20,-1
 452 70 l 1,21,-1
 452 70 l 1,13,-1
EndSplineSet
EndChar

StartChar: damlm
Encoding: 3366 3366 49
Width: 654
GlyphClass: 2
Flags: W
AnchorPoint: "MLAnchor1" 340 650 basechar 0
AnchorPoint: "MLAnchor0" 637 577 basechar 0
LayerCount: 2
Fore
SplineSet
39 269 m 1,0,1
 39 403 39 403 135.5 497.5 c 128,-1,2
 232 592 232 592 369 592 c 0,3,4
 463 592 463 592 529 535 c 128,-1,5
 595 478 595 478 595 398 c 0,6,7
 595 366 595 366 580 335 c 128,-1,8
 565 304 565 304 537 281 c 1,9,10
 569 262 569 262 588 229 c 128,-1,11
 607 196 607 196 607 157 c 0,12,13
 607 92 607 92 562.5 46 c 128,-1,14
 518 0 518 0 455 0 c 2,15,-1
 280 0 l 1,16,-1
 280 70 l 1,17,-1
 455 70 l 2,18,19
 489 70 489 70 513 95.5 c 128,-1,20
 537 121 537 121 537 157 c 0,21,22
 537 194 537 194 513 220 c 128,-1,23
 489 246 489 246 455 246 c 2,24,-1
 280 246 l 1,25,-1
 280 316 l 1,26,-1
 455 316 l 2,27,28
 484 316 484 316 504.5 340 c 128,-1,29
 525 364 525 364 525 398 c 0,30,31
 525 449 525 449 479.5 485 c 128,-1,32
 434 521 434 521 369 521 c 0,33,34
 264 521 264 521 190 447 c 128,-1,35
 116 373 116 373 116 269 c 0,36,37
 116 199 116 199 133 142 c 128,-1,38
 150 85 150 85 181 47 c 1,39,-1
 127 0 l 1,40,41
 84 51 84 51 61.5 120 c 128,-1,42
 39 189 39 189 39 269 c 1,43,-1
 39 269 l 1,0,1
EndSplineSet
EndChar

StartChar: dhamlm
Encoding: 3367 3367 50
Width: 904
GlyphClass: 2
Flags: W
AnchorPoint: "MLAnchor1" 455 650 basechar 0
AnchorPoint: "MLAnchor0" 881 595 basechar 0
LayerCount: 2
Fore
SplineSet
42 285 m 1,0,1
 42 376 42 376 82.5 455.5 c 128,-1,2
 123 535 123 535 194 585 c 1,3,-1
 241 538 l 1,4,5
 180 496 180 496 146 428.5 c 128,-1,6
 112 361 112 361 112 285 c 0,7,8
 112 193 112 193 161 128.5 c 128,-1,9
 210 64 210 64 280 64 c 0,10,11
 336 64 336 64 376 114 c 128,-1,12
 416 164 416 164 416 234 c 2,13,-1
 416 585 l 1,14,-1
 486 585 l 1,15,-1
 486 234 l 2,16,17
 486 164 486 164 526 114 c 128,-1,18
 566 64 566 64 623 64 c 0,19,20
 692 64 692 64 741 128.5 c 128,-1,21
 790 193 790 193 790 285 c 0,22,23
 790 364 790 364 757.5 431 c 128,-1,24
 725 498 725 498 668 538 c 1,25,-1
 709 585 l 1,26,27
 780 544 780 544 820.5 464 c 128,-1,28
 861 384 861 384 861 285 c 0,29,30
 861 164 861 164 791.5 78.5 c 128,-1,31
 722 -7 722 -7 623 -7 c 0,32,33
 575 -7 575 -7 529 25 c 128,-1,34
 483 57 483 57 451 112 c 1,35,36
 419 57 419 57 373 25 c 128,-1,37
 327 -7 327 -7 280 -7 c 0,38,39
 181 -7 181 -7 111.5 78.5 c 128,-1,40
 42 164 42 164 42 285 c 1,41,-1
 42 285 l 1,0,1
EndSplineSet
EndChar

StartChar: namlm
Encoding: 3368 3368 51
Width: 904
GlyphClass: 2
Flags: W
AnchorPoint: "MLAnchor1" 450 650 basechar 0
AnchorPoint: "MLAnchor0" 864 604 basechar 0
LayerCount: 2
Fore
SplineSet
42 281 m 1,0,1
 42 410 42 410 112.5 501 c 128,-1,2
 183 592 183 592 282 592 c 0,3,4
 333 592 333 592 379 558.5 c 128,-1,5
 425 525 425 525 451 468 c 1,6,7
 477 525 477 525 525 558.5 c 128,-1,8
 573 592 573 592 627 592 c 0,9,10
 724 592 724 592 792.5 501 c 128,-1,11
 861 410 861 410 861 281 c 0,12,13
 861 185 861 185 820 108.5 c 128,-1,14
 779 32 779 32 709 0 c 1,15,-1
 673 52 l 1,16,17
 727 83 727 83 758.5 144.5 c 128,-1,18
 790 206 790 206 790 281 c 0,19,20
 790 380 790 380 742.5 450.5 c 128,-1,21
 695 521 695 521 627 521 c 0,22,23
 569 521 569 521 527.5 464.5 c 128,-1,24
 486 408 486 408 486 328 c 2,25,-1
 486 0 l 1,26,-1
 416 0 l 1,27,-1
 416 328 l 2,28,29
 416 408 416 408 377 464.5 c 128,-1,30
 338 521 338 521 282 521 c 0,31,32
 212 521 212 521 162 450.5 c 128,-1,33
 112 380 112 380 112 281 c 0,34,35
 112 209 112 209 146.5 148 c 128,-1,36
 181 87 181 87 241 52 c 1,37,-1
 194 0 l 1,38,39
 123 41 123 41 82.5 116 c 128,-1,40
 42 191 42 191 42 281 c 1,41,-1
 42 281 l 1,0,1
EndSplineSet
EndChar

StartChar: nnnamlm
Encoding: 3369 3369 52
Width: 1012
GlyphClass: 2
Flags: W
AnchorPoint: "MLAnchor1" 550 650 basechar 0
AnchorPoint: "MLAnchor0" 970 597 basechar 0
LayerCount: 2
Fore
SplineSet
135 164 m 1,0,1
 135 123 135 123 162.5 93.5 c 128,-1,2
 190 64 190 64 229 64 c 128,-1,3
 268 64 268 64 295 93.5 c 128,-1,4
 322 123 322 123 322 164 c 128,-1,5
 322 205 322 205 295 234 c 128,-1,6
 268 263 268 263 229 263 c 128,-1,7
 190 263 190 263 162.5 234 c 128,-1,8
 135 205 135 205 135 164 c 1,9,-1
 135 164 l 1,0,1
42 251 m 1,10,11
 42 392 42 392 124 492 c 128,-1,12
 206 592 206 592 322 592 c 0,13,14
 394 592 394 592 454 553 c 128,-1,15
 514 514 514 514 545 449 c 1,16,17
 576 514 576 514 629.5 553 c 128,-1,18
 683 592 683 592 744 592 c 0,19,20
 836 592 836 592 901 511 c 128,-1,21
 966 430 966 430 966 316 c 0,22,23
 966 96 966 96 800 0 c 1,24,-1
 760 60 l 1,25,26
 896 144 896 144 896 309 c 0,27,28
 896 397 896 397 851.5 459 c 128,-1,29
 807 521 807 521 744 521 c 0,30,31
 676 521 676 521 628 461 c 128,-1,32
 580 401 580 401 580 316 c 2,33,-1
 580 0 l 1,34,-1
 510 0 l 1,35,-1
 510 316 l 2,36,37
 510 401 510 401 455 461 c 128,-1,38
 400 521 400 521 322 521 c 0,39,40
 235 521 235 521 173.5 447 c 128,-1,41
 112 373 112 373 112 268 c 1,42,43
 133 299 133 299 164 316 c 128,-1,44
 195 333 195 333 229 333 c 0,45,46
 297 333 297 333 345 283.5 c 128,-1,47
 393 234 393 234 393 164 c 0,48,49
 393 93 393 93 345 43 c 128,-1,50
 297 -7 297 -7 229 -7 c 0,51,52
 152 -7 152 -7 97 68.5 c 128,-1,53
 42 144 42 144 42 251 c 1,54,-1
 42 251 l 1,10,11
EndSplineSet
EndChar

StartChar: pamlm
Encoding: 3370 3370 53
Width: 1000
GlyphClass: 2
Flags: W
AnchorPoint: "MLAnchor1" 500 650 basechar 0
AnchorPoint: "MLAnchor0" 993 595 basechar 0
LayerCount: 2
Fore
SplineSet
33 204 m 1,0,1
 33 299 33 299 94.5 366 c 128,-1,2
 156 433 156 433 243 433 c 256,3,4
 330 433 330 433 392 366 c 128,-1,5
 454 299 454 299 454 204 c 0,6,7
 454 162 454 162 442 127.5 c 128,-1,8
 430 93 430 93 407 70 c 1,9,-1
 852 70 l 1,10,-1
 852 585 l 1,11,-1
 922 585 l 1,12,-1
 922 0 l 1,13,-1
 313 0 l 1,14,-1
 313 70 l 1,15,16
 346 89 346 89 365 125 c 128,-1,17
 384 161 384 161 384 204 c 0,18,19
 384 270 384 270 342.5 316.5 c 128,-1,20
 301 363 301 363 243 363 c 256,21,22
 185 363 185 363 144 316.5 c 128,-1,23
 103 270 103 270 103 204 c 0,24,25
 103 163 103 163 130 124.5 c 128,-1,26
 157 86 157 86 203 59 c 1,27,-1
 166 0 l 1,28,29
 105 28 105 28 69 83.5 c 128,-1,30
 33 139 33 139 33 204 c 1,31,-1
 33 204 l 1,0,1
EndSplineSet
EndChar

StartChar: phamlm
Encoding: 3371 3371 54
Width: 1139
GlyphClass: 2
Flags: W
AnchorPoint: "MLAnchor1" 568 650 basechar 0
AnchorPoint: "MLAnchor0" 1107 597 basechar 0
LayerCount: 2
Fore
SplineSet
34 199 m 1,0,1
 34 296 34 296 95.5 364.5 c 128,-1,2
 157 433 157 433 244 433 c 128,-1,3
 331 433 331 433 393 364.5 c 128,-1,4
 455 296 455 296 455 199 c 0,5,6
 455 164 455 164 443 130.5 c 128,-1,7
 431 97 431 97 408 70 c 1,8,-1
 654 70 l 1,9,-1
 654 328 l 2,10,11
 654 437 654 437 716 514.5 c 128,-1,12
 778 592 778 592 865 592 c 128,-1,13
 952 592 952 592 1013.5 514.5 c 128,-1,14
 1075 437 1075 437 1075 328 c 2,15,-1
 1075 0 l 1,16,-1
 315 0 l 1,17,-1
 315 70 l 1,18,19
 348 93 348 93 366.5 127 c 128,-1,20
 385 161 385 161 385 199 c 0,21,22
 385 267 385 267 343.5 315 c 128,-1,23
 302 363 302 363 244 363 c 128,-1,24
 186 363 186 363 145 315 c 128,-1,25
 104 267 104 267 104 199 c 0,26,27
 104 154 104 154 127.5 115 c 128,-1,28
 151 76 151 76 192 52 c 1,29,-1
 146 0 l 1,30,31
 94 30 94 30 64 83.5 c 128,-1,32
 34 137 34 137 34 199 c 1,33,-1
 34 199 l 1,0,1
724 328 m 1,34,-1
 724 70 l 1,35,-1
 1005 70 l 1,36,-1
 1005 328 l 2,37,38
 1005 408 1005 408 964 464.5 c 128,-1,39
 923 521 923 521 865 521 c 128,-1,40
 807 521 807 521 765.5 464.5 c 128,-1,41
 724 408 724 408 724 328 c 1,42,-1
 724 328 l 1,34,-1
EndSplineSet
EndChar

StartChar: bamlm
Encoding: 3372 3372 55
Width: 1360
GlyphClass: 2
Flags: W
AnchorPoint: "MLAnchor0" 1370 595 basechar 0
AnchorPoint: "MLAnchor1" 690 650 basechar 0
LayerCount: 2
Fore
SplineSet
135 164 m 1,0,1
 135 123 135 123 162.5 93.5 c 128,-1,2
 190 64 190 64 229 64 c 128,-1,3
 268 64 268 64 295 93.5 c 128,-1,4
 322 123 322 123 322 164 c 128,-1,5
 322 205 322 205 295 234 c 128,-1,6
 268 263 268 263 229 263 c 128,-1,7
 190 263 190 263 162.5 234 c 128,-1,8
 135 205 135 205 135 164 c 1,9,-1
 135 164 l 1,0,1
42 251 m 1,10,11
 42 392 42 392 124 492 c 128,-1,12
 206 592 206 592 322 592 c 0,13,14
 394 592 394 592 454 553 c 128,-1,15
 514 514 514 514 545 449 c 1,16,17
 576 514 576 514 629.5 553 c 128,-1,18
 683 592 683 592 744 592 c 0,19,20
 836 592 836 592 901 511 c 128,-1,21
 966 430 966 430 966 316 c 0,22,23
 966 236 966 236 942 171.5 c 128,-1,24
 918 107 918 107 874 70 c 1,25,-1
 1212 70 l 1,26,-1
 1212 585 l 1,27,-1
 1282 585 l 1,28,-1
 1282 0 l 1,29,-1
 720 0 l 1,30,-1
 720 70 l 1,31,-1
 755 70 l 1,32,33
 820 100 820 100 858 165 c 128,-1,34
 896 230 896 230 896 309 c 0,35,36
 896 397 896 397 851.5 459 c 128,-1,37
 807 521 807 521 744 521 c 0,38,39
 676 521 676 521 628 461 c 128,-1,40
 580 401 580 401 580 316 c 2,41,-1
 580 0 l 1,42,-1
 510 0 l 1,43,-1
 510 316 l 2,44,45
 510 401 510 401 455 461 c 128,-1,46
 400 521 400 521 322 521 c 0,47,48
 235 521 235 521 173.5 447 c 128,-1,49
 112 373 112 373 112 268 c 1,50,51
 133 299 133 299 164 316 c 128,-1,52
 195 333 195 333 229 333 c 0,53,54
 297 333 297 333 345 283.5 c 128,-1,55
 393 234 393 234 393 164 c 0,56,57
 393 93 393 93 345 43 c 128,-1,58
 297 -7 297 -7 229 -7 c 0,59,60
 152 -7 152 -7 97 68.5 c 128,-1,61
 42 144 42 144 42 251 c 1,62,-1
 42 251 l 1,10,11
EndSplineSet
EndChar

StartChar: bhamlm
Encoding: 3373 3373 56
Width: 663
GlyphClass: 2
Flags: W
AnchorPoint: "MLAnchor1" 360 650 basechar 0
AnchorPoint: "MLAnchor0" 651 596 basechar 0
LayerCount: 2
Fore
SplineSet
46 234 m 1,0,1
 46 385 46 385 142 491.5 c 128,-1,2
 238 598 238 598 373 598 c 0,3,4
 475 598 475 598 547 554 c 128,-1,5
 619 510 619 510 619 447 c 0,6,7
 619 399 619 399 583.5 364.5 c 128,-1,8
 548 330 548 330 497 330 c 0,9,10
 473 330 473 330 425.5 342 c 128,-1,11
 378 354 378 354 354 354 c 0,12,13
 328 354 328 354 309.5 332.5 c 128,-1,14
 291 311 291 311 291 281 c 0,15,16
 291 262 291 262 305 248 c 128,-1,17
 319 234 319 234 338 234 c 0,18,19
 365 234 365 234 417.5 251.5 c 128,-1,20
 470 269 470 269 497 269 c 0,21,22
 548 269 548 269 583.5 234.5 c 128,-1,23
 619 200 619 200 619 152 c 0,24,25
 619 89 619 89 560.5 44.5 c 128,-1,26
 502 0 502 0 420 0 c 0,27,28
 375 0 375 0 328 9 c 128,-1,29
 281 18 281 18 233 35 c 1,30,-1
 256 105 l 1,31,32
 293 88 293 88 334.5 79 c 128,-1,33
 376 70 376 70 420 70 c 0,34,35
 473 70 473 70 511 94 c 128,-1,36
 549 118 549 118 549 152 c 0,37,38
 549 171 549 171 534 185 c 128,-1,39
 519 199 519 199 497 199 c 0,40,41
 470 199 470 199 417.5 181.5 c 128,-1,42
 365 164 365 164 338 164 c 0,43,44
 290 164 290 164 255.5 198.5 c 128,-1,45
 221 233 221 233 221 281 c 0,46,47
 221 340 221 340 260 382 c 128,-1,48
 299 424 299 424 354 424 c 0,49,50
 379 424 379 424 425.5 409 c 128,-1,51
 472 394 472 394 497 394 c 0,52,53
 519 394 519 394 534 409.5 c 128,-1,54
 549 425 549 425 549 447 c 0,55,56
 549 481 549 481 497.5 504.5 c 128,-1,57
 446 528 446 528 373 528 c 0,58,59
 267 528 267 528 191.5 442 c 128,-1,60
 116 356 116 356 116 234 c 0,61,62
 116 177 116 177 131 128.5 c 128,-1,63
 146 80 146 80 174 47 c 1,64,-1
 122 0 l 1,65,66
 86 30 86 30 66 91.5 c 128,-1,67
 46 153 46 153 46 234 c 1,68,-1
 46 234 l 1,0,1
EndSplineSet
EndChar

StartChar: mamlm
Encoding: 3374 3374 57
Width: 702
GlyphClass: 2
Flags: W
AnchorPoint: "MLAnchor1" 360 650 basechar 0
AnchorPoint: "MLAnchor0" 670 599 basechar 0
LayerCount: 2
Fore
SplineSet
129 293 m 1,0,-1
 129 70 l 1,1,2
 230 70 230 70 302 142 c 128,-1,3
 374 214 374 214 374 316 c 0,4,5
 374 388 374 388 343 439.5 c 128,-1,6
 312 491 312 491 269 491 c 0,7,8
 211 491 211 491 170 433 c 128,-1,9
 129 375 129 375 129 293 c 1,10,-1
 129 293 l 1,0,-1
321 70 m 1,11,-1
 573 70 l 1,12,-1
 573 293 l 2,13,14
 573 387 573 387 511.5 453.5 c 128,-1,15
 450 520 450 520 363 520 c 1,16,17
 402 493 402 493 423.5 439 c 128,-1,18
 445 385 445 385 445 316 c 0,19,20
 445 241 445 241 412 176 c 128,-1,21
 379 111 379 111 321 70 c 1,22,-1
 321 70 l 1,11,-1
59 293 m 1,23,24
 59 414 59 414 144.5 499.5 c 128,-1,25
 230 585 230 585 351 585 c 128,-1,26
 472 585 472 585 558 499.5 c 128,-1,27
 644 414 644 414 644 293 c 2,28,-1
 644 0 l 1,29,-1
 59 0 l 1,30,-1
 59 293 l 1,31,-1
 59 293 l 1,23,24
EndSplineSet
EndChar

StartChar: yamlm
Encoding: 3375 3375 58
Width: 953
GlyphClass: 2
Flags: W
AnchorPoint: "MLAnchor1" 510 650 basechar 0
AnchorPoint: "MLAnchor0" 908 597 basechar 0
LayerCount: 2
Fore
SplineSet
112 339 m 1,0,1
 112 228 112 228 180.5 149 c 128,-1,2
 249 70 249 70 346 70 c 0,3,4
 377 70 377 70 400.5 73 c 128,-1,5
 424 76 424 76 439 82 c 1,6,7
 383 129 383 129 352.5 199.5 c 128,-1,8
 322 270 322 270 322 351 c 0,9,10
 322 424 322 424 291 476 c 128,-1,11
 260 528 260 528 217 528 c 128,-1,12
 174 528 174 528 143 472.5 c 128,-1,13
 112 417 112 417 112 339 c 1,14,-1
 112 339 l 1,0,1
393 351 m 1,15,16
 393 268 393 268 424.5 202 c 128,-1,17
 456 136 456 136 510 105 c 1,18,19
 568 154 568 154 600 218.5 c 128,-1,20
 632 283 632 283 632 351 c 0,21,22
 632 424 632 424 597 476 c 128,-1,23
 562 528 562 528 512 528 c 0,24,25
 463 528 463 528 428 476 c 128,-1,26
 393 424 393 424 393 351 c 1,27,-1
 393 351 l 1,15,16
42 339 m 1,28,29
 42 446 42 446 93.5 522 c 128,-1,30
 145 598 145 598 217 598 c 0,31,32
 255 598 255 598 294 567.5 c 128,-1,33
 333 537 333 537 364 484 c 1,34,35
 388 536 388 536 428 567 c 128,-1,36
 468 598 468 598 510 598 c 0,37,38
 590 598 590 598 646 525.5 c 128,-1,39
 702 453 702 453 702 351 c 0,40,41
 702 275 702 275 668 204 c 128,-1,42
 634 133 634 133 573 82 c 1,43,44
 588 75 588 75 599.5 71.5 c 128,-1,45
 611 68 611 68 619 68 c 0,46,47
 709 68 709 68 773 144 c 128,-1,48
 837 220 837 220 837 328 c 0,49,50
 837 393 837 393 819 449 c 128,-1,51
 801 505 801 505 768 545 c 1,52,-1
 828 585 l 1,53,54
 866 539 866 539 886.5 473 c 128,-1,55
 907 407 907 407 907 328 c 0,56,57
 907 192 907 192 823 96 c 128,-1,58
 739 0 739 0 620 0 c 0,59,60
 590 0 590 0 559 9 c 128,-1,61
 528 18 528 18 498 35 c 1,62,63
 468 18 468 18 429.5 9 c 128,-1,64
 391 0 391 0 346 0 c 0,65,66
 220 0 220 0 131 99.5 c 128,-1,67
 42 199 42 199 42 339 c 1,68,-1
 42 339 l 1,28,29
EndSplineSet
EndChar

StartChar: ramlm
Encoding: 3376 3376 59
Width: 649
GlyphClass: 2
Flags: W
AnchorPoint: "MLAnchor1" 330 650 basechar 0
AnchorPoint: "MLAnchor0" 623 590 basechar 0
LayerCount: 2
Fore
SplineSet
376 110 m 0,0,1
 401 64 401 64 442 64 c 0,2,3
 481 64 481 64 508.5 110.5 c 128,-1,4
 536 157 536 157 536 222 c 0,5,6
 536 290 536 290 512 355.5 c 128,-1,7
 488 421 488 421 442 475 c 1,8,9
 401 427 401 427 372 356 c 0,10,11
 344 289 344 289 342 245 c 0,12,13
 338 178 338 178 376 110 c 0,0,1
126 494 m 1,14,15
 209 592 209 592 325 592 c 128,-1,16
 441 592 441 592 523.5 483.5 c 128,-1,17
 606 375 606 375 606 222 c 0,18,19
 606 127 606 127 558 60 c 128,-1,20
 510 -7 510 -7 442 -7 c 128,-1,21
 374 -7 374 -7 326 60 c 128,-1,22
 278 127 278 127 278 222 c 0,23,24
 278 304 278 304 308 376 c 128,-1,25
 338 448 338 448 389 503 c 1,26,27
 379 512 379 512 362.5 516.5 c 128,-1,28
 346 521 346 521 325 521 c 0,29,30
 238 521 238 521 176 443.5 c 128,-1,31
 114 366 114 366 114 257 c 0,32,33
 114 190 114 190 135.5 135 c 128,-1,34
 157 80 157 80 196 47 c 1,35,-1
 150 0 l 1,36,37
 100 42 100 42 72 110 c 1,38,39
 31 204 31 204 42 292 c 0,40,41
 56 408 56 408 126 494 c 1,14,15
EndSplineSet
EndChar

StartChar: rramlm
Encoding: 3377 3377 60
Width: 710
GlyphClass: 2
Flags: W
AnchorPoint: "MLAnchor1" 360 650 basechar 0
AnchorPoint: "MLAnchor0" 662 595 basechar 0
LayerCount: 2
Fore
SplineSet
39 281 m 1,0,1
 39 412 39 412 131.5 504.5 c 128,-1,2
 224 597 224 597 355 597 c 256,3,4
 486 597 486 597 578.5 504.5 c 128,-1,5
 671 412 671 412 671 281 c 0,6,7
 671 182 671 182 616.5 101.5 c 128,-1,8
 562 21 562 21 472 -12 c 1,9,-1
 432 47 l 1,10,11
 508 75 508 75 554.5 139 c 128,-1,12
 601 203 601 203 601 281 c 0,13,14
 601 383 601 383 529 455 c 128,-1,15
 457 527 457 527 355 527 c 256,16,17
 253 527 253 527 181 455 c 128,-1,18
 109 383 109 383 109 281 c 0,19,20
 109 204 109 204 157.5 140 c 128,-1,21
 206 76 206 76 285 47 c 1,22,-1
 238 -12 l 1,23,24
 148 21 148 21 93.5 101.5 c 128,-1,25
 39 182 39 182 39 281 c 1,26,-1
 39 281 l 1,0,1
EndSplineSet
EndChar

StartChar: lamlm
Encoding: 3378 3378 61
Width: 819
GlyphClass: 2
Flags: W
AnchorPoint: "MLAnchor1" 440 650 basechar 0
AnchorPoint: "MLAnchor0" 918 596 basechar 0
LayerCount: 2
Fore
SplineSet
137 359 m 1,0,-1
 137 300 l 1,1,-1
 447 300 l 1,2,-1
 447 359 l 2,3,4
 447 429 447 429 401.5 479 c 128,-1,5
 356 529 356 529 291 529 c 0,6,7
 227 529 227 529 182 479 c 128,-1,8
 137 429 137 429 137 359 c 1,9,-1
 137 359 l 1,0,-1
671 585 m 1,10,-1
 741 585 l 1,11,-1
 741 0 l 1,12,-1
 66 0 l 1,13,-1
 66 359 l 2,14,15
 66 458 66 458 132 528.5 c 128,-1,16
 198 599 198 599 291 599 c 128,-1,17
 384 599 384 599 450 528.5 c 128,-1,18
 516 458 516 458 516 359 c 2,19,-1
 516 230 l 1,20,-1
 137 230 l 1,21,-1
 137 70 l 1,22,-1
 671 70 l 1,23,-1
 671 585 l 1,24,-1
 671 585 l 1,10,-1
EndSplineSet
EndChar

StartChar: llamlm
Encoding: 3379 3379 62
Width: 663
GlyphClass: 2
Flags: W
AnchorPoint: "MLAnchor1" 330 650 basechar 0
AnchorPoint: "MLAnchor0" 749 596 basechar 0
LayerCount: 2
Fore
SplineSet
120 211 m 1,0,1
 120 177 120 177 144 153 c 128,-1,2
 168 129 168 129 202 129 c 128,-1,3
 236 129 236 129 259.5 153 c 128,-1,4
 283 177 283 177 283 211 c 128,-1,5
 283 245 283 245 259.5 269 c 128,-1,6
 236 293 236 293 202 293 c 128,-1,7
 168 293 168 293 144 269 c 128,-1,8
 120 245 120 245 120 211 c 1,9,-1
 120 211 l 1,0,1
38 257 m 1,10,11
 38 396 38 396 120.5 494 c 128,-1,12
 203 592 203 592 319 592 c 0,13,14
 430 592 430 592 509 516 c 128,-1,15
 588 440 588 440 588 333 c 0,16,17
 588 292 588 292 569 257.5 c 128,-1,18
 550 223 550 223 517 204 c 1,19,20
 569 190 569 190 601.5 149.5 c 128,-1,21
 634 109 634 109 634 59 c 0,22,23
 634 -4 634 -4 582.5 -49 c 128,-1,24
 531 -94 531 -94 459 -94 c 2,25,-1
 166 -94 l 2,26,27
 142 -94 142 -94 125 -111 c 128,-1,28
 108 -128 108 -128 108 -152 c 0,29,30
 108 -186 108 -186 125 -210 c 128,-1,31
 142 -234 142 -234 166 -234 c 2,32,-1
 681 -234 l 1,33,-1
 681 -304 l 1,34,-1
 166 -304 l 2,35,36
 113 -304 113 -304 75.5 -259.5 c 128,-1,37
 38 -215 38 -215 38 -152 c 0,38,39
 38 -99 38 -99 75.5 -61 c 128,-1,40
 113 -23 113 -23 166 -23 c 2,41,-1
 459 -23 l 2,42,43
 502 -23 502 -23 533 1 c 128,-1,44
 564 25 564 25 564 59 c 0,45,46
 564 102 564 102 516 133 c 128,-1,47
 468 164 468 164 400 164 c 1,48,-1
 400 234 l 1,49,50
 448 234 448 234 482.5 263 c 128,-1,51
 517 292 517 292 517 333 c 0,52,53
 517 411 517 411 459 466 c 128,-1,54
 401 521 401 521 319 521 c 0,55,56
 233 521 233 521 168.5 455.5 c 128,-1,57
 104 390 104 390 96 293 c 1,58,59
 111 325 111 325 141.5 344 c 128,-1,60
 172 363 172 363 208 363 c 0,61,62
 268 363 268 363 311 318.5 c 128,-1,63
 354 274 354 274 354 211 c 128,-1,64
 354 148 354 148 309.5 103.5 c 128,-1,65
 265 59 265 59 202 59 c 0,66,67
 134 59 134 59 86 117 c 128,-1,68
 38 175 38 175 38 257 c 1,69,-1
 38 257 l 1,10,11
EndSplineSet
EndChar

StartChar: lllamlm
Encoding: 3380 3380 63
Width: 645
GlyphClass: 2
Flags: W
AnchorPoint: "MLAnchor1" 340 650 basechar 0
AnchorPoint: "MLAnchor0" 623 597 basechar 0
LayerCount: 2
Fore
SplineSet
31 445 m 1,0,1
 31 486 31 486 43 522 c 128,-1,2
 55 558 55 558 78 585 c 1,3,-1
 142 550 l 1,4,5
 122 526 122 526 111.5 499 c 128,-1,6
 101 472 101 472 101 445 c 0,7,8
 101 375 101 375 155 326 c 128,-1,9
 209 277 209 277 286 277 c 0,10,11
 296 277 296 277 307 278 c 128,-1,12
 318 279 318 279 329 281 c 1,13,14
 309 323 309 323 299 358.5 c 128,-1,15
 289 394 289 394 289 421 c 0,16,17
 289 494 289 494 336.5 545.5 c 128,-1,18
 384 597 384 597 452 597 c 128,-1,19
 520 597 520 597 568 547 c 128,-1,20
 616 497 616 497 616 426 c 0,21,22
 616 353 616 353 559.5 295 c 128,-1,23
 503 237 503 237 417 222 c 1,24,25
 423 206 423 206 426 187 c 128,-1,26
 429 168 429 168 429 147 c 0,27,28
 429 81 429 81 389 34 c 128,-1,29
 349 -13 349 -13 293 -13 c 0,30,31
 256 -13 256 -13 221.5 -1 c 128,-1,32
 187 11 187 11 160 34 c 1,33,-1
 189 86 l 1,34,35
 214 72 214 72 239.5 64.5 c 128,-1,36
 265 57 265 57 289 57 c 0,37,38
 318 57 318 57 338.5 83 c 128,-1,39
 359 109 359 109 359 146 c 0,40,41
 359 168 359 168 356.5 186 c 128,-1,42
 354 204 354 204 350 216 c 1,43,44
 337 212 337 212 321 210 c 128,-1,45
 305 208 305 208 287 208 c 0,46,47
 181 208 181 208 106 277.5 c 128,-1,48
 31 347 31 347 31 445 c 1,49,-1
 31 445 l 1,0,1
359 421 m 1,50,51
 359 398 359 398 368.5 365.5 c 128,-1,52
 378 333 378 333 397 293 c 1,53,54
 462 304 462 304 504 342 c 128,-1,55
 546 380 546 380 546 426 c 0,56,57
 546 468 546 468 520 497.5 c 128,-1,58
 494 527 494 527 458 527 c 0,59,60
 417 527 417 527 388 496 c 128,-1,61
 359 465 359 465 359 421 c 1,62,-1
 359 421 l 1,50,51
EndSplineSet
EndChar

StartChar: vamlm
Encoding: 3381 3381 64
Width: 1043
GlyphClass: 2
Flags: W
AnchorPoint: "MLAnchor1" 550 650 basechar 0
AnchorPoint: "MLAnchor0" 1012 595 basechar 0
LayerCount: 2
Fore
SplineSet
40 281 m 1,0,1
 40 412 40 412 126 505 c 128,-1,2
 212 598 212 598 333 598 c 256,3,4
 454 598 454 598 539.5 505 c 128,-1,5
 625 412 625 412 625 281 c 0,6,7
 625 223 625 223 605.5 168.5 c 128,-1,8
 586 114 586 114 549 70 c 1,9,-1
 894 70 l 1,10,-1
 894 585 l 1,11,-1
 965 585 l 1,12,-1
 965 0 l 1,13,-1
 450 0 l 1,14,-1
 450 70 l 1,15,16
 500 112 500 112 527.5 167.5 c 128,-1,17
 555 223 555 223 555 281 c 0,18,19
 555 383 555 383 490 455.5 c 128,-1,20
 425 528 425 528 333 528 c 256,21,22
 241 528 241 528 176 455.5 c 128,-1,23
 111 383 111 383 111 281 c 0,24,25
 111 206 111 206 153 145 c 128,-1,26
 195 84 195 84 263 59 c 1,27,-1
 244 0 l 1,28,29
 156 16 156 16 98 95.5 c 128,-1,30
 40 175 40 175 40 281 c 1,31,-1
 40 281 l 1,0,1
EndSplineSet
EndChar

StartChar: shamlm
Encoding: 3382 3382 65
Width: 940
GlyphClass: 2
Flags: W
AnchorPoint: "MLAnchor1" 490 650 basechar 0
AnchorPoint: "MLAnchor0" 910 597 basechar 0
LayerCount: 2
Fore
SplineSet
645 199 m 1,0,1
 645 143 645 143 669 103.5 c 128,-1,2
 693 64 693 64 727 64 c 0,3,4
 768 64 768 64 797.5 120.5 c 128,-1,5
 827 177 827 177 827 257 c 0,6,7
 827 308 827 308 812 353.5 c 128,-1,8
 797 399 797 399 768 433 c 1,9,10
 710 384 710 384 677.5 322.5 c 128,-1,11
 645 261 645 261 645 199 c 1,12,-1
 645 199 l 1,0,1
48 328 m 1,13,14
 48 434 48 434 110 509.5 c 128,-1,15
 172 585 172 585 259 585 c 2,16,-1
 294 585 l 1,17,-1
 294 515 l 1,18,-1
 259 515 l 2,19,20
 201 515 201 515 159.5 460 c 128,-1,21
 118 405 118 405 118 328 c 2,22,-1
 118 257 l 2,23,24
 118 177 118 177 159.5 120.5 c 128,-1,25
 201 64 201 64 259 64 c 128,-1,26
 317 64 317 64 358 120.5 c 128,-1,27
 399 177 399 177 399 257 c 2,28,-1
 399 328 l 2,29,30
 399 437 399 437 462.5 514.5 c 128,-1,31
 526 592 526 592 616 592 c 0,32,33
 732 592 732 592 814.5 494 c 128,-1,34
 897 396 897 396 897 257 c 0,35,36
 897 148 897 148 847 70.5 c 128,-1,37
 797 -7 797 -7 727 -7 c 0,38,39
 664 -7 664 -7 619.5 53.5 c 128,-1,40
 575 114 575 114 575 199 c 0,41,42
 575 285 575 285 615.5 358.5 c 128,-1,43
 656 432 656 432 727 473 c 1,44,45
 714 495 714 495 684.5 508 c 128,-1,46
 655 521 655 521 616 521 c 0,47,48
 555 521 555 521 512 464.5 c 128,-1,49
 469 408 469 408 469 328 c 2,50,-1
 469 257 l 2,51,52
 469 148 469 148 407.5 70.5 c 128,-1,53
 346 -7 346 -7 259 -7 c 128,-1,54
 172 -7 172 -7 110 70.5 c 128,-1,55
 48 148 48 148 48 257 c 2,56,-1
 48 328 l 1,57,-1
 48 328 l 1,13,14
EndSplineSet
EndChar

StartChar: ssamlm
Encoding: 3383 3383 66
Width: 1153
GlyphClass: 2
Flags: W
AnchorPoint: "MLAnchor1" 575 650 basechar 0
AnchorPoint: "MLAnchor0" 1114 596 basechar 0
LayerCount: 2
Fore
SplineSet
584 426 m 1,0,1
 584 390 584 390 605.5 364.5 c 128,-1,2
 627 339 627 339 658 339 c 2,3,-1
 724 339 l 1,4,-1
 724 424 l 2,5,6
 724 462 724 462 703.5 488.5 c 128,-1,7
 683 515 683 515 654 515 c 128,-1,8
 625 515 625 515 604.5 489 c 128,-1,9
 584 463 584 463 584 426 c 1,10,-1
 584 426 l 1,0,1
34 199 m 1,11,12
 34 296 34 296 95.5 364.5 c 128,-1,13
 157 433 157 433 244 433 c 128,-1,14
 331 433 331 433 393 364.5 c 128,-1,15
 455 296 455 296 455 199 c 0,16,17
 455 164 455 164 443 130.5 c 128,-1,18
 431 97 431 97 408 70 c 1,19,-1
 724 70 l 1,20,-1
 724 269 l 1,21,-1
 658 269 l 2,22,23
 598 269 598 269 556 315 c 128,-1,24
 514 361 514 361 514 426 c 0,25,26
 514 492 514 492 555 538.5 c 128,-1,27
 596 585 596 585 654 585 c 128,-1,28
 712 585 712 585 753 538 c 128,-1,29
 794 491 794 491 794 424 c 2,30,-1
 794 339 l 1,31,32
 864 358 864 358 923 423 c 128,-1,33
 982 488 982 488 1017 585 c 1,34,-1
 1075 585 l 1,35,-1
 1075 0 l 1,36,-1
 315 0 l 1,37,-1
 315 70 l 1,38,39
 348 93 348 93 366.5 127 c 128,-1,40
 385 161 385 161 385 199 c 0,41,42
 385 267 385 267 343.5 315 c 128,-1,43
 302 363 302 363 244 363 c 128,-1,44
 186 363 186 363 145 315 c 128,-1,45
 104 267 104 267 104 199 c 0,46,47
 104 160 104 160 125.5 123 c 128,-1,48
 147 86 147 86 186 59 c 1,49,-1
 151 0 l 1,50,51
 97 31 97 31 65.5 84.5 c 128,-1,52
 34 138 34 138 34 199 c 1,53,-1
 34 199 l 1,11,12
794 70 m 1,54,-1
 1005 70 l 1,55,-1
 1005 433 l 1,56,57
 963 361 963 361 907.5 317.5 c 128,-1,58
 852 274 852 274 794 269 c 1,59,-1
 794 70 l 1,60,-1
 794 70 l 1,54,-1
EndSplineSet
EndChar

StartChar: samlm
Encoding: 3384 3384 67
Width: 1138
GlyphClass: 2
Flags: W
AnchorPoint: "MLAnchor1" 590 650 basechar 0
AnchorPoint: "MLAnchor0" 1120 596 basechar 0
LayerCount: 2
Fore
SplineSet
43 290 m 1,0,1
 43 415 43 415 108 503.5 c 128,-1,2
 173 592 173 592 265 592 c 0,3,4
 316 592 316 592 360.5 561.5 c 128,-1,5
 405 531 405 531 429 480 c 1,6,7
 453 531 453 531 500 561.5 c 128,-1,8
 547 592 547 592 603 592 c 0,9,10
 681 592 681 592 736.5 538.5 c 128,-1,11
 792 485 792 485 792 410 c 0,12,13
 792 370 792 370 780 289.5 c 128,-1,14
 768 209 768 209 768 169 c 0,15,16
 768 126 768 126 796.5 95 c 128,-1,17
 825 64 825 64 866 64 c 0,18,19
 932 64 932 64 979 131 c 128,-1,20
 1026 198 1026 198 1026 293 c 0,21,22
 1026 364 1026 364 988 426.5 c 128,-1,23
 950 489 950 489 885 527 c 1,24,-1
 920 585 l 1,25,26
 1001 547 1001 547 1048.5 468 c 128,-1,27
 1096 389 1096 389 1096 293 c 0,28,29
 1096 169 1096 169 1028.5 81 c 128,-1,30
 961 -7 961 -7 866 -7 c 0,31,32
 796 -7 796 -7 747 44.5 c 128,-1,33
 698 96 698 96 698 169 c 0,34,35
 698 209 698 209 710 289.5 c 128,-1,36
 722 370 722 370 722 410 c 0,37,38
 722 456 722 456 689 488.5 c 128,-1,39
 656 521 656 521 610 521 c 0,40,41
 550 521 550 521 507 476 c 128,-1,42
 464 431 464 431 464 368 c 2,43,-1
 464 0 l 1,44,-1
 394 0 l 1,45,-1
 394 368 l 2,46,47
 394 431 394 431 356 476 c 128,-1,48
 318 521 318 521 265 521 c 0,49,50
 202 521 202 521 157.5 453.5 c 128,-1,51
 113 386 113 386 113 290 c 0,52,53
 113 218 113 218 145.5 155 c 128,-1,54
 178 92 178 92 235 52 c 1,55,-1
 200 0 l 1,56,57
 127 42 127 42 85 119.5 c 128,-1,58
 43 197 43 197 43 290 c 1,59,-1
 43 290 l 1,0,1
EndSplineSet
EndChar

StartChar: hamlm
Encoding: 3385 3385 68
Width: 1218
GlyphClass: 2
Flags: W
AnchorPoint: "MLAnchor1" 600 650 basechar 0
AnchorPoint: "MLAnchor0" 1186 596 basechar 0
LayerCount: 2
Fore
SplineSet
33 212 m 1,0,1
 33 304 33 304 94.5 368.5 c 128,-1,2
 156 433 156 433 243 433 c 256,3,4
 330 433 330 433 392 364.5 c 128,-1,5
 454 296 454 296 454 199 c 0,6,7
 454 164 454 164 442 130.5 c 128,-1,8
 430 97 430 97 407 70 c 1,9,-1
 693 70 l 1,10,11
 646 109 646 109 620 167.5 c 128,-1,12
 594 226 594 226 594 293 c 0,13,14
 594 417 594 417 680 504.5 c 128,-1,15
 766 592 766 592 887 592 c 256,16,17
 1008 592 1008 592 1093.5 504.5 c 128,-1,18
 1179 417 1179 417 1179 293 c 0,19,20
 1179 189 1179 189 1123.5 109 c 128,-1,21
 1068 29 1068 29 980 5 c 1,22,-1
 950 64 l 1,23,24
 1022 90 1022 90 1065.5 153 c 128,-1,25
 1109 216 1109 216 1109 293 c 0,26,27
 1109 387 1109 387 1044 454 c 128,-1,28
 979 521 979 521 887 521 c 256,29,30
 795 521 795 521 729.5 454 c 128,-1,31
 664 387 664 387 664 293 c 0,32,33
 664 221 664 221 702 160.5 c 128,-1,34
 740 100 740 100 805 70 c 1,35,-1
 805 0 l 1,36,-1
 313 0 l 1,37,-1
 313 70 l 1,38,39
 346 89 346 89 365 123.5 c 128,-1,40
 384 158 384 158 384 199 c 0,41,42
 384 267 384 267 342.5 315 c 128,-1,43
 301 363 301 363 243 363 c 256,44,45
 185 363 185 363 144 319 c 128,-1,46
 103 275 103 275 103 212 c 0,47,48
 103 162 103 162 130 121 c 128,-1,49
 157 80 157 80 202 64 c 1,50,-1
 173 0 l 1,51,52
 110 23 110 23 71.5 81 c 128,-1,53
 33 139 33 139 33 212 c 1,54,-1
 33 212 l 1,0,1
EndSplineSet
EndChar

StartChar: tttamlm
Encoding: 3386 3386 69
Width: 914
GlyphClass: 2
Flags: W
AnchorPoint: "MLAnchor1" 470 650 basechar 0
LayerCount: 2
Fore
SplineSet
880 70 m 1,0,-1
 880 0 l 1,1,-1
 532 0 l 1,2,-1
 532 -314 l 1,3,-1
 462 -314 l 1,4,-1
 462 0 l 1,5,-1
 78 0 l 1,6,-1
 78 585 l 1,7,-1
 148 585 l 1,8,-1
 148 70 l 1,9,-1
 880 70 l 1,0,-1
EndSplineSet
EndChar

StartChar: avagrahamlm
Encoding: 3389 3389 70
Width: 354
GlyphClass: 2
Flags: W
LayerCount: 2
Fore
SplineSet
266 777 m 0,0,1
 198 736 198 736 185 647 c 2,2,-1
 84 -47 l 2,3,4
 76 -105 76 -105 53 -131 c 0,5,6
 19 -168 19 -168 -47 -158 c 1,7,8
 -54 -207 -54 -207 -57 -224 c 1,9,10
 19 -229 19 -229 71 -199 c 1,11,12
 139 -158 139 -158 152 -68 c 2,13,-1
 252 625 l 2,14,15
 261 683 261 683 284 709 c 0,16,17
 317 746 317 746 383 736 c 1,18,19
 391 786 391 786 393 802 c 1,20,21
 318 808 318 808 266 777 c 0,0,1
EndSplineSet
EndChar

StartChar: aavowelmlm
Encoding: 3390 3390 71
Width: 498
GlyphClass: 2
Flags: W
LayerCount: 2
Fore
SplineSet
33 377 m 1,0,1
 33 469 33 469 93 533.5 c 128,-1,2
 153 598 153 598 238 598 c 0,3,4
 327 598 327 598 390.5 508.5 c 128,-1,5
 454 419 454 419 454 293 c 0,6,7
 454 166 454 166 390.5 76.5 c 128,-1,8
 327 -13 327 -13 238 -13 c 0,9,10
 153 -13 153 -13 93 51.5 c 128,-1,11
 33 116 33 116 33 208 c 1,12,-1
 103 208 l 1,13,14
 103 145 103 145 142.5 101 c 128,-1,15
 182 57 182 57 238 57 c 0,16,17
 298 57 298 57 341 126 c 128,-1,18
 384 195 384 195 384 293 c 0,19,20
 384 390 384 390 341 459 c 128,-1,21
 298 528 298 528 238 528 c 0,22,23
 182 528 182 528 142.5 484 c 128,-1,24
 103 440 103 440 103 377 c 1,25,-1
 33 377 l 1,26,-1
 33 377 l 1,0,1
EndSplineSet
EndChar

StartChar: ivowelmlm
Encoding: 3391 3391 72
Width: 226
GlyphClass: 2
Flags: W
LayerCount: 2
Fore
SplineSet
-203 644 m 1,0,1
 -203 716 -203 716 -151.5 767.5 c 128,-1,2
 -100 819 -100 819 -27 819 c 0,3,4
 45 819 45 819 96.5 767.5 c 128,-1,5
 148 716 148 716 148 644 c 2,6,-1
 148 0 l 1,7,-1
 78 0 l 1,8,-1
 78 644 l 2,9,10
 78 687 78 687 47 718 c 128,-1,11
 16 749 16 749 -27 749 c 0,12,13
 -71 749 -71 749 -102 718 c 128,-1,14
 -133 687 -133 687 -133 644 c 2,15,-1
 -133 590 l 1,16,-1
 -203 590 l 1,17,-1
 -203 644 l 1,18,-1
 -203 644 l 1,0,1
EndSplineSet
EndChar

StartChar: iivowelmlm
Encoding: 3392 3392 73
Width: 226
GlyphClass: 2
Flags: W
LayerCount: 2
Fore
SplineSet
-215 705 m 1,0,1
 -215 763 -215 763 -170.5 804 c 128,-1,2
 -126 845 -126 845 -63 845 c 0,3,4
 24 845 24 845 86 786.5 c 128,-1,5
 148 728 148 728 148 646 c 2,6,-1
 148 0 l 1,7,-1
 78 0 l 1,8,-1
 78 634 l 2,9,10
 78 685 78 685 59 721.5 c 128,-1,11
 40 758 40 758 13 758 c 1,12,13
 17 746 17 746 19.5 733 c 128,-1,14
 22 720 22 720 22 706 c 0,15,16
 22 655 22 655 -13 618.5 c 128,-1,17
 -48 582 -48 582 -98 582 c 0,18,19
 -146 582 -146 582 -180.5 618 c 128,-1,20
 -215 654 -215 654 -215 705 c 1,21,-1
 -215 705 l 1,0,1
-156 705 m 1,22,23
 -156 676 -156 676 -139 655 c 128,-1,24
 -122 634 -122 634 -98 634 c 128,-1,25
 -74 634 -74 634 -56.5 655 c 128,-1,26
 -39 676 -39 676 -39 705 c 128,-1,27
 -39 734 -39 734 -56.5 754.5 c 128,-1,28
 -74 775 -74 775 -98 775 c 128,-1,29
 -122 775 -122 775 -139 754.5 c 128,-1,30
 -156 734 -156 734 -156 705 c 1,31,-1
 -156 705 l 1,22,23
EndSplineSet
EndChar

StartChar: uvowelmlm
Encoding: 3393 3393 74
Width: 289
GlyphClass: 2
Flags: W
LayerCount: 2
Fore
SplineSet
-78 -124 m 1,0,1
 -78 -56 -78 -56 -36.5 -4 c 128,-1,2
 5 48 5 48 69 59 c 1,3,4
 111 216 111 216 127 285.5 c 128,-1,5
 143 355 143 355 143 395 c 0,6,7
 143 439 143 439 114 470 c 128,-1,8
 85 501 85 501 44 501 c 1,9,-1
 67 566 l 1,10,11
 125 556 125 556 163 507.5 c 128,-1,12
 201 459 201 459 201 395 c 0,13,14
 201 329 201 329 182.5 244.5 c 128,-1,15
 164 160 164 160 127 59 c 1,16,17
 194 53 194 53 240 0.5 c 128,-1,18
 286 -52 286 -52 286 -124 c 0,19,20
 286 -199 286 -199 232.5 -252.5 c 128,-1,21
 179 -306 179 -306 104 -306 c 128,-1,22
 29 -306 29 -306 -24.5 -252.5 c 128,-1,23
 -78 -199 -78 -199 -78 -124 c 1,24,-1
 -78 -124 l 1,0,1
-20 -124 m 1,25,26
 -20 -175 -20 -175 16.5 -211 c 128,-1,27
 53 -247 53 -247 104 -247 c 128,-1,28
 155 -247 155 -247 191 -211 c 128,-1,29
 227 -175 227 -175 227 -124 c 128,-1,30
 227 -73 227 -73 191 -36.5 c 128,-1,31
 155 0 155 0 104 0 c 128,-1,32
 53 0 53 0 16.5 -36.5 c 128,-1,33
 -20 -73 -20 -73 -20 -124 c 1,34,-1
 -20 -124 l 1,25,26
EndSplineSet
EndChar

StartChar: uuvowelmlm
Encoding: 3394 3394 75
Width: 289
GlyphClass: 2
Flags: W
LayerCount: 2
Fore
SplineSet
-78 -124 m 1,0,1
 -78 -56 -78 -56 -36.5 -4 c 128,-1,2
 5 48 5 48 69 59 c 1,3,4
 89 135 89 135 122.5 249.5 c 128,-1,5
 156 364 156 364 156 402 c 0,6,7
 156 443 156 443 127 472 c 128,-1,8
 98 501 98 501 57 501 c 1,9,-1
 80 566 l 1,10,11
 138 556 138 556 176 511 c 128,-1,12
 214 466 214 466 214 407 c 0,13,14
 214 353 214 353 192 265.5 c 128,-1,15
 170 178 170 178 127 59 c 1,16,17
 194 53 194 53 240 0.5 c 128,-1,18
 286 -52 286 -52 286 -124 c 0,19,20
 286 -199 286 -199 232.5 -252.5 c 128,-1,21
 179 -306 179 -306 104 -306 c 128,-1,22
 29 -306 29 -306 -24.5 -252.5 c 128,-1,23
 -78 -199 -78 -199 -78 -124 c 1,24,-1
 -78 -124 l 1,0,1
10 -56 m 1,25,26
 10 -84 10 -84 37.5 -104 c 128,-1,27
 65 -124 65 -124 104 -124 c 128,-1,28
 143 -124 143 -124 170 -104 c 128,-1,29
 197 -84 197 -84 197 -56 c 0,30,31
 197 -27 197 -27 170 -6.5 c 128,-1,32
 143 14 143 14 104 14 c 128,-1,33
 65 14 65 14 37.5 -6.5 c 128,-1,34
 10 -27 10 -27 10 -56 c 1,35,-1
 10 -56 l 1,25,26
-32 -124 m 1,36,37
 -32 -180 -32 -180 8 -219.5 c 128,-1,38
 48 -259 48 -259 104 -259 c 128,-1,39
 160 -259 160 -259 199.5 -219.5 c 128,-1,40
 239 -180 239 -180 239 -124 c 0,41,42
 239 -111 239 -111 233.5 -100.5 c 128,-1,43
 228 -90 228 -90 219 -85 c 1,44,45
 225 -118 225 -118 190 -144 c 128,-1,46
 155 -170 155 -170 104 -170 c 0,47,48
 50 -170 50 -170 12.5 -144 c 128,-1,49
 -25 -118 -25 -118 -19 -85 c 1,50,51
 -25 -88 -25 -88 -28.5 -98.5 c 128,-1,52
 -32 -109 -32 -109 -32 -124 c 1,53,-1
 -32 -124 l 1,36,37
EndSplineSet
EndChar

StartChar: rvocalicvowelmlm
Encoding: 3395 3395 76
Width: 293
GlyphClass: 2
Flags: W
LayerCount: 2
Fore
SplineSet
-78 -70 m 1,0,1
 -78 7 -78 7 -49.5 62 c 128,-1,2
 -21 117 -21 117 20 117 c 0,3,4
 54 117 54 117 78 79 c 128,-1,5
 102 41 102 41 102 -12 c 0,6,7
 102 -84 102 -84 83.5 -139 c 128,-1,8
 65 -194 65 -194 32 -222 c 1,9,10
 49 -239 49 -239 70 -248 c 128,-1,11
 91 -257 91 -257 114 -257 c 0,12,13
 165 -257 165 -257 201.5 -195.5 c 128,-1,14
 238 -134 238 -134 238 -47 c 0,15,16
 238 53 238 53 164.5 240 c 128,-1,17
 91 427 91 427 91 527 c 2,18,-1
 91 585 l 1,19,-1
 161 585 l 1,20,-1
 161 527 l 2,21,22
 161 428 161 428 225.5 240 c 128,-1,23
 290 52 290 52 290 -47 c 0,24,25
 290 -158 290 -158 238.5 -237 c 128,-1,26
 187 -316 187 -316 114 -316 c 0,27,28
 34 -316 34 -316 -22 -244 c 128,-1,29
 -78 -172 -78 -172 -78 -70 c 1,30,-1
 -78 -70 l 1,0,1
-32 -70 m 1,31,32
 -32 -90 -32 -90 -21.5 -118 c 128,-1,33
 -11 -146 -11 -146 9 -181 c 1,34,35
 32 -154 32 -154 44 -110.5 c 128,-1,36
 56 -67 56 -67 56 -12 c 0,37,38
 56 17 56 17 45.5 38 c 128,-1,39
 35 59 35 59 20 59 c 0,40,41
 -2 59 -2 59 -17 21 c 128,-1,42
 -32 -17 -32 -17 -32 -70 c 1,43,-1
 -32 -70 l 1,31,32
EndSplineSet
EndChar

StartChar: rrvocalicvowel
Encoding: 3396 3396 77
Width: 345
GlyphClass: 2
Flags: W
LayerCount: 2
Fore
SplineSet
-152 -235 m 256,0,1
 -113 -269 -113 -269 -57 -269 c 2,2,-1
 90 -269 l 1,3,4
 227 -250 227 -250 227 -161 c 0,5,6
 227 -110 227 -110 187 -78 c 0,7,8
 148 -48 148 -48 93 -48 c 2,9,-1
 -57 -48 l 2,10,11
 -112 -48 -112 -48 -152 -78 c 1,12,13
 -191 -109 -191 -109 -191 -153 c 0,14,15
 -191 -201 -191 -201 -152 -235 c 256,0,1
93 -319 m 2,16,-1
 -57 -319 l 2,17,18
 -133 -319 -133 -319 -187 -270 c 0,19,20
 -242 -220 -242 -220 -241 -153 c 0,21,22
 -238 -4 -238 -4 -50 0 c 2,23,-1
 88 3 l 1,24,25
 205 -5 205 -5 243 -66 c 1,26,27
 246 73 246 73 185 215 c 0,28,29
 102 411 102 411 126 536 c 2,30,-1
 136 588 l 1,31,-1
 202 588 l 1,32,-1
 192 536 l 2,33,34
 172 434 172 434 253 219 c 0,35,36
 316 51 316 51 306 -83 c 0,37,38
 288 -319 288 -319 93 -319 c 2,16,-1
-77.5 -111.5 m 128,-1,40
 -56 -91 -56 -91 -26 -91 c 0,41,42
 -11 -91 -11 -91 4 -99 c 0,43,44
 14 -104 14 -104 21 -113 c 1,45,46
 29 -104 29 -104 40 -99 c 1,47,48
 54 -91 54 -91 71 -91 c 0,49,50
 100 -91 100 -91 121 -111.5 c 128,-1,51
 142 -132 142 -132 142 -161 c 0,52,53
 142 -213 142 -213 107 -225 c 1,54,-1
 103 -227 l 1,55,-1
 86 -208 l 1,56,-1
 93 -205 l 2,57,58
 112 -197 112 -197 112 -161 c 0,59,60
 112 -143 112 -143 100 -129 c 0,61,62
 88 -116 88 -116 71 -116 c 0,63,64
 57 -116 57 -116 46.5 -126.5 c 128,-1,65
 36 -137 36 -137 36 -152 c 2,66,-1
 36 -226 l 1,67,-1
 7 -226 l 1,68,-1
 7 -152 l 2,69,70
 7 -137 7 -137 -3 -126.5 c 128,-1,71
 -13 -116 -13 -116 -26 -116 c 0,72,73
 -44 -116 -44 -116 -56.5 -129.5 c 128,-1,74
 -69 -143 -69 -143 -69 -161 c 0,75,76
 -69 -195 -69 -195 -46 -205 c 1,77,-1
 -38 -208 l 1,78,-1
 -60 -227 l 1,79,-1
 -63 -225 l 1,80,81
 -99 -210 -99 -210 -99 -161 c 0,82,39
 -99 -132 -99 -132 -77.5 -111.5 c 128,-1,40
EndSplineSet
EndChar

StartChar: evowelmlm
Encoding: 3398 3398 78
Width: 690
GlyphClass: 2
Flags: W
LayerCount: 2
Fore
SplineSet
134 176 m 1,0,1
 134 132 134 132 161.5 101 c 128,-1,2
 189 70 189 70 228 70 c 128,-1,3
 267 70 267 70 294 101 c 128,-1,4
 321 132 321 132 321 176 c 0,5,6
 321 219 321 219 294 250 c 128,-1,7
 267 281 267 281 228 281 c 128,-1,8
 189 281 189 281 161.5 250 c 128,-1,9
 134 219 134 219 134 176 c 1,10,-1
 134 176 l 1,0,1
40 257 m 1,11,12
 40 396 40 396 129.5 494 c 128,-1,13
 219 592 219 592 345 592 c 128,-1,14
 471 592 471 592 560 501 c 128,-1,15
 649 410 649 410 649 281 c 0,16,17
 649 193 649 193 615 116 c 128,-1,18
 581 39 581 39 520 -12 c 1,19,-1
 468 36 l 1,20,21
 521 80 521 80 550 144.5 c 128,-1,22
 579 209 579 209 579 281 c 0,23,24
 579 380 579 380 510.5 450.5 c 128,-1,25
 442 521 442 521 345 521 c 128,-1,26
 248 521 248 521 179.5 452 c 128,-1,27
 111 383 111 383 111 286 c 1,28,29
 125 316 125 316 156.5 333.5 c 128,-1,30
 188 351 188 351 228 351 c 0,31,32
 296 351 296 351 343.5 299.5 c 128,-1,33
 391 248 391 248 391 176 c 0,34,35
 391 103 391 103 343.5 51.5 c 128,-1,36
 296 0 296 0 228 0 c 0,37,38
 150 0 150 0 95 75.5 c 128,-1,39
 40 151 40 151 40 257 c 1,40,-1
 40 257 l 1,11,12
EndSplineSet
EndChar

StartChar: eevowelmlm
Encoding: 3399 3399 79
Width: 545
GlyphClass: 2
Flags: W
LayerCount: 2
Fore
SplineSet
38 295 m 1,0,1
 38 421 38 421 120.5 509.5 c 128,-1,2
 203 598 203 598 319 598 c 2,3,-1
 377 598 l 2,4,5
 425 598 425 598 459.5 557 c 128,-1,6
 494 516 494 516 494 458 c 0,7,8
 494 405 494 405 459.5 367 c 128,-1,9
 425 329 425 329 377 329 c 128,-1,10
 329 329 329 329 294.5 363.5 c 128,-1,11
 260 398 260 398 260 446 c 0,12,13
 260 470 260 470 266 491 c 128,-1,14
 272 512 272 512 283 528 c 1,15,16
 211 528 211 528 159.5 460 c 128,-1,17
 108 392 108 392 108 295 c 0,18,19
 108 199 108 199 163 131.5 c 128,-1,20
 218 64 218 64 295 64 c 1,21,22
 278 78 278 78 269 99.5 c 128,-1,23
 260 121 260 121 260 146 c 0,24,25
 260 194 260 194 294.5 228.5 c 128,-1,26
 329 263 329 263 377 263 c 128,-1,27
 425 263 425 263 459.5 225 c 128,-1,28
 494 187 494 187 494 134 c 0,29,30
 494 76 494 76 459.5 34.5 c 128,-1,31
 425 -7 425 -7 377 -7 c 2,32,-1
 319 -7 l 2,33,34
 203 -7 203 -7 120.5 81.5 c 128,-1,35
 38 170 38 170 38 295 c 1,36,-1
 38 295 l 1,0,1
313 146 m 1,37,38
 313 117 313 117 331.5 96 c 128,-1,39
 350 75 350 75 377 75 c 128,-1,40
 404 75 404 75 423 96 c 128,-1,41
 442 117 442 117 442 146 c 0,42,43
 442 172 442 172 423 190.5 c 128,-1,44
 404 209 404 209 377 209 c 128,-1,45
 350 209 350 209 331.5 190.5 c 128,-1,46
 313 172 313 172 313 146 c 1,47,-1
 313 146 l 1,37,38
313 446 m 1,48,49
 313 419 313 419 331.5 400 c 128,-1,50
 350 381 350 381 377 381 c 128,-1,51
 404 381 404 381 423 400 c 128,-1,52
 442 419 442 419 442 446 c 0,53,54
 442 475 442 475 423 495.5 c 128,-1,55
 404 516 404 516 377 516 c 128,-1,56
 350 516 350 516 331.5 495.5 c 128,-1,57
 313 475 313 475 313 446 c 1,58,-1
 313 446 l 1,48,49
EndSplineSet
EndChar

StartChar: ovowelmlm
Encoding: 3402 3402 81
Width: 1206
GlyphClass: 2
Flags: W
LayerCount: 2
Fore
SplineSet
30 549 m 1,0,-1
 30 -225 l 1,1,-1
 1244 -225 l 1,2,-1
 1244 549 l 1,3,-1
 30 549 l 1,0,-1
0 595 m 1,4,-1
 1274 595 l 1,5,-1
 1274 -259 l 1,6,-1
 0 -259 l 1,7,-1
 0 595 l 1,4,-1
200 -75 m 128,-1,9
 228 -106 228 -106 267 -106 c 128,-1,10
 306 -106 306 -106 333 -75 c 128,-1,11
 360 -44 360 -44 360 -0.5 c 128,-1,12
 360 43 360 43 333 74 c 128,-1,13
 306 105 306 105 267 105 c 128,-1,14
 228 105 228 105 200 74 c 128,-1,15
 172 43 172 43 172 -0.5 c 128,-1,8
 172 -44 172 -44 200 -75 c 128,-1,9
168 318 m 128,-1,17
 258 416 258 416 384 416 c 128,-1,18
 510 416 510 416 599 325 c 128,-1,19
 688 234 688 234 688 105 c 0,20,21
 688 17 688 17 654 -60 c 128,-1,22
 620 -137 620 -137 558 -188 c 1,23,-1
 506 -140 l 1,24,25
 560 -96 560 -96 589 -31.5 c 128,-1,26
 618 33 618 33 618 105 c 0,27,28
 618 204 618 204 549 274.5 c 128,-1,29
 480 345 480 345 383 345 c 128,-1,30
 286 345 286 345 218 276 c 128,-1,31
 150 207 150 207 150 110 c 1,32,33
 164 140 164 140 195 157.5 c 128,-1,34
 226 175 226 175 266 175 c 0,35,36
 334 175 334 175 382 123.5 c 128,-1,37
 430 72 430 72 430 -0.5 c 128,-1,38
 430 -73 430 -73 382 -124.5 c 128,-1,39
 334 -176 334 -176 261 -176 c 128,-1,40
 188 -176 188 -176 133 -100.5 c 128,-1,41
 78 -25 78 -25 78 81 c 0,42,16
 78 220 78 220 168 318 c 128,-1,17
806 368 m 128,-1,44
 866 433 866 433 953 433 c 128,-1,45
 1040 433 1040 433 1103 343 c 128,-1,46
 1166 253 1166 253 1166 127 c 128,-1,47
 1166 1 1166 1 1103 -89 c 128,-1,48
 1040 -179 1040 -179 953 -179 c 128,-1,49
 866 -179 866 -179 806 -114 c 128,-1,50
 746 -49 746 -49 746 43 c 1,51,-1
 816 43 l 1,52,53
 816 -21 816 -21 855 -65 c 128,-1,54
 894 -109 894 -109 952 -109 c 128,-1,55
 1010 -109 1010 -109 1053 -40 c 128,-1,56
 1096 29 1096 29 1096 127 c 128,-1,57
 1096 225 1096 225 1053 294 c 128,-1,58
 1010 363 1010 363 952 363 c 128,-1,59
 894 363 894 363 855 319 c 128,-1,60
 816 275 816 275 816 211 c 1,61,-1
 746 211 l 1,62,43
 746 303 746 303 806 368 c 128,-1,44
EndSplineSet
EndChar

StartChar: oovowelmlm
Encoding: 3403 3403 82
Width: 1050
GlyphClass: 2
Flags: W
LayerCount: 2
Fore
SplineSet
29 549 m 1,0,-1
 29 -225 l 1,1,-1
 1244 -225 l 1,2,-1
 1244 549 l 1,3,-1
 29 549 l 1,0,-1
0 595 m 1,4,-1
 1274 595 l 1,5,-1
 1274 -259 l 1,6,-1
 0 -259 l 1,7,-1
 0 595 l 1,4,-1
351 -95 m 1,8,9
 316 -66 316 -66 316 -15.5 c 128,-1,10
 316 35 316 35 350.5 70 c 128,-1,11
 385 105 385 105 433 105 c 128,-1,12
 481 105 481 105 515.5 67 c 128,-1,13
 550 29 550 29 550 -27 c 128,-1,14
 550 -83 550 -83 515.5 -124 c 128,-1,15
 481 -165 481 -165 433 -165 c 2,16,-1
 375 -165 l 2,17,18
 259 -165 259 -165 176.5 -77 c 128,-1,19
 94 11 94 11 94 137 c 128,-1,20
 94 263 94 263 176.5 351 c 128,-1,21
 259 439 259 439 375 439 c 2,22,-1
 433 439 l 2,23,24
 481 439 481 439 515.5 398 c 128,-1,25
 550 357 550 357 550 302 c 128,-1,26
 550 247 550 247 515.5 209 c 128,-1,27
 481 171 481 171 433 171 c 128,-1,28
 385 171 385 171 350.5 205 c 128,-1,29
 316 239 316 239 316 287.5 c 128,-1,30
 316 336 316 336 339 369 c 1,31,32
 267 369 267 369 215.5 301 c 128,-1,33
 164 233 164 233 164 137 c 128,-1,34
 164 41 164 41 219 -27 c 128,-1,35
 274 -95 274 -95 351 -95 c 1,8,9
387.5 -62 m 128,-1,37
 406 -83 406 -83 433 -83 c 128,-1,38
 460 -83 460 -83 479 -62 c 128,-1,39
 498 -41 498 -41 498 -14 c 128,-1,40
 498 13 498 13 479 32 c 128,-1,41
 460 51 460 51 433 51 c 128,-1,42
 406 51 406 51 387.5 32 c 128,-1,43
 369 13 369 13 369 -14 c 128,-1,36
 369 -41 369 -41 387.5 -62 c 128,-1,37
387.5 242 m 128,-1,45
 406 223 406 223 433 223 c 128,-1,46
 460 223 460 223 479 242 c 128,-1,47
 498 261 498 261 498 289 c 128,-1,48
 498 317 498 317 479 337 c 128,-1,49
 460 357 460 357 433 357 c 128,-1,50
 406 357 406 357 387.5 337 c 128,-1,51
 369 317 369 317 369 289 c 128,-1,44
 369 261 369 261 387.5 242 c 128,-1,45
750 382 m 128,-1,53
 810 447 810 447 897 447 c 128,-1,54
 984 447 984 447 1047 357 c 128,-1,55
 1110 267 1110 267 1110 141 c 128,-1,56
 1110 15 1110 15 1047 -75 c 128,-1,57
 984 -165 984 -165 897 -165 c 128,-1,58
 810 -165 810 -165 750 -100 c 128,-1,59
 690 -35 690 -35 690 57 c 1,60,-1
 760 57 l 1,61,62
 760 -7 760 -7 799 -51 c 128,-1,63
 838 -95 838 -95 896 -95 c 128,-1,64
 954 -95 954 -95 997 -26 c 128,-1,65
 1040 43 1040 43 1040 141 c 128,-1,66
 1040 239 1040 239 997 308 c 128,-1,67
 954 377 954 377 896 377 c 128,-1,68
 838 377 838 377 799 333 c 128,-1,69
 760 289 760 289 760 225 c 1,70,-1
 690 225 l 1,71,52
 690 317 690 317 750 382 c 128,-1,53
EndSplineSet
EndChar

StartChar: auvowelmlm
Encoding: 3404 3404 83
Width: 1357
GlyphClass: 2
Flags: W
LayerCount: 2
Fore
SplineSet
718 386 m 1,0,1
 718 468 718 468 769.5 526.5 c 0,2,3
 821 585 821 585 893 585 c 0,4,5
 927 585 927 585 958 564.5 c 0,6,7
 989 544 989 544 1010 508 c 1,8,9
 1031 544 1031 544 1062 564.5 c 0,10,11
 1093 585 1093 585 1127 585 c 0,12,13
 1200 585 1200 585 1251.5 526.5 c 0,14,15
 1303 468 1303 468 1303 386 c 2,16,-1
 1303 234 l 2,17,18
 1303 137 1303 137 1250 68.5 c 0,19,20
 1197 0 1197 0 1122 0 c 0,21,22
 1052 0 1052 0 1002 51.5 c 0,23,24
 952 103 952 103 952 176 c 2,25,-1
 952 234 l 1,26,-1
 1022 234 l 1,27,-1
 1022 176 l 2,28,29
 1022 132 1022 132 1051.5 101 c 0,30,31
 1081 70 1081 70 1122 70 c 0,32,33
 1168 70 1168 70 1200 118 c 0,34,35
 1232 166 1232 166 1232 234 c 2,36,-1
 1232 386 l 2,37,38
 1232 439 1232 439 1201 477 c 0,39,40
 1170 515 1170 515 1127 515 c 0,41,42
 1093 515 1093 515 1069 477 c 0,43,44
 1045 439 1045 439 1045 386 c 2,45,-1
 1045 328 l 1,46,-1
 975 328 l 1,47,-1
 975 386 l 2,48,49
 975 439 975 439 951 477 c 0,50,51
 927 515 927 515 893 515 c 0,52,53
 850 515 850 515 819 477 c 0,54,55
 788 439 788 439 788 386 c 2,56,-1
 788 328 l 1,57,-1
 718 328 l 1,58,-1
 718 386 l 1,59,-1
 718 386 l 1,0,1
EndSplineSet
Refer: 78 3398 N 1 0 0 1 0 0 2
EndChar

StartChar: viramamlm
Encoding: 3405 3405 84
Width: 0
GlyphClass: 2
Flags: W
AnchorPoint: "MLAnchor0" -70 596 mark 0
LayerCount: 2
Fore
SplineSet
-224 762 m 1,0,1
 -224 785 -224 785 -211.5 806 c 128,-1,2
 -199 827 -199 827 -178 839 c 1,3,-1
 -131 809 l 1,4,5
 -142 800 -142 800 -148 787.5 c 128,-1,6
 -154 775 -154 775 -154 762 c 0,7,8
 -154 733 -154 733 -130 712.5 c 128,-1,9
 -106 692 -106 692 -72 692 c 256,10,11
 -38 692 -38 692 -14 712.5 c 128,-1,12
 10 733 10 733 10 762 c 0,13,14
 10 775 10 775 3.5 787 c 128,-1,15
 -3 799 -3 799 -14 809 c 1,16,-1
 33 839 l 1,17,18
 55 826 55 826 67.5 805.5 c 128,-1,19
 80 785 80 785 80 762 c 0,20,21
 80 709 80 709 35.5 671 c 128,-1,22
 -9 633 -9 633 -72 633 c 256,23,24
 -135 633 -135 633 -179.5 671 c 128,-1,25
 -224 709 -224 709 -224 762 c 1,26,-1
 -224 762 l 1,0,1
EndSplineSet
EndChar

StartChar: dotrephmlm
Encoding: 3406 3406 85
Width: 0
GlyphClass: 4
Flags: W
AnchorPoint: "MLAnchor1" -131 670 mark 0
LayerCount: 2
Fore
SplineSet
-198 743 m 1,0,1
 -198 716 -198 716 -179.5 697 c 128,-1,2
 -161 678 -161 678 -134 678 c 128,-1,3
 -107 678 -107 678 -88 697 c 128,-1,4
 -69 716 -69 716 -69 743 c 128,-1,5
 -69 770 -69 770 -88 788.5 c 128,-1,6
 -107 807 -107 807 -134 807 c 128,-1,7
 -161 807 -161 807 -179.5 788.5 c 128,-1,8
 -198 770 -198 770 -198 743 c 1,9,-1
 -198 743 l 1,0,1
EndSplineSet
EndChar

StartChar: aulengthmarkmlm
Encoding: 3415 3415 86
Width: 667
GlyphClass: 2
Flags: W
LayerCount: 2
Fore
SplineSet
26 373 m 1,0,1
 26 464 26 464 77.5 528 c 128,-1,2
 129 592 129 592 202 592 c 0,3,4
 236 592 236 592 267 571.5 c 128,-1,5
 298 551 298 551 319 515 c 1,6,7
 340 551 340 551 371 571.5 c 128,-1,8
 402 592 402 592 436 592 c 0,9,10
 508 592 508 592 559.5 528 c 128,-1,11
 611 464 611 464 611 373 c 2,12,-1
 611 221 l 2,13,14
 611 124 611 124 558 55.5 c 128,-1,15
 505 -13 505 -13 430 -13 c 0,16,17
 360 -13 360 -13 310 38.5 c 128,-1,18
 260 90 260 90 260 163 c 2,19,-1
 260 221 l 1,20,-1
 330 221 l 1,21,-1
 330 163 l 2,22,23
 330 119 330 119 359.5 88 c 128,-1,24
 389 57 389 57 430 57 c 0,25,26
 476 57 476 57 508.5 105 c 128,-1,27
 541 153 541 153 541 221 c 2,28,-1
 541 373 l 2,29,30
 541 434 541 434 510 477.5 c 128,-1,31
 479 521 479 521 436 521 c 0,32,33
 402 521 402 521 378 477.5 c 128,-1,34
 354 434 354 434 354 373 c 2,35,-1
 354 315 l 1,36,-1
 283 315 l 1,37,-1
 283 373 l 2,38,39
 283 434 283 434 259.5 477.5 c 128,-1,40
 236 521 236 521 202 521 c 0,41,42
 158 521 158 521 127 477.5 c 128,-1,43
 96 434 96 434 96 373 c 2,44,-1
 96 315 l 1,45,-1
 26 315 l 1,46,-1
 26 373 l 1,47,-1
 26 373 l 1,0,1
EndSplineSet
EndChar

StartChar: rrvocalicmlm
Encoding: 3424 3424 87
Width: 876
GlyphClass: 2
Flags: W
LayerCount: 2
Fore
SplineSet
146 415 m 1,0,1
 146 374 146 374 170 345 c 128,-1,2
 194 316 194 316 228 316 c 128,-1,3
 262 316 262 316 285.5 347 c 128,-1,4
 309 378 309 378 309 421 c 0,5,6
 309 460 309 460 285.5 487.5 c 128,-1,7
 262 515 262 515 228 515 c 128,-1,8
 194 515 194 515 170 485.5 c 128,-1,9
 146 456 146 456 146 415 c 1,10,-1
 146 415 l 1,0,1
560 415 m 1,11,12
 560 374 560 374 584 345 c 128,-1,13
 608 316 608 316 642 316 c 0,14,15
 683 316 683 316 712.5 347 c 128,-1,16
 742 378 742 378 742 421 c 0,17,18
 742 460 742 460 715 487.5 c 128,-1,19
 688 515 688 515 649 515 c 0,20,21
 612 515 612 515 586 485.5 c 128,-1,22
 560 456 560 456 560 415 c 1,23,-1
 560 415 l 1,11,12
40 328 m 1,24,25
 40 434 40 434 95 509.5 c 128,-1,26
 150 585 150 585 228 585 c 0,27,28
 288 585 288 585 331 534 c 128,-1,29
 374 483 374 483 374 411 c 0,30,31
 374 345 374 345 330.5 298.5 c 128,-1,32
 287 252 287 252 226 252 c 0,33,34
 186 252 186 252 152.5 275.5 c 128,-1,35
 119 299 119 299 105 338 c 1,36,37
 96 240 96 240 154 167 c 128,-1,38
 212 94 212 94 298 94 c 2,39,-1
 549 94 l 2,40,41
 647 94 647 94 713 165.5 c 128,-1,42
 779 237 779 237 771 333 c 1,43,44
 758 297 758 297 724.5 274.5 c 128,-1,45
 691 252 691 252 650 252 c 0,46,47
 587 252 587 252 542 300 c 128,-1,48
 497 348 497 348 497 416 c 0,49,50
 497 486 497 486 541.5 535.5 c 128,-1,51
 586 585 586 585 649 585 c 0,52,53
 726 585 726 585 781 506 c 128,-1,54
 836 427 836 427 836 316 c 0,55,56
 836 230 836 230 791.5 158.5 c 128,-1,57
 747 87 747 87 672 52 c 1,58,59
 716 27 716 27 741 -15 c 128,-1,60
 766 -57 766 -57 766 -105 c 0,61,62
 766 -192 766 -192 697.5 -254 c 128,-1,63
 629 -316 629 -316 532 -316 c 2,64,-1
 345 -316 l 2,65,66
 248 -316 248 -316 179.5 -254 c 128,-1,67
 111 -192 111 -192 111 -105 c 0,68,69
 111 -66 111 -66 137 -25.5 c 128,-1,70
 163 15 163 15 209 47 c 1,71,72
 132 83 132 83 86 159 c 128,-1,73
 40 235 40 235 40 328 c 1,74,-1
 40 328 l 1,24,25
181 -105 m 1,75,76
 181 -163 181 -163 229 -204.5 c 128,-1,77
 277 -246 277 -246 345 -246 c 2,78,-1
 532 -246 l 2,79,80
 600 -246 600 -246 648 -204.5 c 128,-1,81
 696 -163 696 -163 696 -105 c 0,82,83
 696 -52 696 -52 648 -14.5 c 128,-1,84
 600 23 600 23 532 23 c 2,85,-1
 345 23 l 2,86,87
 277 23 277 23 229 -14.5 c 128,-1,88
 181 -52 181 -52 181 -105 c 1,89,-1
 181 -105 l 1,75,76
333 -156 m 1,90,91
 311 -156 311 -156 296 -141 c 128,-1,92
 281 -126 281 -126 281 -104 c 128,-1,93
 281 -82 281 -82 296 -66.5 c 128,-1,94
 311 -51 311 -51 333 -51 c 128,-1,95
 355 -51 355 -51 370.5 -66.5 c 128,-1,96
 386 -82 386 -82 386 -104 c 128,-1,97
 386 -126 386 -126 370.5 -141 c 128,-1,98
 355 -156 355 -156 333 -156 c 1,99,-1
 333 -156 l 1,90,91
534 -156 m 1,100,101
 512 -156 512 -156 497 -141 c 128,-1,102
 482 -126 482 -126 482 -104 c 128,-1,103
 482 -82 482 -82 497 -66.5 c 128,-1,104
 512 -51 512 -51 534 -51 c 128,-1,105
 556 -51 556 -51 572 -66.5 c 128,-1,106
 588 -82 588 -82 588 -104 c 128,-1,107
 588 -126 588 -126 572 -141 c 128,-1,108
 556 -156 556 -156 534 -156 c 1,109,-1
 534 -156 l 1,100,101
EndSplineSet
EndChar

StartChar: llvocalicmlm
Encoding: 3425 3425 88
Width: 1283
GlyphClass: 2
Flags: W
LayerCount: 2
Fore
SplineSet
134 176 m 1,0,1
 134 132 134 132 161.5 101 c 128,-1,2
 189 70 189 70 228 70 c 128,-1,3
 267 70 267 70 294 101 c 128,-1,4
 321 132 321 132 321 176 c 0,5,6
 321 219 321 219 294 250 c 128,-1,7
 267 281 267 281 228 281 c 128,-1,8
 189 281 189 281 161.5 250 c 128,-1,9
 134 219 134 219 134 176 c 1,10,-1
 134 176 l 1,0,1
766 211 m 1,11,12
 766 153 766 153 790 111.5 c 128,-1,13
 814 70 814 70 848 70 c 128,-1,14
 882 70 882 70 906 111.5 c 128,-1,15
 930 153 930 153 930 211 c 0,16,17
 930 271 930 271 909 328.5 c 128,-1,18
 888 386 888 386 848 433 c 1,19,20
 808 386 808 386 787 328.5 c 128,-1,21
 766 271 766 271 766 211 c 1,22,-1
 766 211 l 1,11,12
40 246 m 1,23,24
 40 386 40 386 126 485.5 c 128,-1,25
 212 585 212 585 333 585 c 0,26,27
 400 585 400 585 456.5 555 c 128,-1,28
 513 525 513 525 543 473 c 1,29,30
 573 525 573 525 621.5 555 c 128,-1,31
 670 585 670 585 724 585 c 0,32,33
 758 585 758 585 791.5 570 c 128,-1,34
 825 555 825 555 853 527 c 1,35,36
 881 555 881 555 916 570 c 128,-1,37
 951 585 951 585 988 585 c 0,38,39
 1090 585 1090 585 1162.5 490.5 c 128,-1,40
 1235 396 1235 396 1235 263 c 0,41,42
 1235 73 1235 73 1123 -61 c 128,-1,43
 1011 -195 1011 -195 852 -195 c 0,44,45
 807 -195 807 -195 758.5 -180 c 128,-1,46
 710 -165 710 -165 663 -137 c 1,47,-1
 696 -78 l 1,48,49
 730 -103 730 -103 770 -116 c 128,-1,50
 810 -129 810 -129 852 -129 c 0,51,52
 982 -129 982 -129 1073.5 -14 c 128,-1,53
 1165 101 1165 101 1165 263 c 0,54,55
 1165 367 1165 367 1114.5 441 c 128,-1,56
 1064 515 1064 515 993 515 c 0,57,58
 960 515 960 515 934 506 c 128,-1,59
 908 497 908 497 894 480 c 1,60,61
 945 419 945 419 972.5 349.5 c 128,-1,62
 1000 280 1000 280 1000 211 c 0,63,64
 1000 124 1000 124 955.5 62 c 128,-1,65
 911 0 911 0 848 0 c 128,-1,66
 785 0 785 0 740.5 62 c 128,-1,67
 696 124 696 124 696 211 c 0,68,69
 696 277 696 277 723 344.5 c 128,-1,70
 750 412 750 412 801 473 c 1,71,72
 790 492 790 492 769 503.5 c 128,-1,73
 748 515 748 515 724 515 c 0,74,75
 664 515 664 515 621.5 467 c 128,-1,76
 579 419 579 419 579 351 c 2,77,-1
 579 0 l 1,78,-1
 508 0 l 1,79,-1
 508 351 l 2,80,81
 508 419 508 419 456.5 467 c 128,-1,82
 405 515 405 515 333 515 c 0,83,84
 241 515 241 515 176 446.5 c 128,-1,85
 111 378 111 378 111 281 c 1,86,87
 130 313 130 313 161 332 c 128,-1,88
 192 351 192 351 228 351 c 0,89,90
 296 351 296 351 343.5 299.5 c 128,-1,91
 391 248 391 248 391 176 c 0,92,93
 391 103 391 103 343.5 51.5 c 128,-1,94
 296 0 296 0 228 0 c 0,95,96
 150 0 150 0 95 72 c 128,-1,97
 40 144 40 144 40 246 c 1,98,-1
 40 246 l 1,23,24
EndSplineSet
EndChar

StartChar: lvocalicvowelmlm
Encoding: 3426 3426 89
Width: 0
GlyphClass: 2
Flags: W
LayerCount: 2
Fore
SplineSet
-624 -337 m 256,0,1
 -624 -359 -624 -359 -610 -374.5 c 128,-1,2
 -596 -390 -596 -390 -576.5 -390 c 128,-1,3
 -557 -390 -557 -390 -543.5 -374.5 c 128,-1,4
 -530 -359 -530 -359 -530 -337 c 256,5,6
 -530 -315 -530 -315 -543.5 -299.5 c 128,-1,7
 -557 -284 -557 -284 -576.5 -284 c 128,-1,8
 -596 -284 -596 -284 -610 -299.5 c 128,-1,9
 -624 -315 -624 -315 -624 -337 c 256,0,1
-183 -315 m 0,10,11
 -183 -344 -183 -344 -171 -365 c 128,-1,12
 -159 -386 -159 -386 -141.5 -386 c 128,-1,13
 -124 -386 -124 -386 -109 -362 c 0,14,15
 -92 -335 -92 -335 -93 -308 c 0,16,17
 -95 -171 -95 -171 -122 -171 c 1,18,19
 -143 -195 -143 -195 -163 -240 c 128,-1,20
 -183 -285 -183 -285 -183 -315 c 0,10,11
-229 -34 m 0,21,22
 -10 -36 -10 -36 -29 -312 c 0,23,24
 -34 -379 -34 -379 -64 -416 c 1,25,26
 -98 -460 -98 -460 -142 -460 c 128,-1,27
 -186 -460 -186 -460 -217.5 -416.5 c 128,-1,28
 -249 -373 -249 -373 -249 -312 c 0,29,30
 -249 -266 -249 -266 -230 -219.5 c 128,-1,31
 -211 -173 -211 -173 -175 -131 c 1,32,33
 -183 -117 -183 -117 -197.5 -109 c 128,-1,34
 -212 -101 -212 -101 -229 -101 c 0,35,36
 -271 -101 -271 -101 -298.5 -134.5 c 128,-1,37
 -326 -168 -326 -168 -326 -214 c 2,38,-1
 -326 -460 l 1,39,-1
 -388 -460 l 1,40,-1
 -388 -214 l 2,41,42
 -388 -166 -388 -166 -420 -132.5 c 128,-1,43
 -452 -99 -452 -99 -503 -99 c 0,44,45
 -567 -99 -567 -99 -612.5 -147 c 128,-1,46
 -658 -195 -658 -195 -658 -263 c 1,47,48
 -645 -241 -645 -241 -623.5 -227.5 c 128,-1,49
 -602 -214 -602 -214 -576 -214 c 0,50,51
 -529 -214 -529 -214 -495.5 -250 c 128,-1,52
 -462 -286 -462 -286 -462 -336 c 0,53,54
 -462 -388 -462 -388 -495.5 -424 c 128,-1,55
 -529 -460 -529 -460 -576.5 -460 c 128,-1,56
 -624 -460 -624 -460 -672 -408 c 0,57,58
 -724 -353 -724 -353 -719 -286 c 0,59,60
 -703 -45 -703 -45 -509 -37 c 1,61,62
 -395 -37 -395 -37 -356 -108 c 1,63,64
 -311 -33 -311 -33 -229 -34 c 0,21,22
EndSplineSet
EndChar

StartChar: llvocalicvowelmlm
Encoding: 3427 3427 90
Width: 0
GlyphClass: 2
Flags: W
LayerCount: 2
Fore
SplineSet
-782 -337 m 0,0,1
 -782 -359 -782 -359 -768.5 -375 c 128,-1,2
 -755 -391 -755 -391 -735 -391 c 128,-1,3
 -715 -391 -715 -391 -701.5 -375 c 128,-1,4
 -688 -359 -688 -359 -688 -337 c 0,5,6
 -688 -316 -688 -316 -701.5 -300 c 128,-1,7
 -715 -284 -715 -284 -735 -284 c 128,-1,8
 -755 -284 -755 -284 -768.5 -300 c 128,-1,9
 -782 -316 -782 -316 -782 -337 c 0,0,1
-342 -305 m 0,10,11
 -342 -334 -342 -334 -330 -355 c 128,-1,12
 -318 -376 -318 -376 -301 -376 c 128,-1,13
 -284 -376 -284 -376 -271.5 -355 c 128,-1,14
 -259 -334 -259 -334 -259 -305 c 0,15,16
 -259 -275 -259 -275 -270 -246 c 128,-1,17
 -281 -217 -281 -217 -301 -193 c 1,18,19
 -321 -217 -321 -217 -331.5 -246 c 128,-1,20
 -342 -275 -342 -275 -342 -305 c 0,10,11
-883 -288 m 0,21,22
 -883 -172 -883 -172 -830 -120 c 0,23,24
 -746 -38 -746 -38 -667 -37 c 1,25,26
 -554 -37 -554 -37 -514 -108 c 1,27,28
 -469 -34 -469 -34 -388 -35 c 0,29,30
 -345 -35 -345 -35 -297 -78 c 1,31,32
 -263 -35 -263 -35 -204 -35 c 0,33,34
 -123 -35 -123 -35 -72 -109 c 128,-1,35
 -21 -183 -21 -183 -21 -276 c 0,36,37
 -21 -422 -21 -422 -102 -515 c 0,38,39
 -185 -609 -185 -609 -296 -609 c 0,40,41
 -327 -609 -327 -609 -362 -592.5 c 128,-1,42
 -397 -576 -397 -576 -430 -556 c 1,43,-1
 -407 -515 l 1,44,45
 -383 -533 -383 -533 -355 -542 c 128,-1,46
 -327 -551 -327 -551 -298 -551 c 0,47,48
 -207 -551 -207 -551 -143 -470.5 c 128,-1,49
 -79 -390 -79 -390 -79 -276 c 0,50,51
 -79 -204 -79 -204 -114.5 -153 c 128,-1,52
 -150 -102 -150 -102 -199 -102 c 0,53,54
 -222 -102 -222 -102 -240.5 -108 c 128,-1,55
 -259 -114 -259 -114 -269 -126 c 1,56,57
 -233 -169 -233 -169 -213.5 -216.5 c 128,-1,58
 -194 -264 -194 -264 -194 -313 c 0,59,60
 -194 -374 -194 -374 -225.5 -417 c 128,-1,61
 -257 -460 -257 -460 -301 -460 c 128,-1,62
 -345 -460 -345 -460 -376 -417 c 128,-1,63
 -407 -374 -407 -374 -407 -313 c 0,64,65
 -407 -266 -407 -266 -388 -220 c 128,-1,66
 -369 -174 -369 -174 -334 -131 c 1,67,68
 -341 -118 -341 -118 -356 -110 c 128,-1,69
 -371 -102 -371 -102 -388 -102 c 0,70,71
 -430 -102 -430 -102 -457 -135.5 c 128,-1,72
 -484 -169 -484 -169 -484 -215 c 2,73,-1
 -484 -460 l 1,74,-1
 -547 -460 l 1,75,-1
 -547 -215 l 2,76,77
 -547 -167 -547 -167 -579 -133.5 c 128,-1,78
 -611 -100 -611 -100 -661 -100 c 0,79,80
 -726 -100 -726 -100 -771.5 -148 c 128,-1,81
 -817 -196 -817 -196 -817 -264 c 1,82,83
 -803 -241 -803 -241 -781.5 -228 c 128,-1,84
 -760 -215 -760 -215 -735 -215 c 0,85,86
 -687 -215 -687 -215 -654 -251 c 128,-1,87
 -621 -287 -621 -287 -621 -337 c 0,88,89
 -621 -388 -621 -388 -654 -424 c 128,-1,90
 -687 -460 -687 -460 -735 -460 c 0,91,92
 -789 -460 -789 -460 -836 -410 c 128,-1,93
 -883 -360 -883 -360 -883 -288 c 0,21,22
EndSplineSet
EndChar

StartChar: zeromlm
Encoding: 3430 3430 91
Width: 844
GlyphClass: 2
Flags: W
LayerCount: 2
Fore
SplineSet
436 102 m 1,0,1
 341 102 341 102 273 156.5 c 128,-1,2
 205 211 205 211 205 287 c 256,3,4
 205 363 205 363 273 417.5 c 128,-1,5
 341 472 341 472 436 472 c 256,6,7
 531 472 531 472 599 417.5 c 128,-1,8
 667 363 667 363 667 287 c 256,9,10
 667 211 667 211 599 156.5 c 128,-1,11
 531 102 531 102 436 102 c 1,12,-1
 436 102 l 1,0,1
436 155 m 1,13,14
 504 155 504 155 552.5 193.5 c 128,-1,15
 601 232 601 232 601 287 c 256,16,17
 601 342 601 342 552.5 380.5 c 128,-1,18
 504 419 504 419 436 419 c 0,19,20
 367 419 367 419 319 380.5 c 128,-1,21
 271 342 271 342 271 287 c 256,22,23
 271 232 271 232 319 193.5 c 128,-1,24
 367 155 367 155 436 155 c 1,25,-1
 436 155 l 1,13,14
EndSplineSet
EndChar

StartChar: onemlm
Encoding: 3431 3431 92
Width: 878
GlyphClass: 2
Flags: W
LayerCount: 2
Fore
SplineSet
348 328 m 1,0,1
 348 434 348 434 416.5 509.5 c 128,-1,2
 485 585 485 585 582 585 c 0,3,4
 680 585 680 585 748 509.5 c 128,-1,5
 816 434 816 434 816 328 c 2,6,-1
 816 0 l 1,7,-1
 108 0 l 2,8,9
 92 0 92 0 82 -10.5 c 128,-1,10
 72 -21 72 -21 72 -36 c 0,11,12
 72 -52 72 -52 82 -63 c 128,-1,13
 92 -74 92 -74 108 -74 c 2,14,-1
 374 -74 l 1,15,-1
 374 -146 l 1,16,-1
 108 -146 l 2,17,18
 64 -146 64 -146 32 -114 c 128,-1,19
 0 -82 0 -82 0 -38 c 256,20,21
 0 6 0 6 32 38 c 128,-1,22
 64 70 64 70 108 70 c 2,23,-1
 348 70 l 1,24,-1
 348 328 l 1,25,-1
 348 328 l 1,0,1
419 70 m 1,26,-1
 746 70 l 1,27,-1
 746 328 l 2,28,29
 746 406 746 406 698 460.5 c 128,-1,30
 650 515 650 515 582 515 c 0,31,32
 515 515 515 515 467 460.5 c 128,-1,33
 419 406 419 406 419 328 c 2,34,-1
 419 70 l 1,35,-1
 419 70 l 1,26,-1
EndSplineSet
EndChar

StartChar: twomlm
Encoding: 3432 3432 93
Width: 902
GlyphClass: 2
Flags: W
LayerCount: 2
Fore
SplineSet
39 281 m 1,0,1
 39 407 39 407 125 496 c 128,-1,2
 211 585 211 585 332 585 c 0,3,4
 452 585 452 585 538 496 c 128,-1,5
 624 407 624 407 624 281 c 0,6,7
 624 226 624 226 602.5 172 c 128,-1,8
 581 118 581 118 541 70 c 1,9,-1
 893 70 l 1,10,-1
 892 0 l 1,11,-1
 448 0 l 1,12,-1
 448 70 l 1,13,14
 499 112 499 112 526.5 167 c 128,-1,15
 554 222 554 222 554 281 c 0,16,17
 554 378 554 378 489 446.5 c 128,-1,18
 424 515 424 515 332 515 c 0,19,20
 239 515 239 515 174 446.5 c 128,-1,21
 109 378 109 378 109 281 c 0,22,23
 109 205 109 205 150.5 144 c 128,-1,24
 192 83 192 83 261 58 c 1,25,-1
 243 0 l 1,26,27
 155 16 155 16 97 95 c 128,-1,28
 39 174 39 174 39 281 c 1,29,-1
 39 281 l 1,0,1
EndSplineSet
EndChar

StartChar: threemlm
Encoding: 3433 3433 94
Width: 1017
GlyphClass: 2
Flags: W
LayerCount: 2
Fore
SplineSet
42 281 m 1,0,1
 42 407 42 407 112 496 c 128,-1,2
 182 585 182 585 282 585 c 0,3,4
 334 585 334 585 380 553 c 128,-1,5
 426 521 426 521 451 468 c 1,6,7
 476 521 476 521 523.5 553 c 128,-1,8
 571 585 571 585 627 585 c 0,9,10
 724 585 724 585 792.5 496 c 128,-1,11
 861 407 861 407 861 281 c 2,12,-1
 861 72 l 1,13,-1
 1008 72 l 1,14,-1
 1008 0 l 1,15,-1
 790 0 l 1,16,-1
 790 281 l 2,17,18
 790 378 790 378 742 446.5 c 128,-1,19
 694 515 694 515 627 515 c 0,20,21
 568 515 568 515 527 460.5 c 128,-1,22
 486 406 486 406 486 328 c 2,23,-1
 486 0 l 1,24,-1
 416 0 l 1,25,-1
 416 328 l 2,26,27
 416 406 416 406 377 460.5 c 128,-1,28
 338 515 338 515 282 515 c 0,29,30
 212 515 212 515 162 446.5 c 128,-1,31
 112 378 112 378 112 281 c 0,32,33
 112 209 112 209 146.5 148 c 128,-1,34
 181 87 181 87 240 52 c 1,35,-1
 194 0 l 1,36,37
 124 40 124 40 83 115.5 c 128,-1,38
 42 191 42 191 42 281 c 1,39,-1
 42 281 l 1,0,1
EndSplineSet
EndChar

StartChar: fourmlm
Encoding: 3434 3434 95
Width: 647
GlyphClass: 2
Flags: W
LayerCount: 2
Fore
SplineSet
335 234 m 1,0,1
 335 166 335 166 362.5 118 c 128,-1,2
 390 70 390 70 429 70 c 0,3,4
 473 70 473 70 503.5 124.5 c 128,-1,5
 534 179 534 179 534 257 c 0,6,7
 534 338 534 338 506 400.5 c 128,-1,8
 478 463 478 463 429 491 c 1,9,10
 384 437 384 437 359.5 370.5 c 128,-1,11
 335 304 335 304 335 234 c 1,12,-1
 335 234 l 1,0,1
43 263 m 1,13,14
 43 396 43 396 125.5 490.5 c 128,-1,15
 208 585 208 585 324 585 c 0,16,17
 343 585 343 585 360.5 581.5 c 128,-1,18
 378 578 378 578 394 573 c 1,19,20
 399 589 399 589 402.5 606 c 128,-1,21
 406 623 406 623 406 641 c 0,22,23
 406 685 406 685 378.5 717 c 128,-1,24
 351 749 351 749 312 749 c 2,25,-1
 188 749 l 1,26,-1
 188 819 l 1,27,-1
 312 819 l 2,28,29
 380 819 380 819 428 766.5 c 128,-1,30
 476 714 476 714 476 640 c 0,31,32
 476 620 476 620 471.5 598 c 128,-1,33
 467 576 467 576 458 551 c 1,34,35
 525 512 525 512 564.5 433.5 c 128,-1,36
 604 355 604 355 604 257 c 0,37,38
 604 151 604 151 553 75.5 c 128,-1,39
 502 0 502 0 429 0 c 0,40,41
 361 0 361 0 313 68 c 128,-1,42
 265 136 265 136 265 234 c 0,43,44
 265 313 265 313 290.5 385.5 c 128,-1,45
 316 458 316 458 364 515 c 1,46,47
 269 541 269 541 191 462.5 c 128,-1,48
 113 384 113 384 113 263 c 0,49,50
 113 198 113 198 134.5 144.5 c 128,-1,51
 156 91 156 91 195 58 c 1,52,-1
 160 0 l 1,53,54
 105 31 105 31 74 101.5 c 128,-1,55
 43 172 43 172 43 263 c 1,56,-1
 43 263 l 1,13,14
EndSplineSet
EndChar

StartChar: fivemlm
Encoding: 3435 3435 96
Width: 964
GlyphClass: 2
Flags: W
LayerCount: 2
Fore
SplineSet
251 302 m 1,0,1
 251 419 251 419 329 502 c 128,-1,2
 407 585 407 585 516 585 c 0,3,4
 604 585 604 585 666.5 530.5 c 128,-1,5
 729 476 729 476 729 398 c 0,6,7
 729 365 729 365 713.5 334.5 c 128,-1,8
 698 304 698 304 671 281 c 1,9,10
 703 263 703 263 722 224.5 c 128,-1,11
 741 186 741 186 741 138 c 0,12,13
 741 51 741 51 668 -10.5 c 128,-1,14
 595 -72 595 -72 491 -72 c 0,15,16
 307 -72 307 -72 176.5 63 c 128,-1,17
 46 198 46 198 46 389 c 0,18,19
 46 582 46 582 173 719.5 c 128,-1,20
 300 857 300 857 481 857 c 256,21,22
 662 857 662 857 789 719.5 c 128,-1,23
 916 582 916 582 916 389 c 0,24,25
 916 306 916 306 891.5 223 c 128,-1,26
 867 140 867 140 819 64 c 1,27,-1
 760 103 l 1,28,29
 802 160 802 160 823.5 233 c 128,-1,30
 845 306 845 306 845 389 c 0,31,32
 845 552 845 552 738.5 668.5 c 128,-1,33
 632 785 632 785 481 785 c 256,34,35
 330 785 330 785 223.5 670 c 128,-1,36
 117 555 117 555 117 391 c 0,37,38
 117 229 117 229 227 114 c 128,-1,39
 337 -1 337 -1 491 -1 c 0,40,41
 566 -1 566 -1 618.5 40 c 128,-1,42
 671 81 671 81 671 138 c 0,43,44
 671 182 671 182 647 214 c 128,-1,45
 623 246 623 246 589 246 c 2,46,-1
 413 246 l 1,47,-1
 413 316 l 1,48,-1
 589 316 l 2,49,50
 618 316 618 316 638.5 340 c 128,-1,51
 659 364 659 364 659 398 c 0,52,53
 659 446 659 446 617.5 480.5 c 128,-1,54
 576 515 576 515 516 515 c 0,55,56
 436 515 436 515 378.5 452.5 c 128,-1,57
 321 390 321 390 321 302 c 0,58,59
 321 248 321 248 332.5 206 c 128,-1,60
 344 164 344 164 367 138 c 1,61,-1
 313 91 l 1,62,63
 283 127 283 127 267 181 c 128,-1,64
 251 235 251 235 251 302 c 1,65,-1
 251 302 l 1,0,1
EndSplineSet
EndChar

StartChar: sixmlm
Encoding: 3436 3436 97
Width: 1339
GlyphClass: 2
Flags: W
LayerCount: 2
Fore
SplineSet
43 269 m 1,0,1
 43 400 43 400 118.5 492.5 c 128,-1,2
 194 585 194 585 300 585 c 0,3,4
 359 585 359 585 409 557 c 128,-1,5
 459 529 459 529 488 480 c 1,6,7
 516 529 516 529 563 557 c 128,-1,8
 610 585 610 585 663 585 c 256,9,10
 716 585 716 585 763 557 c 128,-1,11
 810 529 810 529 838 480 c 1,12,13
 867 529 867 529 917 557 c 128,-1,14
 967 585 967 585 1026 585 c 0,15,16
 1132 585 1132 585 1207.5 492.5 c 128,-1,17
 1283 400 1283 400 1283 269 c 2,18,-1
 1283 146 l 2,19,20
 1283 -52 1283 -52 1102.5 -192 c 128,-1,21
 922 -332 922 -332 667 -332 c 1,22,-1
 667 -259 l 1,23,24
 893 -259 893 -259 1053 -142.5 c 128,-1,25
 1213 -26 1213 -26 1213 139 c 2,26,-1
 1213 269 l 2,27,28
 1213 370 1213 370 1158.5 442.5 c 128,-1,29
 1104 515 1104 515 1026 515 c 0,30,31
 963 515 963 515 918.5 460.5 c 128,-1,32
 874 406 874 406 874 328 c 2,33,-1
 874 0 l 1,34,-1
 803 0 l 1,35,-1
 803 328 l 2,36,37
 803 406 803 406 762.5 460.5 c 128,-1,38
 722 515 722 515 663 515 c 256,39,40
 604 515 604 515 563.5 460.5 c 128,-1,41
 523 406 523 406 523 328 c 2,42,-1
 523 0 l 1,43,-1
 452 0 l 1,44,-1
 452 328 l 2,45,46
 452 406 452 406 407.5 460.5 c 128,-1,47
 363 515 363 515 300 515 c 0,48,49
 222 515 222 515 167.5 442.5 c 128,-1,50
 113 370 113 370 113 269 c 0,51,52
 113 194 113 194 139.5 135.5 c 128,-1,53
 166 77 166 77 213 49 c 1,54,-1
 187 -12 l 1,55,56
 121 20 121 20 82 96 c 128,-1,57
 43 172 43 172 43 269 c 1,58,-1
 43 269 l 1,0,1
EndSplineSet
EndChar

StartChar: sevenmlm
Encoding: 3437 3437 98
Width: 549
GlyphClass: 2
Flags: W
LayerCount: 2
Fore
SplineSet
512 292 m 1,0,1
 512 172 512 172 429.5 86 c 128,-1,2
 347 0 347 0 231 0 c 0,3,4
 160 0 160 0 105.5 34 c 128,-1,5
 51 68 51 68 36 121 c 1,6,-1
 95 152 l 1,7,8
 105 116 105 116 143 92.5 c 128,-1,9
 181 69 181 69 231 69 c 0,10,11
 318 69 318 69 380 134.5 c 128,-1,12
 442 200 442 200 442 292 c 0,13,14
 442 380 442 380 398.5 441 c 128,-1,15
 355 502 355 502 292 502 c 1,16,17
 300 490 300 490 304.5 472.5 c 128,-1,18
 309 455 309 455 309 433 c 0,19,20
 309 377 309 377 269 336.5 c 128,-1,21
 229 296 229 296 173 296 c 256,22,23
 117 296 117 296 76.5 336.5 c 128,-1,24
 36 377 36 377 36 433 c 0,25,26
 36 495 36 495 76.5 540 c 128,-1,27
 117 585 117 585 173 585 c 2,28,-1
 231 585 l 2,29,30
 347 585 347 585 429.5 499 c 128,-1,31
 512 413 512 413 512 292 c 1,32,-1
 512 292 l 1,0,1
237 433 m 1,33,34
 237 462 237 462 218 482.5 c 128,-1,35
 199 503 199 503 173 503 c 0,36,37
 146 503 146 503 127 482.5 c 128,-1,38
 108 462 108 462 108 433 c 0,39,40
 108 406 108 406 127 387 c 128,-1,41
 146 368 146 368 173 368 c 0,42,43
 199 368 199 368 218 387 c 128,-1,44
 237 406 237 406 237 433 c 1,45,-1
 237 433 l 1,33,34
EndSplineSet
EndChar

StartChar: eightmlm
Encoding: 3438 3438 99
Width: 1041
GlyphClass: 2
Flags: W
LayerCount: 2
Fore
SplineSet
39 281 m 1,0,1
 39 407 39 407 125 496 c 128,-1,2
 211 585 211 585 332 585 c 0,3,4
 452 585 452 585 538 496 c 128,-1,5
 624 407 624 407 624 281 c 0,6,7
 624 224 624 224 604.5 169 c 128,-1,8
 585 114 585 114 547 70 c 1,9,-1
 893 70 l 1,10,-1
 893 585 l 1,11,-1
 963 585 l 1,12,-1
 963 0 l 2,13,14
 963 -129 963 -129 850.5 -220.5 c 128,-1,15
 738 -312 738 -312 580 -312 c 1,16,-1
 580 -240 l 1,17,18
 708 -240 708 -240 800 -170 c 128,-1,19
 892 -100 892 -100 892 0 c 1,20,-1
 448 0 l 1,21,-1
 448 70 l 1,22,23
 499 112 499 112 526.5 167 c 128,-1,24
 554 222 554 222 554 281 c 0,25,26
 554 378 554 378 489 446.5 c 128,-1,27
 424 515 424 515 332 515 c 0,28,29
 239 515 239 515 174 446.5 c 128,-1,30
 109 378 109 378 109 281 c 0,31,32
 109 205 109 205 150.5 144 c 128,-1,33
 192 83 192 83 261 58 c 1,34,-1
 243 0 l 1,35,36
 155 16 155 16 97 95 c 128,-1,37
 39 174 39 174 39 281 c 1,38,-1
 39 281 l 1,0,1
EndSplineSet
EndChar

StartChar: ninemlm
Encoding: 3439 3439 100
Width: 959
GlyphClass: 2
Flags: W
LayerCount: 2
Fore
SplineSet
638 226 m 1,0,1
 638 161 638 161 665.5 115.5 c 128,-1,2
 693 70 693 70 732 70 c 0,3,4
 780 70 780 70 814.5 124.5 c 128,-1,5
 849 179 849 179 849 257 c 0,6,7
 849 330 849 330 819 390 c 128,-1,8
 789 450 789 450 737 480 c 1,9,10
 689 422 689 422 663.5 357 c 128,-1,11
 638 292 638 292 638 226 c 1,12,-1
 638 226 l 1,0,1
42 292 m 1,13,14
 42 413 42 413 107 499 c 128,-1,15
 172 585 172 585 264 585 c 0,16,17
 312 585 312 585 355.5 557 c 128,-1,18
 399 529 399 529 428 480 c 1,19,20
 463 530 463 530 515 559 c 128,-1,21
 567 588 567 588 623 588 c 0,22,23
 647 588 647 588 668.5 582.5 c 128,-1,24
 690 577 690 577 708 567 c 1,25,26
 716 581 716 581 720.5 596 c 128,-1,27
 725 611 725 611 725 625 c 0,28,29
 725 676 725 676 692.5 712.5 c 128,-1,30
 660 749 660 749 615 749 c 2,31,-1
 486 749 l 1,32,-1
 486 819 l 1,33,-1
 615 819 l 2,34,35
 690 819 690 819 743 762.5 c 128,-1,36
 796 706 796 706 796 625 c 0,37,38
 796 603 796 603 788.5 580.5 c 128,-1,39
 781 558 781 558 767 538 c 1,40,41
 837 498 837 498 878 422.5 c 128,-1,42
 919 347 919 347 919 257 c 0,43,44
 919 151 919 151 864.5 75.5 c 128,-1,45
 810 0 810 0 732 0 c 0,46,47
 664 0 664 0 616 67.5 c 128,-1,48
 568 135 568 135 568 231 c 0,49,50
 568 304 568 304 595.5 375.5 c 128,-1,51
 623 447 623 447 673 508 c 1,52,53
 660 512 660 512 648 514.5 c 128,-1,54
 636 517 636 517 623 517 c 0,55,56
 556 517 556 517 509.5 468.5 c 128,-1,57
 463 420 463 420 463 351 c 2,58,-1
 463 0 l 1,59,-1
 393 0 l 1,60,-1
 393 351 l 2,61,62
 393 419 393 419 355 467 c 128,-1,63
 317 515 317 515 264 515 c 0,64,65
 202 515 202 515 157 450 c 128,-1,66
 112 385 112 385 112 292 c 0,67,68
 112 221 112 221 146.5 160 c 128,-1,69
 181 99 181 99 240 64 c 1,70,-1
 205 0 l 1,71,72
 130 44 130 44 86 122 c 128,-1,73
 42 200 42 200 42 292 c 1,74,-1
 42 292 l 1,13,14
EndSplineSet
EndChar

StartChar: tenmlm
Encoding: 3440 3440 101
Width: 1104
GlyphClass: 2
Flags: W
LayerCount: 2
Fore
SplineSet
244 224 m 1,0,1
 256 291 256 291 256 304 c 2,2,-1
 256 580 l 1,3,-1
 327 585 l 1,4,-1
 327 304 l 2,5,6
 327 207 327 207 375 138.5 c 128,-1,7
 423 70 423 70 490 70 c 0,8,9
 549 70 549 70 590 124.5 c 128,-1,10
 631 179 631 179 631 257 c 2,11,-1
 631 585 l 1,12,-1
 701 585 l 1,13,-1
 701 257 l 2,14,15
 701 179 701 179 740 124.5 c 128,-1,16
 779 70 779 70 835 70 c 0,17,18
 905 70 905 70 955 138.5 c 128,-1,19
 1005 207 1005 207 1005 304 c 0,20,21
 1005 376 1005 376 970.5 437 c 128,-1,22
 936 498 936 498 877 533 c 1,23,-1
 923 585 l 1,24,25
 993 545 993 545 1034 469.5 c 128,-1,26
 1075 394 1075 394 1075 304 c 1,27,-1
 1075 304 l 1,28,29
 1075 178 1075 178 1005 89 c 128,-1,30
 935 0 935 0 835 0 c 0,31,32
 783 0 783 0 737 32 c 128,-1,33
 691 64 691 64 666 117 c 1,34,35
 640 62 640 62 594 32 c 0,36,37
 536 -5 536 -5 490 0 c 0,38,39
 318 18 318 18 284 140 c 1,40,41
 217 -96 217 -96 -25 -112 c 1,42,-1
 -24 -38 l 1,43,44
 165 -44 165 -44 244 224 c 1,0,1
EndSplineSet
EndChar

StartChar: onehundredmlm
Encoding: 3441 3441 102
Width: 1088
GlyphClass: 2
Flags: W
LayerCount: 2
Fore
SplineSet
864 200 m 1,0,1
 873 391 873 391 792 499 c 1,2,3
 728 586 728 586 627 585 c 0,4,5
 571 585 571 585 523.5 553 c 128,-1,6
 476 521 476 521 451 468 c 1,7,8
 426 521 426 521 380 553 c 128,-1,9
 334 585 334 585 282 585 c 0,10,11
 182 585 182 585 112 496 c 128,-1,12
 42 407 42 407 42 281 c 1,13,-1
 42 281 l 1,14,15
 42 191 42 191 83 115.5 c 128,-1,16
 124 40 124 40 194 0 c 1,17,-1
 240 52 l 1,18,19
 181 87 181 87 146.5 148 c 128,-1,20
 112 209 112 209 112 281 c 0,21,22
 112 378 112 378 162 446.5 c 128,-1,23
 212 515 212 515 282 515 c 0,24,25
 338 515 338 515 377 460.5 c 128,-1,26
 416 406 416 406 416 328 c 2,27,-1
 416 0 l 1,28,-1
 486 0 l 1,29,-1
 486 328 l 2,30,31
 486 406 486 406 527 460.5 c 128,-1,32
 568 515 568 515 627 515 c 0,33,34
 694 515 694 515 748 438 c 1,35,36
 799 363 799 363 793 203 c 1,37,38
 761 -39 761 -39 566 -120 c 0,39,40
 450 -168 450 -168 382 -116 c 1,41,-1
 373 -195 l 1,42,43
 494 -227 494 -227 576 -191 c 0,44,45
 829 -78 829 -78 864 200 c 1,0,1
EndSplineSet
EndChar

StartChar: onethousandmlm
Encoding: 3442 3442 103
Width: 1294
GlyphClass: 2
Flags: W
LayerCount: 2
Fore
SplineSet
1266 391 m 0,0,1
 1263 466 1263 466 1194 519 c 0,2,3
 978 686 978 686 985 303 c 1,4,-1
 867 291 l 1,5,6
 864 405 864 405 792 499 c 1,7,8
 728 586 728 586 627 585 c 0,9,10
 571 585 571 585 523.5 553 c 128,-1,11
 476 521 476 521 451 468 c 1,12,13
 426 521 426 521 380 553 c 128,-1,14
 334 585 334 585 282 585 c 0,15,16
 182 585 182 585 112 496 c 128,-1,17
 42 407 42 407 42 281 c 1,18,-1
 42 281 l 1,19,20
 42 191 42 191 83 115.5 c 128,-1,21
 124 40 124 40 194 0 c 1,22,-1
 240 52 l 1,23,24
 181 87 181 87 146.5 148 c 128,-1,25
 112 209 112 209 112 281 c 0,26,27
 112 378 112 378 162 446.5 c 128,-1,28
 212 515 212 515 282 515 c 0,29,30
 338 515 338 515 377 460.5 c 128,-1,31
 416 406 416 406 416 328 c 2,32,-1
 416 0 l 1,33,-1
 486 0 l 1,34,-1
 486 328 l 2,35,36
 486 406 486 406 527 460.5 c 128,-1,37
 568 515 568 515 627 515 c 0,38,39
 694 515 694 515 748 438 c 1,40,41
 798 364 798 364 796 285 c 1,42,43
 434 268 434 268 582 64 c 0,44,45
 629 0 629 0 710 -8 c 0,46,47
 842 -20 842 -20 864 219 c 1,48,49
 1272 244 1272 244 1266 391 c 0,0,1
1054 312 m 1,50,51
 1050 558 1050 558 1154 466 c 1,52,53
 1194 432 1194 432 1194 395 c 0,54,55
 1194 324 1194 324 1054 312 c 1,50,51
793 217 m 1,56,57
 778 58 778 58 710 63 c 1,58,59
 666 69 666 69 638 103 c 0,60,61
 551 212 551 212 793 217 c 1,56,57
EndSplineSet
EndChar

StartChar: onequartermlm
Encoding: 3443 3443 104
Width: 888
GlyphClass: 2
Flags: W
LayerCount: 2
Fore
SplineSet
155 153 m 1,0,1
 97 153 97 153 56 197.5 c 128,-1,2
 15 242 15 242 15 305 c 0,3,4
 15 392 15 392 73.5 454 c 128,-1,5
 132 516 132 516 214 516 c 2,6,-1
 860 516 l 1,7,-1
 860 446 l 1,8,-1
 226 446 l 2,9,10
 175 446 175 446 138.5 427 c 128,-1,11
 102 408 102 408 102 381 c 1,12,13
 114 385 114 385 127 387.5 c 128,-1,14
 140 390 140 390 154 390 c 0,15,16
 205 390 205 390 241.5 355 c 128,-1,17
 278 320 278 320 278 270 c 0,18,19
 278 222 278 222 242 187.5 c 128,-1,20
 206 153 206 153 155 153 c 1,21,-1
 155 153 l 1,0,1
155 212 m 1,22,23
 184 212 184 212 205 229 c 128,-1,24
 226 246 226 246 226 270 c 128,-1,25
 226 294 226 294 205 311.5 c 128,-1,26
 184 329 184 329 155 329 c 128,-1,27
 126 329 126 329 105.5 311.5 c 128,-1,28
 85 294 85 294 85 270 c 128,-1,29
 85 246 85 246 105.5 229 c 128,-1,30
 126 212 126 212 155 212 c 1,31,-1
 155 212 l 1,22,23
EndSplineSet
EndChar

StartChar: onehalfmlm
Encoding: 3444 3444 105
Width: 850
GlyphClass: 2
Flags: W
LayerCount: 2
Fore
SplineSet
125 164 m 1,0,1
 125 164 125 164 125 164 c 1,2,3
 125 205 125 205 152 234 c 128,-1,4
 179 263 179 263 218 263 c 128,-1,5
 257 263 257 263 284.5 234 c 128,-1,6
 312 205 312 205 312 164 c 0,7,8
 312 125 312 125 284.5 97.5 c 128,-1,9
 257 70 257 70 218 70 c 128,-1,10
 179 70 179 70 152 97.5 c 128,-1,11
 125 125 125 125 125 164 c 1,0,1
382 528 m 0,12,13
 539 526 539 526 574 510 c 1,14,15
 520 446 520 446 491.5 376.5 c 128,-1,16
 463 307 463 307 463 241 c 0,17,18
 463 142 463 142 516.5 72 c 128,-1,19
 570 2 570 2 646 2 c 0,20,21
 716 2 716 2 765 77.5 c 128,-1,22
 814 153 814 153 814 259 c 0,23,24
 814 347 814 347 777 423 c 128,-1,25
 740 499 740 499 674 545 c 1,26,27
 689 571 689 571 696.5 600 c 128,-1,28
 704 629 704 629 704 660 c 0,29,30
 704 727 704 727 652.5 774 c 128,-1,31
 601 821 601 821 528 821 c 0,32,33
 466 821 466 821 417 782 c 128,-1,34
 368 743 368 743 351 681 c 1,35,-1
 405 646 l 1,36,37
 422 693 422 693 456 722 c 128,-1,38
 490 751 490 751 528 751 c 0,39,40
 572 751 572 751 603.5 724.5 c 128,-1,41
 635 698 635 698 635 660 c 0,42,43
 635 636 635 636 630 613 c 128,-1,44
 625 590 625 590 615 569 c 1,45,46
 557 597 557 597 381 591 c 0,47,48
 31 578 31 578 43 257 c 1,49,-1
 43 257 l 1,50,51
 43 140 43 140 91 70 c 128,-1,52
 139 0 139 0 218 0 c 0,53,54
 286 0 286 0 334 48 c 128,-1,55
 382 96 382 96 382 164 c 0,56,57
 382 234 382 234 334 283.5 c 128,-1,58
 286 333 286 333 218 333 c 0,59,60
 180 333 180 333 151.5 317 c 128,-1,61
 123 301 123 301 113 274 c 1,62,63
 132 531 132 531 382 528 c 0,12,13
533 241 m 1,64,-1
 533 241 l 1,65,66
 533 302 533 302 560.5 367 c 128,-1,67
 588 432 588 432 639 493 c 1,68,69
 688 465 688 465 716 402 c 128,-1,70
 744 339 744 339 744 259 c 0,71,72
 744 182 744 182 715.5 127 c 128,-1,73
 687 72 687 72 646 72 c 0,74,75
 599 72 599 72 566 121.5 c 128,-1,76
 533 171 533 171 533 241 c 1,64,-1
EndSplineSet
EndChar

StartChar: threequartersmlm
Encoding: 3445 3445 106
Width: 1032
GlyphClass: 2
Flags: W
LayerCount: 2
Fore
SplineSet
125 164 m 1,0,1
 125 125 125 125 152 97.5 c 128,-1,2
 179 70 179 70 218 70 c 128,-1,3
 257 70 257 70 284.5 97.5 c 128,-1,4
 312 125 312 125 312 164 c 0,5,6
 312 205 312 205 284.5 234 c 128,-1,7
 257 263 257 263 218 263 c 128,-1,8
 179 263 179 263 152 234 c 128,-1,9
 125 205 125 205 125 164 c 1,10,-1
 125 164 l 1,0,1
705 518 m 0,11,12
 646 515 646 515 607.5 467 c 128,-1,13
 569 419 569 419 569 351 c 2,14,-1
 569 0 l 1,15,-1
 499 0 l 1,16,-1
 499 328 l 2,17,18
 499 405 499 405 444 460 c 128,-1,19
 389 515 389 515 312 515 c 0,20,21
 230 515 230 515 171.5 444.5 c 128,-1,22
 113 374 113 374 113 274 c 1,23,24
 123 301 123 301 151.5 317 c 128,-1,25
 180 333 180 333 218 333 c 0,26,27
 286 333 286 333 334 283.5 c 128,-1,28
 382 234 382 234 382 164 c 0,29,30
 382 96 382 96 334 48 c 128,-1,31
 286 0 286 0 218 0 c 0,32,33
 139 0 139 0 91 70 c 128,-1,34
 43 140 43 140 43 257 c 1,35,-1
 43 257 l 1,36,37
 43 393 43 393 122 489 c 128,-1,38
 201 585 201 585 312 585 c 0,39,40
 382 585 382 585 441.5 552 c 128,-1,41
 501 519 501 519 534 462 c 1,42,43
 560 518 560 518 605.5 551.5 c 128,-1,44
 651 585 651 585 705 585 c 0,45,46
 730 585 730 585 754.5 580.5 c 128,-1,47
 779 576 779 576 797 567 c 1,48,49
 807 588 807 588 812 611 c 128,-1,50
 817 634 817 634 817 658 c 0,51,52
 817 696 817 696 785.5 722.5 c 128,-1,53
 754 749 754 749 710 749 c 0,54,55
 672 749 672 749 638 720 c 128,-1,56
 604 691 604 691 587 644 c 1,57,-1
 533 679 l 1,58,59
 550 741 550 741 599 780 c 128,-1,60
 648 819 648 819 710 819 c 0,61,62
 783 819 783 819 834.5 772 c 128,-1,63
 886 725 886 725 886 658 c 0,64,65
 886 627 886 627 878.5 598 c 128,-1,66
 871 569 871 569 856 543 c 1,67,68
 922 497 922 497 959 421 c 128,-1,69
 996 345 996 345 996 257 c 0,70,71
 996 151 996 151 947 75.5 c 128,-1,72
 898 0 898 0 828 0 c 0,73,74
 752 0 752 0 698.5 70 c 128,-1,75
 645 140 645 140 645 239 c 0,76,77
 645 305 645 305 673.5 374.5 c 128,-1,78
 702 444 702 444 756 508 c 1,79,80
 741 513 741 513 726.5 515.5 c 128,-1,81
 712 518 712 518 705 518 c 0,11,12
715 239 m 1,82,83
 715 169 715 169 748 119.5 c 128,-1,84
 781 70 781 70 828 70 c 0,85,86
 869 70 869 70 897.5 125 c 128,-1,87
 926 180 926 180 926 257 c 0,88,89
 926 337 926 337 898 400 c 128,-1,90
 870 463 870 463 821 491 c 1,91,92
 770 430 770 430 742.5 365 c 128,-1,93
 715 300 715 300 715 239 c 1,94,-1
 715 239 l 1,82,83
EndSplineSet
EndChar

StartChar: datemarkmlm
Encoding: 3449 3449 107
Width: 1088
GlyphClass: 2
Flags: W
LayerCount: 2
Fore
SplineSet
867 262 m 1,0,1
 862 405 862 405 792 499 c 0,2,3
 728 586 728 586 627 585 c 0,4,5
 571 585 571 585 523.5 553 c 128,-1,6
 476 521 476 521 451 468 c 1,7,8
 426 521 426 521 380 553 c 128,-1,9
 334 585 334 585 282 585 c 0,10,11
 182 585 182 585 112 496 c 128,-1,12
 42 407 42 407 42 281 c 1,13,-1
 42 281 l 1,14,15
 42 191 42 191 83 115.5 c 128,-1,16
 124 40 124 40 194 0 c 1,17,-1
 240 52 l 1,18,19
 181 87 181 87 146.5 148 c 128,-1,20
 112 209 112 209 112 281 c 0,21,22
 112 378 112 378 162 446.5 c 128,-1,23
 212 515 212 515 282 515 c 0,24,25
 338 515 338 515 377 460.5 c 128,-1,26
 416 406 416 406 416 328 c 2,27,-1
 416 0 l 1,28,-1
 486 0 l 1,29,-1
 486 328 l 2,30,31
 486 406 486 406 527 460.5 c 128,-1,32
 568 515 568 515 627 515 c 0,33,34
 694 515 694 515 748 438 c 1,35,36
 798 364 798 364 796 263 c 1,37,38
 408 284 408 284 582 64 c 0,39,40
 633 0 633 0 710 -8 c 1,41,42
 844 -20 844 -20 864 200 c 1,43,44
 961 200 961 200 1058 200 c 1,45,-1
 1060 262 l 1,46,-1
 867 262 l 1,0,1
793 203 m 1,47,48
 781 63 781 63 710 63 c 0,49,50
 673 63 673 63 638 103 c 0,51,52
 545 210 545 210 793 203 c 1,47,48
EndSplineSet
EndChar

StartChar: chillunnmlm
Encoding: 3450 3450 108
Width: 1414
GlyphClass: 2
Flags: W
LayerCount: 2
Fore
SplineSet
125 164 m 1,0,1
 125 125 125 125 152 97.5 c 128,-1,2
 179 70 179 70 218 70 c 128,-1,3
 257 70 257 70 284.5 97.5 c 128,-1,4
 312 125 312 125 312 164 c 0,5,6
 312 205 312 205 284.5 234 c 128,-1,7
 257 263 257 263 218 263 c 128,-1,8
 179 263 179 263 152 234 c 128,-1,9
 125 205 125 205 125 164 c 1,10,-1
 125 164 l 1,0,1
43 257 m 1,11,12
 43 393 43 393 122 489 c 128,-1,13
 201 585 201 585 312 585 c 0,14,15
 382 585 382 585 441.5 552 c 128,-1,16
 501 519 501 519 534 462 c 1,17,18
 560 518 560 518 606 551.5 c 128,-1,19
 652 585 652 585 703 585 c 0,20,21
 759 585 759 585 806.5 553.5 c 128,-1,22
 854 522 854 522 879 468 c 1,23,24
 904 522 904 522 958 553.5 c 128,-1,25
 1012 585 1012 585 1078 585 c 0,26,27
 1103 585 1103 585 1125.5 580.5 c 128,-1,28
 1148 576 1148 576 1166 567 c 1,29,30
 1176 588 1176 588 1181 611 c 128,-1,31
 1186 634 1186 634 1186 658 c 0,32,33
 1186 696 1186 696 1154.5 722.5 c 128,-1,34
 1123 749 1123 749 1079 749 c 0,35,36
 1041 749 1041 749 1007 720 c 128,-1,37
 973 691 973 691 956 644 c 1,38,-1
 902 679 l 1,39,40
 919 741 919 741 968 780 c 128,-1,41
 1017 819 1017 819 1079 819 c 0,42,43
 1152 819 1152 819 1203.5 772 c 128,-1,44
 1255 725 1255 725 1255 658 c 0,45,46
 1255 627 1255 627 1247.5 598 c 128,-1,47
 1240 569 1240 569 1225 543 c 1,48,49
 1291 497 1291 497 1328 421 c 128,-1,50
 1365 345 1365 345 1365 257 c 0,51,52
 1365 151 1365 151 1316 75.5 c 128,-1,53
 1267 0 1267 0 1197 0 c 0,54,55
 1121 0 1121 0 1067.5 70 c 128,-1,56
 1014 140 1014 140 1014 239 c 0,57,58
 1014 305 1014 305 1042.5 374.5 c 128,-1,59
 1071 444 1071 444 1125 508 c 1,60,61
 1110 513 1110 513 1098.5 516 c 128,-1,62
 1087 519 1087 519 1080 519 c 0,63,64
 1009 519 1009 519 959 470 c 128,-1,65
 909 421 909 421 909 351 c 2,66,-1
 909 0 l 1,67,-1
 839 0 l 1,68,-1
 839 351 l 2,69,70
 839 419 839 419 799 467 c 128,-1,71
 759 515 759 515 703 515 c 128,-1,72
 647 515 647 515 608 467 c 128,-1,73
 569 419 569 419 569 351 c 2,74,-1
 569 0 l 1,75,-1
 499 0 l 1,76,-1
 499 328 l 2,77,78
 499 405 499 405 444 460 c 128,-1,79
 389 515 389 515 312 515 c 0,80,81
 230 515 230 515 171.5 444.5 c 128,-1,82
 113 374 113 374 113 274 c 1,83,84
 123 301 123 301 151.5 317 c 128,-1,85
 180 333 180 333 218 333 c 0,86,87
 286 333 286 333 334 283.5 c 128,-1,88
 382 234 382 234 382 164 c 0,89,90
 382 96 382 96 334 48 c 128,-1,91
 286 0 286 0 218 0 c 0,92,93
 139 0 139 0 91 70 c 128,-1,94
 43 140 43 140 43 257 c 1,95,-1
 43 257 l 1,11,12
1084 239 m 1,96,97
 1084 169 1084 169 1117 119.5 c 128,-1,98
 1150 70 1150 70 1197 70 c 0,99,100
 1238 70 1238 70 1266.5 125 c 128,-1,101
 1295 180 1295 180 1295 257 c 0,102,103
 1295 337 1295 337 1267 400 c 128,-1,104
 1239 463 1239 463 1190 491 c 1,105,106
 1139 430 1139 430 1111.5 365 c 128,-1,107
 1084 300 1084 300 1084 239 c 1,108,-1
 1084 239 l 1,96,97
EndSplineSet
Ligature2: "'half' Half Forms lookup 4 subtable" nnamlm viramamlm zerowidthjoiner
EndChar

StartChar: chillunmlm
Encoding: 3451 3451 109
Width: 1024
GlyphClass: 2
Flags: W
LayerCount: 2
Fore
SplineSet
638 199 m 1,0,1
 638 143 638 143 665.5 103.5 c 128,-1,2
 693 64 693 64 732 64 c 0,3,4
 780 64 780 64 814.5 120.5 c 128,-1,5
 849 177 849 177 849 257 c 0,6,7
 849 330 849 330 819 390 c 128,-1,8
 789 450 789 450 737 480 c 1,9,10
 689 423 689 423 663.5 350.5 c 128,-1,11
 638 278 638 278 638 199 c 1,12,-1
 638 199 l 1,0,1
42 293 m 1,13,14
 42 414 42 414 107 499.5 c 128,-1,15
 172 585 172 585 264 585 c 0,16,17
 312 585 312 585 356 557 c 128,-1,18
 400 529 400 529 428 480 c 1,19,20
 464 531 464 531 515.5 559.5 c 128,-1,21
 567 588 567 588 623 588 c 0,22,23
 647 588 647 588 669 582.5 c 128,-1,24
 691 577 691 577 709 567 c 1,25,26
 717 581 717 581 721 595.5 c 128,-1,27
 725 610 725 610 725 625 c 0,28,29
 725 676 725 676 693 712.5 c 128,-1,30
 661 749 661 749 615 749 c 0,31,32
 575 749 575 749 539.5 718 c 128,-1,33
 504 687 504 687 486 637 c 1,34,-1
 439 679 l 1,35,36
 462 742 462 742 510.5 780.5 c 128,-1,37
 559 819 559 819 615 819 c 0,38,39
 690 819 690 819 743 762 c 128,-1,40
 796 705 796 705 796 625 c 0,41,42
 796 603 796 603 788.5 580.5 c 128,-1,43
 781 558 781 558 767 538 c 1,44,45
 838 497 838 497 878.5 422 c 128,-1,46
 919 347 919 347 919 257 c 0,47,48
 919 148 919 148 864 70.5 c 128,-1,49
 809 -7 809 -7 732 -7 c 0,50,51
 664 -7 664 -7 616 55 c 128,-1,52
 568 117 568 117 568 204 c 128,-1,53
 568 291 568 291 595 369 c 128,-1,54
 622 447 622 447 673 508 c 1,55,56
 661 512 661 512 648.5 514.5 c 128,-1,57
 636 517 636 517 623 517 c 0,58,59
 557 517 557 517 510 468.5 c 128,-1,60
 463 420 463 420 463 351 c 2,61,-1
 463 0 l 1,62,-1
 393 0 l 1,63,-1
 393 351 l 2,64,65
 393 419 393 419 355 467 c 128,-1,66
 317 515 317 515 264 515 c 0,67,68
 201 515 201 515 156.5 450 c 128,-1,69
 112 385 112 385 112 293 c 0,70,71
 112 221 112 221 146.5 160 c 128,-1,72
 181 99 181 99 241 64 c 1,73,-1
 205 0 l 1,74,75
 129 44 129 44 85.5 122.5 c 128,-1,76
 42 201 42 201 42 293 c 1,77,-1
 42 293 l 1,13,14
EndSplineSet
Ligature2: "'half' Half Forms lookup 4 subtable" namlm viramamlm zerowidthjoiner
EndChar

StartChar: chillurrmlm
Encoding: 3452 3452 110
Width: 646
GlyphClass: 2
Flags: W
LayerCount: 2
Fore
SplineSet
335 234 m 1,0,1
 335 164 335 164 362.5 114 c 128,-1,2
 390 64 390 64 429 64 c 0,3,4
 472 64 472 64 503 120.5 c 128,-1,5
 534 177 534 177 534 257 c 128,-1,6
 534 337 534 337 506 400 c 128,-1,7
 478 463 478 463 429 491 c 1,8,9
 383 437 383 437 359 370.5 c 128,-1,10
 335 304 335 304 335 234 c 1,11,-1
 335 234 l 1,0,1
43 263 m 1,12,13
 43 396 43 396 125.5 490.5 c 128,-1,14
 208 585 208 585 324 585 c 0,15,16
 342 585 342 585 360 582 c 128,-1,17
 378 579 378 579 394 573 c 1,18,-1
 402 592 l 1,19,-1
 406 608 l 1,20,21
 406 666 406 666 378.5 707.5 c 128,-1,22
 351 749 351 749 312 749 c 0,23,24
 266 749 266 749 231.5 720.5 c 128,-1,25
 197 692 197 692 189 649 c 1,26,-1
 130 672 l 1,27,28
 141 736 141 736 192.5 777.5 c 128,-1,29
 244 819 244 819 312 819 c 128,-1,30
 380 819 380 819 428 760.5 c 128,-1,31
 476 702 476 702 476 620 c 0,32,33
 476 604 476 604 471.5 583.5 c 128,-1,34
 467 563 467 563 458 538 c 1,35,36
 526 499 526 499 565.5 423.5 c 128,-1,37
 605 348 605 348 605 257 c 0,38,39
 605 148 605 148 553.5 70.5 c 128,-1,40
 502 -7 502 -7 429 -7 c 0,41,42
 361 -7 361 -7 313 63.5 c 128,-1,43
 265 134 265 134 265 234 c 0,44,45
 265 313 265 313 290.5 385.5 c 128,-1,46
 316 458 316 458 364 515 c 1,47,48
 269 540 269 540 191 462 c 128,-1,49
 113 384 113 384 113 263 c 0,50,51
 113 199 113 199 134.5 145.5 c 128,-1,52
 156 92 156 92 195 59 c 1,53,-1
 160 0 l 1,54,55
 106 31 106 31 74.5 101.5 c 128,-1,56
 43 172 43 172 43 263 c 1,57,-1
 43 263 l 1,12,13
EndSplineSet
Ligature2: "'half' Half Forms lookup 4 subtable" ramlm viramamlm zerowidthjoiner
EndChar

StartChar: chillulmlm
Encoding: 3453 3453 111
Width: 989
GlyphClass: 2
Flags: W
LayerCount: 2
Fore
SplineSet
712 228 m 1,0,1
 712 160 712 160 736 112 c 128,-1,2
 760 64 760 64 794 64 c 128,-1,3
 828 64 828 64 852 112 c 128,-1,4
 876 160 876 160 876 228 c 0,5,6
 876 301 876 301 854.5 359 c 128,-1,7
 833 417 833 417 794 450 c 1,8,9
 754 403 754 403 733 345.5 c 128,-1,10
 712 288 712 288 712 228 c 1,11,-1
 712 228 l 1,0,1
326 228 m 1,12,13
 326 160 326 160 350.5 112 c 128,-1,14
 375 64 375 64 410 64 c 0,15,16
 443 64 443 64 466.5 112 c 128,-1,17
 490 160 490 160 490 228 c 0,18,19
 490 295 490 295 470 351.5 c 128,-1,20
 450 408 450 408 413 445 c 1,21,22
 372 410 372 410 349 353 c 128,-1,23
 326 296 326 296 326 228 c 1,24,-1
 326 228 l 1,12,13
46 281 m 1,25,26
 46 407 46 407 121.5 496 c 128,-1,27
 197 585 197 585 303 585 c 0,28,29
 329 585 329 585 357.5 573 c 128,-1,30
 386 561 386 561 413 538 c 1,31,32
 440 561 440 561 490 573 c 128,-1,33
 540 585 540 585 607 585 c 0,34,35
 669 585 669 585 711 577.5 c 128,-1,36
 753 570 753 570 770 555 c 1,37,38
 785 581 785 581 793 606.5 c 128,-1,39
 801 632 801 632 801 654 c 0,40,41
 801 693 801 693 768 721 c 128,-1,42
 735 749 735 749 689 749 c 0,43,44
 646 749 646 749 610 716.5 c 128,-1,45
 574 684 574 684 560 632 c 1,46,-1
 502 659 l 1,47,48
 521 730 521 730 573 774.5 c 128,-1,49
 625 819 625 819 689 819 c 0,50,51
 765 819 765 819 818.5 770.5 c 128,-1,52
 872 722 872 722 872 654 c 0,53,54
 872 616 872 616 861 580.5 c 128,-1,55
 850 545 850 545 829 515 c 1,56,57
 885 468 885 468 915.5 393 c 128,-1,58
 946 318 946 318 946 228 c 0,59,60
 946 131 946 131 901.5 62 c 128,-1,61
 857 -7 857 -7 794 -7 c 128,-1,62
 731 -7 731 -7 686.5 62 c 128,-1,63
 642 131 642 131 642 228 c 0,64,65
 642 290 642 290 667.5 358.5 c 128,-1,66
 693 427 693 427 742 497 c 1,67,68
 727 506 727 506 692.5 510.5 c 128,-1,69
 658 515 658 515 607 515 c 128,-1,70
 556 515 556 515 518 507.5 c 128,-1,71
 480 500 480 500 459 485 c 1,72,73
 508 436 508 436 534 369.5 c 128,-1,74
 560 303 560 303 560 228 c 0,75,76
 560 131 560 131 515.5 62 c 128,-1,77
 471 -7 471 -7 408 -7 c 128,-1,78
 345 -7 345 -7 300.5 62 c 128,-1,79
 256 131 256 131 256 228 c 0,80,81
 256 308 256 308 285.5 376.5 c 128,-1,82
 315 445 315 445 368 490 c 1,83,84
 354 502 354 502 337 508.5 c 128,-1,85
 320 515 320 515 303 515 c 0,86,87
 226 515 226 515 171 450 c 128,-1,88
 116 385 116 385 116 293 c 0,89,90
 116 209 116 209 137.5 144.5 c 128,-1,91
 159 80 159 80 198 47 c 1,92,-1
 151 0 l 1,93,94
 101 42 101 42 73.5 115.5 c 128,-1,95
 46 189 46 189 46 281 c 1,96,-1
 46 281 l 1,25,26
EndSplineSet
Ligature2: "'half' Half Forms lookup 4 subtable" lamlm viramamlm zerowidthjoiner
EndChar

StartChar: chillullmlm
Encoding: 3454 3454 112
Width: 1024
GlyphClass: 2
Flags: W
LayerCount: 2
Fore
SplineSet
621 204 m 1,0,1
 621 146 621 146 647 105 c 128,-1,2
 673 64 673 64 710 64 c 0,3,4
 761 64 761 64 796.5 117.5 c 128,-1,5
 832 171 832 171 832 246 c 0,6,7
 832 318 832 318 804.5 380.5 c 128,-1,8
 777 443 777 443 727 485 c 1,9,10
 675 395 675 395 648 323.5 c 128,-1,11
 621 252 621 252 621 204 c 1,12,-1
 621 204 l 1,0,1
48 328 m 1,13,14
 48 434 48 434 110 509.5 c 128,-1,15
 172 585 172 585 259 585 c 0,16,17
 269 585 269 585 280 586 c 128,-1,18
 291 587 291 587 294 585 c 1,19,-1
 294 515 l 1,20,-1
 259 515 l 2,21,22
 201 515 201 515 159.5 460 c 128,-1,23
 118 405 118 405 118 328 c 2,24,-1
 118 257 l 2,25,26
 118 177 118 177 159.5 120.5 c 128,-1,27
 201 64 201 64 259 64 c 128,-1,28
 317 64 317 64 358 120.5 c 128,-1,29
 399 177 399 177 399 257 c 2,30,-1
 399 328 l 2,31,32
 399 434 399 434 464 509.5 c 128,-1,33
 529 585 529 585 621 585 c 0,34,35
 637 585 637 585 656.5 582 c 128,-1,36
 676 579 676 579 698 573 c 1,37,38
 706 589 706 589 710.5 604 c 128,-1,39
 715 619 715 619 715 632 c 0,40,41
 715 680 715 680 680.5 714.5 c 128,-1,42
 646 749 646 749 598 749 c 0,43,44
 551 749 551 749 514.5 716 c 128,-1,45
 478 683 478 683 469 632 c 1,46,-1
 411 672 l 1,47,48
 422 736 422 736 475 777.5 c 128,-1,49
 528 819 528 819 598 819 c 0,50,51
 675 819 675 819 730 764 c 128,-1,52
 785 709 785 709 785 632 c 0,53,54
 785 612 785 612 778 589.5 c 128,-1,55
 771 567 771 567 757 543 c 1,56,57
 824 504 824 504 863 424.5 c 128,-1,58
 902 345 902 345 902 246 c 0,59,60
 902 141 902 141 846 67 c 128,-1,61
 790 -7 790 -7 710 -7 c 0,62,63
 644 -7 644 -7 597.5 55 c 128,-1,64
 551 117 551 117 551 204 c 0,65,66
 551 272 551 272 580.5 349.5 c 128,-1,67
 610 427 610 427 666 507 c 1,68,69
 654 511 654 511 642.5 513.5 c 128,-1,70
 631 516 631 516 621 516 c 0,71,72
 558 516 558 516 513.5 461 c 128,-1,73
 469 406 469 406 469 328 c 2,74,-1
 469 257 l 2,75,76
 469 148 469 148 407.5 70.5 c 128,-1,77
 346 -7 346 -7 259 -7 c 128,-1,78
 172 -7 172 -7 110 70.5 c 128,-1,79
 48 148 48 148 48 257 c 2,80,-1
 48 328 l 1,81,-1
 48 328 l 1,13,14
EndSplineSet
Ligature2: "'half' Half Forms lookup 4 subtable" llamlm viramamlm zerowidthjoiner
EndChar

StartChar: chillukmlm
Encoding: 3455 3455 113
Width: 1117
GlyphClass: 2
Flags: W
LayerCount: 2
Fore
SplineSet
851 351 m 1,0,1
 851 351 851 351 926 351 c 0,2,3
 994 351 994 351 1041.5 296 c 128,-1,4
 1089 241 1089 241 1089 164 c 0,5,6
 1089 93 1089 93 1048 43 c 128,-1,7
 1007 -7 1007 -7 949 -7 c 0,8,9
 875 -7 875 -7 820.5 67 c 128,-1,10
 766 141 766 141 766 246 c 2,11,-1
 766 281 l 1,12,-1
 692 281 l 1,13,14
 692 162 692 162 634.5 77.5 c 128,-1,15
 577 -7 577 -7 495 -7 c 0,16,17
 445 -7 445 -7 402 27 c 128,-1,18
 359 61 359 61 339 117 c 1,19,20
 319 61 319 61 280 27 c 128,-1,21
 241 -7 241 -7 198 -7 c 0,22,23
 128 -7 128 -7 78.5 40.5 c 128,-1,24
 29 88 29 88 29 156 c 1,25,-1
 29 156 l 1,26,27
 29 237 29 237 84 294 c 128,-1,28
 139 351 139 351 216 351 c 2,29,-1
 298 351 l 1,30,31
 298 451 298 451 355.5 521.5 c 128,-1,32
 413 592 413 592 495 592 c 128,-1,33
 577 592 577 592 634.5 521.5 c 128,-1,34
 692 451 692 451 692 351 c 1,35,-1
 778 351 l 1,36,37
 830 464 830 464 863 518 c 1,38,-1
 895 584 l 2,39,40
 903 600 903 600 907.5 615 c 128,-1,41
 912 630 912 630 912 642 c 0,42,43
 912 690 912 690 877.5 725 c 128,-1,44
 843 760 843 760 795 760 c 0,45,46
 748 760 748 760 711.5 727 c 128,-1,47
 675 694 675 694 666 642 c 1,48,-1
 608 682 l 1,49,50
 619 746 619 746 672 788 c 128,-1,51
 725 830 725 830 795 830 c 0,52,53
 872 830 872 830 927 775 c 128,-1,54
 982 720 982 720 982 642 c 0,55,56
 982 622 982 622 975 600 c 128,-1,57
 968 578 968 578 954 554 c 1,58,-1
 924 496 l 1,59,60
 884 426 884 426 851 351 c 1,0,1
836 246 m 1,61,62
 836 171 836 171 870 117.5 c 128,-1,63
 904 64 904 64 949 64 c 0,64,65
 978 64 978 64 998.5 93.5 c 128,-1,66
 1019 123 1019 123 1019 164 c 0,67,68
 1019 212 1019 212 992 246.5 c 128,-1,69
 965 281 965 281 926 281 c 2,70,-1
 836 281 l 1,71,-1
 836 246 l 1,72,-1
 836 246 l 1,61,62
99 156 m 1,73,74
 99 118 99 118 126 91 c 128,-1,75
 153 64 153 64 192 64 c 0,76,77
 236 64 236 64 267 107 c 128,-1,78
 298 150 298 150 298 211 c 2,79,-1
 298 281 l 1,80,-1
 216 281 l 2,81,82
 168 281 168 281 133.5 244.5 c 128,-1,83
 99 208 99 208 99 156 c 1,84,-1
 99 156 l 1,73,74
368 281 m 1,85,86
 368 191 368 191 405 127.5 c 128,-1,87
 442 64 442 64 494 64 c 0,88,89
 547 64 547 64 584 127.5 c 128,-1,90
 621 191 621 191 621 281 c 1,91,-1
 368 281 l 1,92,-1
 368 281 l 1,85,86
368 351 m 1,93,-1
 621 351 l 1,94,95
 621 421 621 421 584 471 c 128,-1,96
 547 521 547 521 494 521 c 0,97,98
 442 521 442 521 405 471 c 128,-1,99
 368 421 368 421 368 351 c 1,100,-1
 368 351 l 1,93,-1
EndSplineSet
Ligature2: "'half' Half Forms lookup 4 subtable" kamlm viramamlm zerowidthjoiner
EndChar

StartChar: zerowidthnonjoiner
Encoding: 8204 8204 114
Width: 0
GlyphClass: 2
Flags: W
LayerCount: 2
Fore
SplineSet
0 -449 m 1,0,-1
 0 845 l 1,1,-1
 46 845 l 1,2,-1
 46 -449 l 1,3,-1
 0 -449 l 1,4,-1
 0 -449 l 1,0,-1
EndSplineSet
EndChar

StartChar: zerowidthjoiner
Encoding: 8205 8205 115
Width: 0
GlyphClass: 2
Flags: W
LayerCount: 2
Fore
SplineSet
156 598.5 m 1,0,-1
 109.5 556 l 1,1,-1
 33 631 l 1,2,-1
 33 -448.5 l 1,3,-1
 -24.5 -448.5 l 1,4,-1
 -24.5 639 l 1,5,-1
 -109.5 556 l 1,6,-1
 -156 598.5 l 1,7,-1
 -45.5 708 l 1,8,-1
 -156 818.5 l 1,9,-1
 -111.5 862.5 l 1,10,-1
 0 752.5 l 1,11,-1
 112 862.5 l 1,12,-1
 156 818.5 l 1,13,-1
 46 708 l 1,14,-1
 156 598.5 l 1,0,-1
EndSplineSet
EndChar

StartChar: inr_currency
Encoding: 8377 8377 116
Width: 624
GlyphClass: 2
Flags: W
LayerCount: 2
Fore
SplineSet
358 499 m 0,0,1
 359 508 359 508 359 513 c 1,2,-1
 59 513 l 1,3,-1
 85 576 l 1,4,-1
 346 576 l 1,5,6
 340 588 340 588 331 598 c 0,7,8
 280 653 280 653 165 653 c 2,9,-1
 59 653 l 1,10,-1
 85 716 l 1,11,-1
 583 716 l 1,12,-1
 557 653 l 1,13,-1
 367 653 l 1,14,15
 406 630 406 630 420 576 c 1,16,-1
 583 576 l 1,17,-1
 557 513 l 1,18,-1
 429 513 l 1,19,20
 429 358 429 358 171 339 c 1,21,-1
 507 -1 l 1,22,-1
 407 -1 l 1,23,-1
 70 336 l 1,24,-1
 70 395 l 1,25,26
 346 393 346 393 358 499 c 0,0,1
EndSplineSet
EndChar

StartChar: dottedcircle
Encoding: 9676 9676 117
Width: 950
GlyphClass: 2
Flags: W
LayerCount: 2
Fore
SplineSet
367 719 m 128,-1,1
 367 741 367 741 382.5 756 c 128,-1,2
 398 771 398 771 420 771 c 128,-1,3
 442 771 442 771 457.5 756 c 128,-1,4
 473 741 473 741 473 719 c 128,-1,5
 473 697 473 697 457.5 681.5 c 128,-1,6
 442 666 442 666 420 666 c 128,-1,7
 398 666 398 666 382.5 681.5 c 128,-1,0
 367 697 367 697 367 719 c 128,-1,1
367 23 m 128,-1,9
 367 45 367 45 382.5 61 c 128,-1,10
 398 77 398 77 420 77 c 128,-1,11
 442 77 442 77 457.5 61 c 128,-1,12
 473 45 473 45 473 23 c 128,-1,13
 473 1 473 1 457.5 -14 c 128,-1,14
 442 -29 442 -29 420 -29 c 128,-1,15
 398 -29 398 -29 382.5 -14 c 128,-1,8
 367 1 367 1 367 23 c 128,-1,9
20 371 m 128,-1,17
 20 393 20 393 35 409 c 128,-1,18
 50 425 50 425 72 425 c 128,-1,19
 94 425 94 425 110 409 c 128,-1,20
 126 393 126 393 126 371 c 128,-1,21
 126 349 126 349 110 333.5 c 128,-1,22
 94 318 94 318 72 318 c 128,-1,23
 50 318 50 318 35 333.5 c 128,-1,16
 20 349 20 349 20 371 c 128,-1,17
713 371 m 128,-1,25
 713 393 713 393 729 409 c 128,-1,26
 745 425 745 425 768 425 c 0,27,28
 790 425 790 425 805.5 409 c 128,-1,29
 821 393 821 393 821 371 c 128,-1,30
 821 349 821 349 805.5 333.5 c 128,-1,31
 790 318 790 318 768 318 c 0,32,33
 745 318 745 318 729 333.5 c 128,-1,24
 713 349 713 349 713 371 c 128,-1,25
67 197 m 128,-1,35
 67 219 67 219 82.5 235 c 128,-1,36
 98 251 98 251 120 251 c 128,-1,37
 142 251 142 251 158 235 c 128,-1,38
 174 219 174 219 174 197 c 128,-1,39
 174 175 174 175 158 160 c 128,-1,40
 142 145 142 145 120 145 c 128,-1,41
 98 145 98 145 82.5 160 c 128,-1,34
 67 175 67 175 67 197 c 128,-1,35
668 545 m 128,-1,43
 668 567 668 567 684 582 c 128,-1,44
 700 597 700 597 722 597 c 128,-1,45
 744 597 744 597 759 582 c 128,-1,46
 774 567 774 567 774 545 c 128,-1,47
 774 523 774 523 759 507.5 c 128,-1,48
 744 492 744 492 722 492 c 128,-1,49
 700 492 700 492 684 507.5 c 128,-1,42
 668 523 668 523 668 545 c 128,-1,43
539 673 m 128,-1,51
 539 695 539 695 555 710 c 128,-1,52
 571 725 571 725 594 725 c 0,53,54
 616 725 616 725 631.5 710 c 128,-1,55
 647 695 647 695 647 673 c 128,-1,56
 647 651 647 651 631.5 635 c 128,-1,57
 616 619 616 619 594 619 c 0,58,59
 571 619 571 619 555 635 c 128,-1,50
 539 651 539 651 539 673 c 128,-1,51
193 71 m 128,-1,61
 193 93 193 93 208.5 109 c 128,-1,62
 224 125 224 125 246 125 c 128,-1,63
 268 125 268 125 284 109 c 128,-1,64
 300 93 300 93 300 71 c 128,-1,65
 300 49 300 49 284 33 c 128,-1,66
 268 17 268 17 246 17 c 128,-1,67
 224 17 224 17 208.5 33 c 128,-1,60
 193 49 193 49 193 71 c 128,-1,61
67 545 m 128,-1,69
 67 567 67 567 82.5 582 c 128,-1,70
 98 597 98 597 120 597 c 128,-1,71
 142 597 142 597 158 582 c 128,-1,72
 174 567 174 567 174 545 c 128,-1,73
 174 523 174 523 158 507.5 c 128,-1,74
 142 492 142 492 120 492 c 128,-1,75
 98 492 98 492 82.5 507.5 c 128,-1,68
 67 523 67 523 67 545 c 128,-1,69
668 197 m 128,-1,77
 668 219 668 219 684 235 c 128,-1,78
 700 251 700 251 722 251 c 128,-1,79
 744 251 744 251 759 235 c 128,-1,80
 774 219 774 219 774 197 c 128,-1,81
 774 175 774 175 759 160 c 128,-1,82
 744 145 744 145 722 145 c 128,-1,83
 700 145 700 145 684 160 c 128,-1,76
 668 175 668 175 668 197 c 128,-1,77
193 673 m 128,-1,85
 193 695 193 695 208.5 710 c 128,-1,86
 224 725 224 725 246 725 c 128,-1,87
 268 725 268 725 284 710 c 128,-1,88
 300 695 300 695 300 673 c 128,-1,89
 300 651 300 651 284 635 c 128,-1,90
 268 619 268 619 246 619 c 128,-1,91
 224 619 224 619 208.5 635 c 128,-1,84
 193 651 193 651 193 673 c 128,-1,85
539 71 m 128,-1,93
 539 93 539 93 555 109 c 128,-1,94
 571 125 571 125 594 125 c 0,95,96
 616 125 616 125 631.5 109 c 128,-1,97
 647 93 647 93 647 71 c 128,-1,98
 647 49 647 49 631.5 33 c 128,-1,99
 616 17 616 17 594 17 c 0,100,101
 571 17 571 17 555 33 c 128,-1,92
 539 49 539 49 539 71 c 128,-1,93
EndSplineSet
EndChar

StartChar: viramamlm_lamlm
Encoding: 65539 -1 118
Width: 0
GlyphClass: 3
Flags: W
LayerCount: 2
Fore
SplineSet
-749 -176 m 1,0,1
 -749 -219 -749 -219 -718 -250 c 128,-1,2
 -687 -281 -687 -281 -643 -281 c 0,3,4
 -600 -281 -600 -281 -569 -250 c 128,-1,5
 -538 -219 -538 -219 -538 -176 c 0,6,7
 -538 -132 -538 -132 -569 -101 c 128,-1,8
 -600 -70 -600 -70 -643 -70 c 0,9,10
 -687 -70 -687 -70 -718 -101 c 128,-1,11
 -749 -132 -749 -132 -749 -176 c 1,12,-1
 -749 -176 l 1,0,1
-819 -176 m 1,13,14
 -819 -98 -819 -98 -755 -42.5 c 128,-1,15
 -691 13 -691 13 -601 13 c 0,16,17
 -493 13 -493 13 -408 -39 c 128,-1,18
 -323 -91 -323 -91 -292 -176 c 0,19,20
 -277 -218 -277 -218 -245.5 -246 c 128,-1,21
 -214 -274 -214 -274 -175 -281 c 1,22,23
 -132 -281 -132 -281 -101 -246.5 c 128,-1,24
 -70 -212 -70 -212 -70 -164 c 0,25,26
 -70 -114 -70 -114 -88.5 -71 c 128,-1,27
 -107 -28 -107 -28 -140 0 c 1,28,-1
 -58 0 l 1,29,30
 -30 -28 -30 -28 -15 -70.5 c 128,-1,31
 0 -113 0 -113 0 -164 c 0,32,33
 0 -241 0 -241 -51.5 -296 c 128,-1,34
 -103 -351 -103 -351 -175 -351 c 0,35,36
 -231 -351 -231 -351 -279.5 -312.5 c 128,-1,37
 -328 -274 -328 -274 -351 -211 c 0,38,39
 -372 -153 -372 -153 -414 -117.5 c 128,-1,40
 -456 -82 -456 -82 -503 -82 c 1,41,42
 -486 -102 -486 -102 -477 -126.5 c 128,-1,43
 -468 -151 -468 -151 -468 -176 c 0,44,45
 -468 -248 -468 -248 -519.5 -299.5 c 128,-1,46
 -571 -351 -571 -351 -643 -351 c 0,47,48
 -716 -351 -716 -351 -767.5 -299.5 c 128,-1,49
 -819 -248 -819 -248 -819 -176 c 1,50,-1
 -819 -176 l 1,13,14
EndSplineSet
Ligature2: "Ligature Substitution lookup 9 subtable" viramamlm llamlm
Ligature2: "'blwf' Below Base Forms in Malay+AQEA-lam lookup 3 subtable" lamlm viramamlm
Ligature2: "'blwf' Below Base Forms in Malay+AQEA-lam2 lookup 2 subtable" viramamlm lamlm
EndChar

StartChar: ramlm_viramamlm
Encoding: 65540 -1 119
Width: 228
GlyphClass: 3
Flags: W
LayerCount: 2
Fore
SplineSet
116 585 m 1,0,-1
 186 585 l 1,1,2
 160 452 160 452 147 336 c 128,-1,3
 134 220 134 220 134 122 c 0,4,5
 134 7 134 7 186.5 -52 c 128,-1,6
 239 -111 239 -111 341 -111 c 1,7,-1
 341 -181 l 1,8,9
 204 -181 204 -181 134 -104.5 c 128,-1,10
 64 -28 64 -28 64 122 c 0,11,12
 64 220 64 220 77 336 c 128,-1,13
 90 452 90 452 116 585 c 1,14,-1
 116 585 l 1,0,-1
EndSplineSet
LCarets2: 1 0 
Ligature2: "'pref' Pre Base Forms lookup 1 subtable" viramamlm ramlm
EndChar

StartChar: tamlm_viramamlm_lamlm
Encoding: 65542 -1 120
Width: 883
GlyphClass: 2
Flags: W
LayerCount: 2
Fore
SplineSet
837 -213 m 0,0,1
 837 -282 837 -282 805 -332 c 1,2,3
 769 -392 769 -392 700 -392 c 0,4,5
 639 -392 639 -392 602.5 -349.5 c 128,-1,6
 566 -307 566 -307 566 -246 c 2,7,-1
 566 -192 l 2,8,9
 566 -79 566 -79 460 -79 c 0,10,11
 443 -79 443 -79 428 -80 c 1,12,13
 503 -145 503 -145 503 -233 c 0,14,15
 503 -295 503 -295 474 -339 c 0,16,17
 438 -392 438 -392 378 -392 c 0,18,19
 317 -392 317 -392 285 -338 c 0,20,21
 258 -292 258 -292 258 -229 c 0,22,23
 258 -138 258 -138 313.5 -80 c 128,-1,24
 369 -22 369 -22 460 -22 c 0,25,26
 525 -22 525 -22 574 -60 c 0,27,28
 627 -101 627 -101 627 -164 c 2,29,-1
 627 -220 l 2,30,31
 627 -334 627 -334 697 -334 c 0,32,33
 734 -334 734 -334 758 -288 c 1,34,35
 779 -250 779 -250 779 -206 c 0,36,37
 779 -110 779 -110 693 -57 c 1,38,-1
 727 -19 l 1,39,40
 837 -79 837 -79 837 -213 c 0,0,1
443 -231 m 0,41,42
 443 -138 443 -138 364 -110 c 1,43,44
 314 -159 314 -159 314 -241 c 0,45,46
 314 -277 314 -277 331.5 -305.5 c 128,-1,47
 349 -334 349 -334 381 -334 c 0,48,49
 410 -334 410 -334 428 -296 c 1,50,51
 443 -267 443 -267 443 -231 c 0,41,42
348 211 m 1,52,53
 348 150 348 150 375.5 107 c 128,-1,54
 403 64 403 64 442 64 c 128,-1,55
 481 64 481 64 508.5 107 c 128,-1,56
 536 150 536 150 536 211 c 0,57,58
 536 264 536 264 512 321.5 c 128,-1,59
 488 379 488 379 442 433 c 1,60,61
 396 379 396 379 372 321.5 c 128,-1,62
 348 264 348 264 348 211 c 1,63,-1
 348 211 l 1,52,53
44 281 m 1,64,65
 44 410 44 410 122 501 c 128,-1,66
 200 592 200 592 311 592 c 0,67,68
 347 592 347 592 381.5 575 c 128,-1,69
 416 558 416 558 442 527 c 1,70,71
 473 558 473 558 509 575 c 128,-1,72
 545 592 545 592 580 592 c 0,73,74
 688 592 688 592 764 501 c 128,-1,75
 840 410 840 410 840 281 c 0,76,77
 840 199 840 199 806 125 c 128,-1,78
 772 51 772 51 711 0 c 1,79,-1
 664 59 l 1,80,81
 714 94 714 94 742 153 c 128,-1,82
 770 212 770 212 770 281 c 0,83,84
 770 380 770 380 714.5 450.5 c 128,-1,85
 659 521 659 521 580 521 c 0,86,87
 561 521 561 521 539 510.5 c 128,-1,88
 517 500 517 500 494 481 c 1,89,90
 548 416 548 416 577 346.5 c 128,-1,91
 606 277 606 277 606 211 c 0,92,93
 606 121 606 121 558 57 c 128,-1,94
 510 -7 510 -7 442 -7 c 128,-1,95
 374 -7 374 -7 326 57 c 128,-1,96
 278 121 278 121 278 211 c 0,97,98
 278 270 278 270 308.5 338 c 128,-1,99
 339 406 339 406 397 475 c 1,100,101
 382 497 382 497 359 509 c 128,-1,102
 336 521 336 521 311 521 c 0,103,104
 229 521 229 521 171.5 450.5 c 128,-1,105
 114 380 114 380 114 281 c 0,106,107
 114 212 114 212 142 153 c 128,-1,108
 170 94 170 94 220 59 c 1,109,-1
 173 0 l 1,110,111
 112 42 112 42 78 116.5 c 128,-1,112
 44 191 44 191 44 281 c 1,113,-1
 44 281 l 1,64,65
EndSplineSet
LCarets2: 2 0 0 
Ligature2: "'blws' Below Base Substitutions lookup 6 subtable" tamlm viramamlm lamlm
Ligature2: "'akhn' Akhand lookup 0 subtable" tamlm viramamlm lamlm
EndChar

StartChar: phamlm_viramamlm_lamlm
Encoding: 65543 -1 121
Width: 1139
GlyphClass: 2
Flags: W
LayerCount: 2
Fore
SplineSet
1074 -219 m 0,0,1
 1074 -292 1074 -292 1039 -344 c 1,2,3
 1000 -405 1000 -405 925 -405 c 0,4,5
 859 -405 859 -405 819.5 -361 c 128,-1,6
 780 -317 780 -317 780 -254 c 2,7,-1
 780 -197 l 2,8,9
 780 -79 780 -79 664 -79 c 0,10,11
 646 -79 646 -79 629 -81 c 1,12,13
 711 -149 711 -149 711 -240 c 0,14,15
 711 -305 711 -305 679 -351 c 0,16,17
 640 -405 640 -405 575 -405 c 0,18,19
 509 -405 509 -405 474 -349 c 0,20,21
 444 -302 444 -302 444 -236 c 0,22,23
 444 -141 444 -141 505 -80.5 c 128,-1,24
 566 -20 566 -20 664 -20 c 0,25,26
 735 -20 735 -20 788 -60 c 0,27,28
 846 -103 846 -103 846 -168 c 2,29,-1
 846 -227 l 2,30,31
 846 -345 846 -345 922 -345 c 0,32,33
 962 -345 962 -345 988 -298 c 0,34,35
 1011 -258 1011 -258 1011 -212 c 0,36,37
 1011 -112 1011 -112 917 -57 c 1,38,-1
 955 -18 l 1,39,40
 1074 -79 1074 -79 1074 -219 c 0,0,1
646 -239 m 0,41,42
 646 -141 646 -141 560 -112 c 1,43,44
 506 -164 506 -164 506 -249 c 0,45,46
 506 -286 506 -286 525 -315.5 c 128,-1,47
 544 -345 544 -345 578 -345 c 0,48,49
 610 -345 610 -345 629 -306 c 1,50,51
 646 -275 646 -275 646 -239 c 0,41,42
34 199 m 1,52,53
 34 296 34 296 95.5 364.5 c 128,-1,54
 157 433 157 433 244 433 c 128,-1,55
 331 433 331 433 393 364.5 c 128,-1,56
 455 296 455 296 455 199 c 0,57,58
 455 164 455 164 443 130.5 c 128,-1,59
 431 97 431 97 408 70 c 1,60,-1
 654 70 l 1,61,-1
 654 328 l 2,62,63
 654 437 654 437 716 514.5 c 128,-1,64
 778 592 778 592 865 592 c 128,-1,65
 952 592 952 592 1013.5 514.5 c 128,-1,66
 1075 437 1075 437 1075 328 c 2,67,-1
 1075 0 l 1,68,-1
 315 0 l 1,69,-1
 315 70 l 1,70,71
 348 93 348 93 366.5 127 c 128,-1,72
 385 161 385 161 385 199 c 0,73,74
 385 267 385 267 343.5 315 c 128,-1,75
 302 363 302 363 244 363 c 128,-1,76
 186 363 186 363 145 315 c 128,-1,77
 104 267 104 267 104 199 c 0,78,79
 104 154 104 154 127.5 115 c 128,-1,80
 151 76 151 76 192 52 c 1,81,-1
 146 0 l 1,82,83
 94 30 94 30 64 83.5 c 128,-1,84
 34 137 34 137 34 199 c 1,85,-1
 34 199 l 1,52,53
724 328 m 1,86,-1
 724 70 l 1,87,-1
 1005 70 l 1,88,-1
 1005 328 l 2,89,90
 1005 408 1005 408 964 464.5 c 128,-1,91
 923 521 923 521 865 521 c 128,-1,92
 807 521 807 521 765.5 464.5 c 128,-1,93
 724 408 724 408 724 328 c 1,94,-1
 724 328 l 1,86,-1
EndSplineSet
LCarets2: 2 0 0 
Ligature2: "'blws' Below Base Substitutions lookup 6 subtable" phamlm viramamlm lamlm
Ligature2: "'akhn' Akhand lookup 0 subtable" phamlm viramamlm lamlm
EndChar

StartChar: vamlm_viramamlm_lamlm
Encoding: 65544 -1 122
Width: 1043
GlyphClass: 2
Flags: W
LayerCount: 2
Fore
SplineSet
964 -215 m 0,0,1
 964 -287 964 -287 930 -339 c 0,2,3
 890 -401 890 -401 815 -401 c 0,4,5
 749 -401 749 -401 709.5 -356.5 c 128,-1,6
 670 -312 670 -312 670 -249 c 2,7,-1
 670 -193 l 2,8,9
 670 -75 670 -75 555 -75 c 0,10,11
 536 -75 536 -75 519 -76 c 1,12,13
 601 -144 601 -144 601 -235 c 0,14,15
 601 -300 601 -300 569 -346 c 0,16,17
 530 -401 530 -401 466 -401 c 0,18,19
 399 -401 399 -401 365 -345 c 0,20,21
 335 -297 335 -297 335 -231 c 0,22,23
 335 -137 335 -137 395.5 -76.5 c 128,-1,24
 456 -16 456 -16 555 -16 c 0,25,26
 625 -16 625 -16 678 -56 c 0,27,28
 736 -99 736 -99 736 -164 c 2,29,-1
 736 -223 l 2,30,31
 736 -341 736 -341 812 -341 c 0,32,33
 853 -341 853 -341 878 -293 c 1,34,35
 901 -253 901 -253 901 -207 c 0,36,37
 901 -107 901 -107 808 -53 c 1,38,-1
 845 -13 l 1,39,40
 964 -75 964 -75 964 -215 c 0,0,1
536 -234 m 0,41,42
 536 -137 536 -137 450 -107 c 1,43,44
 396 -159 396 -159 396 -244 c 0,45,46
 396 -282 396 -282 415 -311.5 c 128,-1,47
 434 -341 434 -341 468 -341 c 0,48,49
 500 -341 500 -341 519 -302 c 1,50,51
 536 -271 536 -271 536 -234 c 0,41,42
631 0 m 1,52,-1
 595 0 l 1,53,-1
 631 0 l 1,52,-1
40 281 m 1,54,55
 40 412 40 412 126 505 c 128,-1,56
 212 598 212 598 333 598 c 256,57,58
 454 598 454 598 539.5 505 c 128,-1,59
 625 412 625 412 625 281 c 0,60,61
 625 223 625 223 605.5 168.5 c 128,-1,62
 586 114 586 114 549 70 c 1,63,-1
 894 70 l 1,64,-1
 894 585 l 1,65,-1
 965 585 l 1,66,-1
 965 0 l 1,67,-1
 450 0 l 1,68,-1
 450 70 l 1,69,70
 500 112 500 112 527.5 167.5 c 128,-1,71
 555 223 555 223 555 281 c 0,72,73
 555 383 555 383 490 455.5 c 128,-1,74
 425 528 425 528 333 528 c 256,75,76
 241 528 241 528 176 455.5 c 128,-1,77
 111 383 111 383 111 281 c 0,78,79
 111 206 111 206 153 145 c 128,-1,80
 195 84 195 84 263 59 c 1,81,-1
 244 0 l 1,82,83
 156 16 156 16 98 95.5 c 128,-1,84
 40 175 40 175 40 281 c 1,85,-1
 40 281 l 1,54,55
EndSplineSet
LCarets2: 2 0 0 
Ligature2: "'blws' Below Base Substitutions lookup 6 subtable" vamlm viramamlm lamlm
Ligature2: "'akhn' Akhand lookup 0 subtable" vamlm viramamlm lamlm
EndChar

StartChar: viramamlm_lamlm.alt1
Encoding: 65545 -1 123
Width: 883
GlyphClass: 2
Flags: W
LayerCount: 2
Fore
SplineSet
837 -213 m 0,0,1
 837 -282 837 -282 805 -332 c 1,2,3
 769 -392 769 -392 700 -392 c 0,4,5
 639 -392 639 -392 602.5 -349.5 c 128,-1,6
 566 -307 566 -307 566 -246 c 2,7,-1
 566 -192 l 2,8,9
 566 -79 566 -79 460 -79 c 0,10,11
 443 -79 443 -79 428 -80 c 1,12,13
 503 -145 503 -145 503 -233 c 0,14,15
 503 -295 503 -295 474 -339 c 0,16,17
 438 -392 438 -392 378 -392 c 0,18,19
 317 -392 317 -392 285 -338 c 0,20,21
 258 -292 258 -292 258 -229 c 0,22,23
 258 -138 258 -138 313.5 -80 c 128,-1,24
 369 -22 369 -22 460 -22 c 0,25,26
 525 -22 525 -22 574 -60 c 0,27,28
 627 -101 627 -101 627 -164 c 2,29,-1
 627 -220 l 2,30,31
 627 -334 627 -334 697 -334 c 0,32,33
 734 -334 734 -334 758 -288 c 1,34,35
 779 -250 779 -250 779 -206 c 0,36,37
 779 -110 779 -110 693 -57 c 1,38,-1
 727 -19 l 1,39,40
 837 -79 837 -79 837 -213 c 0,0,1
443 -231 m 0,41,42
 443 -138 443 -138 364 -110 c 1,43,44
 314 -159 314 -159 314 -241 c 0,45,46
 314 -277 314 -277 331.5 -305.5 c 128,-1,47
 349 -334 349 -334 381 -334 c 0,48,49
 410 -334 410 -334 428 -296 c 1,50,51
 443 -267 443 -267 443 -231 c 0,41,42
EndSplineSet
EndChar

StartChar: viramamlm_lamlm.alt2
Encoding: 65546 -1 124
Width: 1139
GlyphClass: 2
Flags: W
LayerCount: 2
Fore
SplineSet
1074 -219 m 0,0,1
 1074 -292 1074 -292 1039 -344 c 1,2,3
 1000 -405 1000 -405 925 -405 c 0,4,5
 859 -405 859 -405 819.5 -361 c 128,-1,6
 780 -317 780 -317 780 -254 c 2,7,-1
 780 -197 l 2,8,9
 780 -79 780 -79 664 -79 c 0,10,11
 646 -79 646 -79 629 -81 c 1,12,13
 711 -149 711 -149 711 -240 c 0,14,15
 711 -305 711 -305 679 -351 c 0,16,17
 640 -405 640 -405 575 -405 c 0,18,19
 509 -405 509 -405 474 -349 c 0,20,21
 444 -302 444 -302 444 -236 c 0,22,23
 444 -141 444 -141 505 -80.5 c 128,-1,24
 566 -20 566 -20 664 -20 c 0,25,26
 735 -20 735 -20 788 -60 c 0,27,28
 846 -103 846 -103 846 -168 c 2,29,-1
 846 -227 l 2,30,31
 846 -345 846 -345 922 -345 c 0,32,33
 962 -345 962 -345 988 -298 c 0,34,35
 1011 -258 1011 -258 1011 -212 c 0,36,37
 1011 -112 1011 -112 917 -57 c 1,38,-1
 955 -18 l 1,39,40
 1074 -79 1074 -79 1074 -219 c 0,0,1
646 -239 m 0,41,42
 646 -141 646 -141 560 -112 c 1,43,44
 506 -164 506 -164 506 -249 c 0,45,46
 506 -286 506 -286 525 -315.5 c 128,-1,47
 544 -345 544 -345 578 -345 c 0,48,49
 610 -345 610 -345 629 -306 c 1,50,51
 646 -275 646 -275 646 -239 c 0,41,42
EndSplineSet
EndChar

StartChar: kamlm_viramamlm_ssamlm
Encoding: 65583 -1 125
Width: 1602
GlyphClass: 2
Flags: W
AnchorPoint: "MLAnchor1" 505 650 basechar 0
LayerCount: 2
Fore
SplineSet
72 40 m 0,0,1
 29 87 29 87 29 163 c 1,2,-1
 29 163 l 1,3,4
 29 252 29 252 71 298 c 0,5,6
 120 351 120 351 189 351 c 2,7,-1
 298 351 l 1,8,9
 298 451 298 451 358 521.5 c 128,-1,10
 418 592 418 592 502 592 c 128,-1,11
 586 592 586 592 645.5 521.5 c 128,-1,12
 705 451 705 451 705 351 c 1,13,-1
 787 351 l 2,14,15
 857 351 857 351 907 301 c 128,-1,16
 957 251 957 251 957 181 c 0,17,18
 957 148 957 148 946 119 c 128,-1,19
 935 90 935 90 915 70 c 1,20,-1
 1184 70 l 1,21,-1
 1184 269 l 1,22,-1
 1114 269 l 2,23,24
 1051 269 1051 269 1006.5 313.5 c 128,-1,25
 962 358 962 358 962 421 c 1,26,-1
 962 421 l 1,27,28
 962 479 962 479 1006.5 520.5 c 128,-1,29
 1051 562 1051 562 1114 562 c 0,30,31
 1172 562 1172 562 1213.5 514 c 128,-1,32
 1255 466 1255 466 1255 398 c 2,33,-1
 1255 351 l 1,34,35
 1338 381 1338 381 1397 443 c 128,-1,36
 1456 505 1456 505 1477 585 c 1,37,-1
 1524 585 l 1,38,-1
 1524 0 l 1,39,-1
 763 0 l 1,40,-1
 763 70 l 1,41,-1
 793 70 l 2,42,43
 832 70 832 70 859.5 102.5 c 128,-1,44
 887 135 887 135 887 181 c 0,45,46
 887 222 887 222 857.5 251.5 c 128,-1,47
 828 281 828 281 787 281 c 2,48,-1
 705 281 l 1,49,50
 705 159 705 159 645.5 73 c 128,-1,51
 586 -13 586 -13 502 -13 c 0,52,53
 450 -13 450 -13 407 18 c 128,-1,54
 364 49 364 49 346 99 c 1,55,56
 328 49 328 49 285.5 18 c 128,-1,57
 243 -13 243 -13 192 -13 c 0,58,59
 122 -13 122 -13 72 40 c 0,0,1
99 169 m 1,60,61
 99 123 99 123 126 90 c 128,-1,62
 153 57 153 57 192 57 c 0,63,64
 236 57 236 57 267 102 c 128,-1,65
 298 147 298 147 298 211 c 2,66,-1
 298 281 l 1,67,-1
 190 281 l 2,68,69
 152 281 152 281 125.5 248 c 128,-1,70
 99 215 99 215 99 169 c 1,71,-1
 99 169 l 1,60,61
368 281 m 1,72,73
 368 188 368 188 407 122.5 c 128,-1,74
 446 57 446 57 501 57 c 128,-1,75
 556 57 556 57 595 122.5 c 128,-1,76
 634 188 634 188 634 281 c 1,77,-1
 368 281 l 1,78,-1
 368 281 l 1,72,73
368 351 m 1,79,-1
 634 351 l 1,80,81
 634 421 634 421 595 471 c 128,-1,82
 556 521 556 521 501 521 c 128,-1,83
 446 521 446 521 407 471 c 128,-1,84
 368 421 368 421 368 351 c 1,85,-1
 368 351 l 1,79,-1
1032 421 m 1,86,87
 1032 387 1032 387 1056 363 c 128,-1,88
 1080 339 1080 339 1114 339 c 2,89,-1
 1184 339 l 1,90,-1
 1184 398 l 2,91,92
 1184 437 1184 437 1163.5 464 c 128,-1,93
 1143 491 1143 491 1114 491 c 0,94,95
 1080 491 1080 491 1056 470.5 c 128,-1,96
 1032 450 1032 450 1032 421 c 1,97,-1
 1032 421 l 1,86,87
1255 70 m 1,98,-1
 1453 70 l 1,99,-1
 1453 415 l 1,100,101
 1416 371 1416 371 1366 337 c 128,-1,102
 1316 303 1316 303 1255 281 c 1,103,-1
 1255 70 l 1,104,-1
 1255 70 l 1,98,-1
EndSplineSet
LCarets2: 2 0 0 
Ligature2: "'psts' Post Base Substitutions lookup 7 subtable" kamlm viramamlm ssamlm
Ligature2: "'akhn' Akhand lookup 0 subtable" kamlm viramamlm ssamlm
EndChar

StartChar: viramamlm_yamlm.pstf
Encoding: 65584 -1 126
Width: 390
GlyphClass: 2
Flags: W
LayerCount: 2
Fore
SplineSet
176 585 m 1,0,-1
 247 585 l 1,1,-1
 247 438 l 2,2,3
 247 347 247 347 317 177.5 c 128,-1,4
 387 8 387 8 387 -83 c 0,5,6
 387 -194 387 -194 307.5 -272.5 c 128,-1,7
 228 -351 228 -351 115 -351 c 0,8,9
 35 -351 35 -351 -21.5 -310 c 128,-1,10
 -78 -269 -78 -269 -78 -211 c 0,11,12
 -78 -165 -78 -165 -55 -132 c 128,-1,13
 -32 -99 -32 -99 1 -99 c 0,14,15
 26 -99 26 -99 44 -85 c 128,-1,16
 62 -71 62 -71 62 -51 c 2,17,-1
 62 -29 l 1,18,-1
 127 -29 l 1,19,-1
 127 -57 l 2,20,21
 127 -98 127 -98 102.5 -126.5 c 128,-1,22
 78 -155 78 -155 43 -155 c 0,23,24
 22 -155 22 -155 7 -171.5 c 128,-1,25
 -8 -188 -8 -188 -8 -211 c 0,26,27
 -8 -240 -8 -240 28 -260.5 c 128,-1,28
 64 -281 64 -281 115 -281 c 0,29,30
 199 -281 199 -281 258 -222.5 c 128,-1,31
 317 -164 317 -164 317 -82 c 0,32,33
 317 9 317 9 246.5 178 c 128,-1,34
 176 347 176 347 176 438 c 2,35,-1
 176 585 l 1,36,-1
 176 585 l 1,0,-1
EndSplineSet
LCarets2: 1 0 
Ligature2: "'pstf' Post Base Forms lookup 5 subtable" viramamlm yamlm
EndChar

StartChar: viramamlm_ramlm.pstf
Encoding: 65585 -1 127
Width: 228
GlyphClass: 2
Flags: W
LayerCount: 2
Fore
SplineSet
116 585 m 1,0,-1
 186 585 l 1,1,2
 160 452 160 452 147 336 c 128,-1,3
 134 220 134 220 134 122 c 0,4,5
 134 7 134 7 186.5 -52 c 128,-1,6
 239 -111 239 -111 341 -111 c 1,7,-1
 341 -181 l 1,8,9
 204 -181 204 -181 134 -104.5 c 128,-1,10
 64 -28 64 -28 64 122 c 0,11,12
 64 220 64 220 77 336 c 128,-1,13
 90 452 90 452 116 585 c 1,14,-1
 116 585 l 1,0,-1
EndSplineSet
LCarets2: 1 0 
Ligature2: "'pstf' Post Base Forms lookup 5 subtable" viramamlm ramlm
EndChar

StartChar: viramamlm_vamlm.pstf
Encoding: 65586 -1 128
Width: 237
GlyphClass: 2
Flags: W
LayerCount: 2
Fore
SplineSet
163 585 m 1,0,-1
 234 585 l 1,1,-1
 234 -156 l 1,2,-1
 -78 -156 l 1,3,-1
 -78 -86 l 1,4,-1
 163 -86 l 1,5,-1
 163 585 l 1,6,-1
 163 585 l 1,0,-1
EndSplineSet
Ligature2: "'pstf' Post Base Forms lookup 5 subtable" viramamlm vamlm
EndChar

StartChar: kamlm_viramamlm_kamlm
Encoding: 65587 -1 129
Width: 1412
GlyphClass: 2
Flags: W
AnchorPoint: "MLAnchor1" 700 650 basechar 0
LayerCount: 2
Fore
SplineSet
841 246 m 1,0,1
 841 171 841 171 872.5 117.5 c 128,-1,2
 904 64 904 64 949 64 c 0,3,4
 978 64 978 64 998.5 93.5 c 128,-1,5
 1019 123 1019 123 1019 164 c 0,6,7
 1019 212 1019 212 992 246.5 c 128,-1,8
 965 281 965 281 926 281 c 2,9,-1
 841 281 l 1,10,-1
 841 246 l 1,11,-1
 841 246 l 1,0,1
99 156 m 1,12,13
 99 118 99 118 126 91 c 128,-1,14
 153 64 153 64 192 64 c 0,15,16
 236 64 236 64 267 107 c 128,-1,17
 298 150 298 150 298 211 c 2,18,-1
 298 281 l 1,19,-1
 216 281 l 2,20,21
 168 281 168 281 133.5 244.5 c 128,-1,22
 99 208 99 208 99 156 c 1,23,-1
 99 156 l 1,12,13
368 281 m 1,24,25
 368 191 368 191 405 127.5 c 128,-1,26
 442 64 442 64 494 64 c 0,27,28
 547 64 547 64 584 127.5 c 128,-1,29
 621 191 621 191 621 281 c 1,30,-1
 368 281 l 1,31,-1
 368 281 l 1,24,25
368 351 m 1,32,-1
 621 351 l 1,33,34
 621 421 621 421 584 471 c 128,-1,35
 547 521 547 521 494 521 c 0,36,37
 442 521 442 521 405 471 c 128,-1,38
 368 421 368 421 368 351 c 1,39,-1
 368 351 l 1,32,-1
29 156 m 1,40,41
 29 237 29 237 84 294 c 128,-1,42
 139 351 139 351 216 351 c 2,43,-1
 298 351 l 1,44,45
 298 451 298 451 355.5 521.5 c 128,-1,46
 413 592 413 592 495 592 c 128,-1,47
 577 592 577 592 634.5 521.5 c 128,-1,48
 692 451 692 451 692 351 c 1,49,-1
 777 351 l 1,50,51
 795 456 795 456 876 524 c 128,-1,52
 957 592 957 592 1062 592 c 0,53,54
 1190 592 1190 592 1280 501 c 128,-1,55
 1370 410 1370 410 1370 281 c 0,56,57
 1370 190 1370 190 1328.5 109.5 c 128,-1,58
 1287 29 1287 29 1213 -23 c 1,59,-1
 1166 25 l 1,60,61
 1228 61 1228 61 1264 131 c 128,-1,62
 1300 201 1300 201 1300 286 c 0,63,64
 1300 383 1300 383 1230.5 452 c 128,-1,65
 1161 521 1161 521 1063 521 c 0,66,67
 980 521 980 521 917 473 c 128,-1,68
 854 425 854 425 841 351 c 1,69,-1
 926 351 l 2,70,71
 994 351 994 351 1041.5 296 c 128,-1,72
 1089 241 1089 241 1089 164 c 0,73,74
 1089 93 1089 93 1048 43 c 128,-1,75
 1007 -7 1007 -7 949 -7 c 0,76,77
 875 -7 875 -7 823 67 c 128,-1,78
 771 141 771 141 771 246 c 2,79,-1
 771 281 l 1,80,-1
 692 281 l 1,81,82
 692 162 692 162 634.5 77.5 c 128,-1,83
 577 -7 577 -7 495 -7 c 0,84,85
 445 -7 445 -7 402 27 c 128,-1,86
 359 61 359 61 339 117 c 1,87,88
 319 61 319 61 280 27 c 128,-1,89
 241 -7 241 -7 198 -7 c 0,90,91
 128 -7 128 -7 78.5 40.5 c 128,-1,92
 29 88 29 88 29 156 c 1,93,-1
 29 156 l 1,40,41
EndSplineSet
Ligature2: "'akhn' Akhand lookup 0 subtable" kamlm viramamlm kamlm
EndChar

StartChar: ngamlm_viramamlm_kamlm
Encoding: 65588 -1 130
Width: 1032
GlyphClass: 2
Flags: W
AnchorPoint: "MLAnchor1" 515 650 basechar 0
LayerCount: 2
Fore
SplineSet
52 164 m 1,0,1
 52 204 52 204 78 240 c 128,-1,2
 104 276 104 276 147 296 c 1,3,4
 105 307 105 307 78.5 347 c 128,-1,5
 52 387 52 387 52 439 c 0,6,7
 52 505 52 505 100 551.5 c 128,-1,8
 148 598 148 598 216 598 c 1,9,10
 270 589 270 589 309 560 c 128,-1,11
 348 531 348 531 363 491 c 1,12,13
 386 540 386 540 431 569 c 128,-1,14
 476 598 476 598 530 598 c 0,15,16
 615 598 615 598 675 522 c 128,-1,17
 735 446 735 446 735 338 c 1,18,-1
 816 338 l 2,19,20
 894 338 894 338 949 287 c 128,-1,21
 1004 236 1004 236 1004 164 c 0,22,23
 1004 93 1004 93 955 43 c 128,-1,24
 906 -7 906 -7 837 -7 c 0,25,26
 800 -7 800 -7 769 5.5 c 128,-1,27
 738 18 738 18 719 40 c 1,28,-1
 759 92 l 1,29,30
 771 76 771 76 791.5 66.5 c 128,-1,31
 812 57 812 57 837 57 c 0,32,33
 877 57 877 57 905 88.5 c 128,-1,34
 933 120 933 120 933 164 c 0,35,36
 933 207 933 207 898.5 237.5 c 128,-1,37
 864 268 864 268 816 268 c 2,38,-1
 735 268 l 1,39,40
 735 154 735 154 675 73.5 c 128,-1,41
 615 -7 615 -7 530 -7 c 0,42,43
 478 -7 478 -7 433.5 27.5 c 128,-1,44
 389 62 389 62 369 118 c 1,45,46
 349 62 349 62 306.5 27.5 c 128,-1,47
 264 -7 264 -7 216 -7 c 0,48,49
 148 -7 148 -7 100 43 c 128,-1,50
 52 93 52 93 52 164 c 1,51,-1
 52 164 l 1,0,1
122 439 m 1,52,53
 122 397 122 397 156.5 367.5 c 128,-1,54
 191 338 191 338 239 338 c 2,55,-1
 321 338 l 1,56,57
 321 417 321 417 290 472.5 c 128,-1,58
 259 528 259 528 216 528 c 0,59,60
 177 528 177 528 149.5 502 c 128,-1,61
 122 476 122 476 122 439 c 1,62,-1
 122 439 l 1,52,53
391 338 m 1,63,-1
 664 338 l 1,64,65
 664 417 664 417 624 472.5 c 128,-1,66
 584 528 584 528 528 528 c 0,67,68
 471 528 471 528 431 472.5 c 128,-1,69
 391 417 391 417 391 338 c 1,70,-1
 391 338 l 1,63,-1
122 164 m 1,71,72
 122 123 122 123 149.5 93.5 c 128,-1,73
 177 64 177 64 216 64 c 0,74,75
 259 64 259 64 290 107 c 128,-1,76
 321 150 321 150 321 211 c 2,77,-1
 321 268 l 1,78,-1
 239 268 l 2,79,80
 191 268 191 268 156.5 237.5 c 128,-1,81
 122 207 122 207 122 164 c 1,82,-1
 122 164 l 1,71,72
391 268 m 1,83,84
 391 184 391 184 431 124 c 128,-1,85
 471 64 471 64 528 64 c 0,86,87
 584 64 584 64 624 124 c 128,-1,88
 664 184 664 184 664 268 c 1,89,-1
 391 268 l 1,90,-1
 391 268 l 1,83,84
EndSplineSet
Ligature2: "'akhn' Akhand lookup 0 subtable" ngamlm viramamlm kamlm
EndChar

StartChar: ngamlm_viramamlm_ngamlm
Encoding: 65589 -1 131
Width: 1391
GlyphClass: 2
Flags: W
AnchorPoint: "MLAnchor1" 700 650 basechar 0
LayerCount: 2
Fore
SplineSet
117 176 m 1,0,1
 117 127 117 127 146 92 c 128,-1,2
 175 57 175 57 216 57 c 128,-1,3
 257 57 257 57 286.5 92 c 128,-1,4
 316 127 316 127 316 176 c 0,5,6
 316 219 316 219 286.5 250 c 128,-1,7
 257 281 257 281 216 281 c 128,-1,8
 175 281 175 281 146 250 c 128,-1,9
 117 219 117 219 117 176 c 1,10,-1
 117 176 l 1,0,1
40 246 m 1,11,12
 40 392 40 392 142.5 495 c 128,-1,13
 245 598 245 598 390 598 c 0,14,15
 448 598 448 598 498.5 581.5 c 128,-1,16
 549 565 549 565 586 534 c 1,17,18
 617 565 617 565 658 581.5 c 128,-1,19
 699 598 699 598 744 598 c 0,20,21
 791 598 791 598 836.5 566.5 c 128,-1,22
 882 535 882 535 914 480 c 1,23,24
 946 535 946 535 1002.5 566.5 c 128,-1,25
 1059 598 1059 598 1125 598 c 0,26,27
 1212 598 1212 598 1273.5 550 c 128,-1,28
 1335 502 1335 502 1335 434 c 0,29,30
 1335 393 1335 393 1314.5 355.5 c 128,-1,31
 1294 318 1294 318 1258 293 c 1,32,33
 1298 278 1298 278 1322.5 246 c 128,-1,34
 1347 214 1347 214 1347 176 c 0,35,36
 1347 103 1347 103 1292 51.5 c 128,-1,37
 1237 0 1237 0 1160 0 c 2,38,-1
 1031 0 l 1,39,-1
 1031 70 l 1,40,-1
 1160 70 l 2,41,42
 1208 70 1208 70 1242.5 101 c 128,-1,43
 1277 132 1277 132 1277 176 c 0,44,45
 1277 210 1277 210 1240 233.5 c 128,-1,46
 1203 257 1203 257 1151 257 c 2,47,-1
 1031 257 l 1,48,-1
 1031 328 l 1,49,-1
 1151 328 l 2,50,51
 1198 328 1198 328 1231.5 359 c 128,-1,52
 1265 390 1265 390 1265 434 c 0,53,54
 1265 473 1265 473 1224 500.5 c 128,-1,55
 1183 528 1183 528 1125 528 c 0,56,57
 1047 528 1047 528 992 472.5 c 128,-1,58
 937 417 937 417 937 339 c 2,59,-1
 937 0 l 1,60,-1
 867 0 l 1,61,-1
 867 351 l 2,62,63
 867 424 867 424 829 476 c 128,-1,64
 791 528 791 528 738 528 c 0,65,66
 714 528 714 528 688 517 c 128,-1,67
 662 506 662 506 638 486 c 1,68,69
 691 441 691 441 720.5 372 c 128,-1,70
 750 303 750 303 750 222 c 0,71,72
 750 125 750 125 705.5 56 c 128,-1,73
 661 -13 661 -13 598 -13 c 128,-1,74
 535 -13 535 -13 490.5 56 c 128,-1,75
 446 125 446 125 446 222 c 0,76,77
 446 293 446 293 470 360 c 128,-1,78
 494 427 494 427 540 481 c 1,79,80
 507 504 507 504 468.5 516 c 128,-1,81
 430 528 430 528 390 528 c 0,82,83
 286 528 286 528 209.5 466 c 128,-1,84
 133 404 133 404 125 312 c 1,85,86
 138 330 138 330 162 340.5 c 128,-1,87
 186 351 186 351 216 351 c 0,88,89
 286 351 286 351 336 299 c 128,-1,90
 386 247 386 247 386 174 c 0,91,92
 386 97 386 97 336 42 c 128,-1,93
 286 -13 286 -13 216 -13 c 0,94,95
 136 -13 136 -13 88 57.5 c 128,-1,96
 40 128 40 128 40 246 c 1,97,-1
 40 246 l 1,11,12
516 222 m 1,98,99
 516 154 516 154 540 105.5 c 128,-1,100
 564 57 564 57 598 57 c 128,-1,101
 632 57 632 57 656 105.5 c 128,-1,102
 680 154 680 154 680 222 c 0,103,104
 680 283 680 283 659 341 c 128,-1,105
 638 399 638 399 598 446 c 1,106,107
 558 399 558 399 537 341 c 128,-1,108
 516 283 516 283 516 222 c 1,109,-1
 516 222 l 1,98,99
EndSplineSet
LCarets2: 2 0 0 
Ligature2: "'akhn' Akhand lookup 0 subtable" ngamlm viramamlm ngamlm
EndChar

StartChar: camlm_viramamlm_camlm
Encoding: 65590 -1 132
Width: 1117
GlyphClass: 2
Flags: W
AnchorPoint: "MLAnchor1" 610 650 basechar 0
LayerCount: 2
Fore
SplineSet
491 -211 m 1,0,-1
 969 -211 l 1,1,-1
 969 -53 l 1,2,-1
 491 -211 l 1,3,-1
 491 -211 l 1,0,-1
9 70 m 1,4,-1
 407 70 l 1,5,6
 488 84 488 84 541 135.5 c 128,-1,7
 594 187 594 187 594 251 c 0,8,9
 594 312 594 312 556 355 c 128,-1,10
 518 398 518 398 465 398 c 128,-1,11
 412 398 412 398 374.5 363.5 c 128,-1,12
 337 329 337 329 337 281 c 0,13,14
 337 266 337 266 343 250.5 c 128,-1,15
 349 235 349 235 360 222 c 1,16,-1
 313 176 l 1,17,18
 291 203 291 203 279 230 c 128,-1,19
 267 257 267 257 267 281 c 0,20,21
 267 358 267 358 325 413 c 128,-1,22
 383 468 383 468 465 468 c 128,-1,23
 547 468 547 468 605.5 405.5 c 128,-1,24
 664 343 664 343 664 255 c 0,25,26
 664 197 664 197 636 147.5 c 128,-1,27
 608 98 608 98 559 70 c 1,28,-1
 969 70 l 1,29,-1
 969 585 l 1,30,-1
 1039 585 l 1,31,-1
 1039 -269 l 1,32,-1
 243 -269 l 1,33,-1
 243 -234 l 1,34,-1
 969 0 l 1,35,-1
 9 0 l 1,36,-1
 9 70 l 1,37,-1
 9 70 l 1,4,-1
EndSplineSet
Ligature2: "'akhn' Akhand lookup 0 subtable" camlm viramamlm camlm
EndChar

